NotoSerif-Italic.glyphspackage
{
category = Punctuation;
glyphname = exclam;
layers = (
{
layerId = UUID0;
shapes = (
{
closed = 1;
nodes = (
(176,201,l),
(316,714,l),
(200,714,l),
(122,201,l)
);
},
{
closed = 1;
nodes = (
(153,-8,o),
(188,17,o),
(188,76,cs),
(188,110,o),
(165,129,o),
(132,129,cs),
(99,129,o),
(60,104,o),
(60,47,cs),
(60,12,o),
(83,-8,o),
(116,-8,cs)
);
}
);
width = 333;
},
{
layerId = "EFE4222C-09E4-4728-8E05-7459D7542305";
shapes = (
{
closed = 1;
nodes = (
(251,238,l),
(434,714,l),
(217,714,l),
(166,238,l)
);
},
{
closed = 1;
nodes = (
(234,-8,o),
(287,17,o),
(287,92,cs),
(287,146,o),
(247,172,o),
(192,172,cs),
(130,172,o),
(90,132,o),
(90,72,cs),
(90,17,o),
(129,-8,o),
(185,-8,cs)
);
}
);
width = 441;
},
{
layerId = "081AFB27-5722-432A-9779-C9794386CEF1";
shapes = (
{
closed = 1;
nodes = (
(218,238,l),
(392,714,l),
(206,714,l),
(153,238,l)
);
},
{
closed = 1;
nodes = (
(199,-8,o),
(246,17,o),
(246,90,cs),
(246,139,o),
(214,163,o),
(169,163,cs),
(114,163,o),
(79,123,o),
(79,64,cs),
(79,15,o),
(110,-8,o),
(156,-8,cs)
);
}
);
width = 368;
},
{
layerId = "9563C917-11DF-412F-BB09-FC0C1CFFA48C";
shapes = (
{
closed = 1;
nodes = (
(84,167,l),
(204,714,l),
(174,714,l),
(60,167,l)
);
},
{
closed = 1;
nodes = (
(57,-6,o),
(73,10,o),
(73,41,cs),
(73,63,o),
(62,72,o),
(48,72,cs),
(29,72,o),
(14,54,o),
(14,26,cs),
(14,4,o),
(24,-6,o),
(41,-6,cs)
);
}
);
width = 205;
},
{
layerId = "A783126C-D342-49FA-8B69-0453AD03268C";
shapes = (
{
closed = 1;
nodes = (
(113,167,l),
(234,714,l),
(204,714,l),
(89,167,l)
);
},
{
closed = 1;
nodes = (
(83,-9,o),
(98,9,o),
(98,42,cs),
(98,61,o),
(87,69,o),
(74,69,cs),
(54,69,o),
(39,49,o),
(39,20,cs),
(39,0,o),
(49,-9,o),
(65,-9,cs)
);
}
);
width = 254;
},
{
layerId = "44BFC83C-08F8-422F-A73E-536514612562";
shapes = (
{
closed = 1;
nodes = (
(158,206,l),
(298,714,l),
(192,714,l),
(112,206,l)
);
},
{
closed = 1;
nodes = (
(134,-8,o),
(165,13,o),
(165,71,cs),
(165,108,o),
(144,127,o),
(114,127,cs),
(78,127,o),
(53,95,o),
(53,48,cs),
(53,11,o),
(74,-8,o),
(105,-8,cs)
);
}
);
width = 280;
}
);
script = "";
subCategory = Other;
unicode = 33;
}
{
category = Punctuation;
glyphname = quotedbl;
kernLeft = quotesingle;
kernRight = quotesingle;
layers = (
{
layerId = UUID0;
shapes = (
{
closed = 1;
nodes = (
(177,479,l),
(257,714,l),
(151,714,l),
(131,479,l)
);
},
{
closed = 1;
nodes = (
(365,479,l),
(445,714,l),
(339,714,l),
(319,479,l)
);
}
);
width = 408;
},
{
layerId = "0748FCBA-26BB-4096-A322-99C7EC440251";
shapes = (
{
closed = 1;
nodes = (
(218,439,l),
(332,714,l),
(176,714,l),
(152,439,l)
);
},
{
closed = 1;
nodes = (
(436,439,l),
(550,714,l),
(394,714,l),
(370,439,l)
);
}
);
width = 508;
},
{
layerId = "EFE4222C-09E4-4728-8E05-7459D7542305";
shapes = (
{
closed = 1;
nodes = (
(213,410,l),
(352,714,l),
(159,714,l),
(132,410,l)
);
},
{
closed = 1;
nodes = (
(454,410,l),
(592,714,l),
(400,714,l),
(373,410,l)
);
}
);
width = 548;
},
{
layerId = "081AFB27-5722-432A-9779-C9794386CEF1";
shapes = (
{
closed = 1;
nodes = (
(193,425,l),
(323,714,l),
(158,714,l),
(124,425,l)
);
},
{
closed = 1;
nodes = (
(394,425,l),
(523,714,l),
(359,714,l),
(325,425,l)
);
}
);
width = 459;
},
{
layerId = "9563C917-11DF-412F-BB09-FC0C1CFFA48C";
shapes = (
{
closed = 1;
nodes = (
(112,499,l),
(163,714,l),
(133,714,l),
(92,499,l)
);
},
{
closed = 1;
nodes = (
(229,499,l),
(280,714,l),
(250,714,l),
(209,499,l)
);
}
);
width = 236;
},
{
layerId = "A783126C-D342-49FA-8B69-0453AD03268C";
shapes = (
{
closed = 1;
nodes = (
(119,499,l),
(170,714,l),
(140,714,l),
(99,499,l)
);
},
{
closed = 1;
nodes = (
(249,499,l),
(300,714,l),
(270,714,l),
(229,499,l)
);
}
);
width = 280;
},
{
layerId = "44BFC83C-08F8-422F-A73E-536514612562";
shapes = (
{
closed = 1;
nodes = (
(162,483,l),
(243,714,l),
(147,714,l),
(121,483,l)
);
},
{
closed = 1;
nodes = (
(318,483,l),
(399,714,l),
(304,714,l),
(277,483,l)
);
}
);
width = 338;
},
{
layerId = "50C02CB6-129D-4BF7-ADB7-784B68302109";
shapes = (
{
closed = 1;
nodes = (
(180,450,l),
(288,714,l),
(153,714,l),
(123,450,l)
);
},
{
closed = 1;
nodes = (
(361,450,l),
(469,714,l),
(335,714,l),
(305,450,l)
);
}
);
width = 407;
}
);
script = "";
subCategory = Other;
unicode = 34;
}
{
category = Punctuation;
glyphname = numbersign;
layers = (
{
layerId = UUID0;
shapes = (
{
closed = 1;
nodes = (
(116,0,l),
(175,203,l),
(314,203,l),
(255,0,l),
(315,0,l),
(374,203,l),
(495,203,l),
(502,262,l),
(393,262,l),
(450,458,l),
(553,458,l),
(559,517,l),
(467,517,l),
(525,714,l),
(465,714,l),
(407,517,l),
(268,517,l),
(326,714,l),
(265,714,l),
(208,517,l),
(88,517,l),
(82,458,l),
(191,458,l),
(133,262,l),
(30,262,l),
(23,203,l),
(115,203,l),
(56,0,l)
);
},
{
closed = 1;
nodes = (
(251,458,l),
(390,458,l),
(333,262,l),
(194,262,l)
);
}
);
width = 559;
},
{
layerId = "0748FCBA-26BB-4096-A322-99C7EC440251";
shapes = (
{
closed = 1;
nodes = (
(140,0,l),
(199,200,l),
(303,200,l),
(245,0,l),
(316,0,l),
(374,200,l),
(499,200,l),
(506,269,l),
(395,269,l),
(448,450,l),
(557,450,l),
(565,520,l),
(469,520,l),
(526,714,l),
(455,714,l),
(398,520,l),
(294,520,l),
(350,714,l),
(278,714,l),
(223,520,l),
(94,520,l),
(86,450,l),
(202,450,l),
(148,269,l),
(35,269,l),
(28,200,l),
(128,200,l),
(69,0,l)
);
},
{
closed = 1;
nodes = (
(273,450,l),
(378,450,l),
(324,269,l),
(219,269,l)
);
}
);
width = 559;
},
{
layerId = "EFE4222C-09E4-4728-8E05-7459D7542305";
shapes = (
{
closed = 1;
nodes = (
(138,0,l),
(197,198,l),
(305,198,l),
(248,0,l),
(327,0,l),
(384,198,l),
(502,198,l),
(509,274,l),
(407,274,l),
(457,444,l),
(560,444,l),
(570,522,l),
(481,522,l),
(537,714,l),
(458,714,l),
(402,522,l),
(293,522,l),
(348,714,l),
(268,714,l),
(214,522,l),
(99,522,l),
(89,444,l),
(190,444,l),
(139,274,l),
(39,274,l),
(32,198,l),
(118,198,l),
(59,0,l)
);
},
{
closed = 1;
nodes = (
(269,444,l),
(379,444,l),
(327,274,l),
(217,274,l)
);
}
);
width = 559;
},
{
layerId = "081AFB27-5722-432A-9779-C9794386CEF1";
shapes = (
{
closed = 1;
nodes = (
(114,0,l),
(170,199,l),
(256,199,l),
(201,0,l),
(268,0,l),
(322,199,l),
(418,199,l),
(426,271,l),
(344,271,l),
(391,447,l),
(475,447,l),
(486,521,l),
(414,521,l),
(467,714,l),
(401,714,l),
(348,521,l),
(261,521,l),
(313,714,l),
(247,714,l),
(196,521,l),
(102,521,l),
(91,447,l),
(173,447,l),
(124,271,l),
(43,271,l),
(35,199,l),
(104,199,l),
(48,0,l)
);
},
{
closed = 1;
nodes = (
(238,447,l),
(326,447,l),
(277,271,l),
(189,271,l)
);
}
);
width = 456;
},
{
layerId = "9563C917-11DF-412F-BB09-FC0C1CFFA48C";
shapes = (
{
closed = 1;
nodes = (
(72,0,l),
(132,219,l),
(264,219,l),
(204,0,l),
(232,0,l),
(292,219,l),
(378,219,l),
(383,244,l),
(299,244,l),
(365,483,l),
(451,483,l),
(455,508,l),
(372,508,l),
(429,714,l),
(401,714,l),
(344,508,l),
(212,508,l),
(269,714,l),
(241,714,l),
(184,508,l),
(95,508,l),
(91,483,l),
(177,483,l),
(111,244,l),
(23,244,l),
(18,219,l),
(104,219,l),
(44,0,l)
);
},
{
closed = 1;
nodes = (
(205,483,l),
(337,483,l),
(271,244,l),
(139,244,l)
);
}
);
width = 440;
},
{
layerId = "A783126C-D342-49FA-8B69-0453AD03268C";
shapes = (
{
closed = 1;
nodes = (
(101,0,l),
(165,219,l),
(357,219,l),
(293,0,l),
(321,0,l),
(385,219,l),
(501,219,l),
(506,244,l),
(392,244,l),
(462,483,l),
(578,483,l),
(583,508,l),
(470,508,l),
(530,714,l),
(502,714,l),
(442,508,l),
(250,508,l),
(310,714,l),
(282,714,l),
(222,508,l),
(103,508,l),
(98,483,l),
(214,483,l),
(144,244,l),
(26,244,l),
(21,219,l),
(137,219,l),
(73,0,l)
);
},
{
closed = 1;
nodes = (
(242,483,l),
(434,483,l),
(364,244,l),
(172,244,l)
);
}
);
width = 559;
},
{
layerId = "44BFC83C-08F8-422F-A73E-536514612562";
shapes = (
{
closed = 1;
nodes = (
(93,0,l),
(149,203,l),
(260,203,l),
(205,0,l),
(255,0,l),
(310,203,l),
(406,203,l),
(414,262,l),
(329,262,l),
(382,459,l),
(463,459,l),
(471,517,l),
(399,517,l),
(453,714,l),
(402,714,l),
(348,517,l),
(237,517,l),
(291,714,l),
(240,714,l),
(187,517,l),
(93,517,l),
(86,459,l),
(170,459,l),
(116,262,l),
(36,262,l),
(28,203,l),
(99,203,l),
(42,0,l)
);
},
{
closed = 1;
nodes = (
(220,459,l),
(331,459,l),
(278,262,l),
(166,262,l)
);
}
);
width = 447;
},
{
layerId = "50C02CB6-129D-4BF7-ADB7-784B68302109";
shapes = (
{
closed = 1;
nodes = (
(105,0,l),
(161,201,l),
(258,201,l),
(203,0,l),
(262,0,l),
(317,201,l),
(413,201,l),
(421,267,l),
(337,267,l),
(387,452,l),
(470,452,l),
(479,519,l),
(407,519,l),
(461,714,l),
(402,714,l),
(348,519,l),
(251,519,l),
(303,714,l),
(244,714,l),
(192,519,l),
(98,519,l),
(89,452,l),
(172,452,l),
(121,267,l),
(40,267,l),
(32,201,l),
(102,201,l),
(45,0,l)
);
},
{
closed = 1;
nodes = (
(230,452,l),
(328,452,l),
(277,267,l),
(179,267,l)
);
}
);
width = 452;
}
);
script = "";
subCategory = Other;
unicode = 35;
}
{
category = Symbol;
glyphname = dollar;
layers = (
{
layerId = UUID0;
shapes = (
{
closed = 1;
nodes = (
(176,-79,l),
(226,-79,l),
(250,36,l),
(377,42,o),
(478,108,o),
(478,229,cs),
(478,304,o),
(429,345,o),
(339,393,cs),
(328,399,l),
(379,639,l),
(439,626,o),
(452,564,o),
(452,515,c),
(508,515,o),
(533,543,o),
(533,584,cs),
(533,641,o),
(479,677,o),
(389,684,c),
(405,760,l),
(355,760,l),
(339,684,l),
(223,679,o),
(131,624,o),
(131,503,cs),
(131,421,o),
(184,372,o),
(263,332,c),
(211,87,l),
(143,101,o),
(101,166,o),
(101,254,c),
(74,254,o),
(24,232,o),
(24,172,cs),
(24,101,o),
(88,45,o),
(201,37,c)
);
},
{
closed = 1;
nodes = (
(309,310,l),
(359,283,o),
(383,254,o),
(383,207,c),
(383,143,o),
(340,92,o),
(261,85,c)
);
},
{
closed = 1;
nodes = (
(283,422,l),
(241,448,o),
(224,476,o),
(224,517,cs),
(224,587,o),
(267,631,o),
(329,640,c)
);
}
);
width = 559;
},
{
layerId = "EFE4222C-09E4-4728-8E05-7459D7542305";
shapes = (
{
closed = 1;
nodes = (
(190,-79,l),
(250,-79,l),
(274,38,l),
(438,39,o),
(527,115,o),
(527,230,cs),
(527,316,o),
(486,381,o),
(393,429,cs),
(361,446,l),
(396,611,l),
(423,584,o),
(443,531,o),
(443,484,c),
(550,484,o),
(580,520,o),
(580,573,cs),
(580,636,o),
(528,677,o),
(412,686,c),
(429,760,l),
(369,760,l),
(353,689,l),
(202,686,o),
(112,614,o),
(112,498,cs),
(112,411,o),
(163,360,o),
(270,302,c),
(230,113,l),
(193,134,o),
(167,171,o),
(167,268,c),
(65,268,o),
(31,228,o),
(31,172,cs),
(31,94,o),
(88,50,o),
(215,39,c)
);
},
{
closed = 1;
nodes = (
(323,268,l),
(369,229,o),
(374,205,o),
(374,177,cs),
(374,129,o),
(336,97,o),
(287,101,c)
);
},
{
closed = 1;
nodes = (
(307,481,l),
(282,502,o),
(267,521,o),
(267,557,cs),
(267,604,o),
(303,619,o),
(337,623,c)
);
}
);
width = 569;
},
{
layerId = "081AFB27-5722-432A-9779-C9794386CEF1";
shapes = (
{
closed = 1;
nodes = (
(174,-79,l),
(223,-79,l),
(247,38,l),
(389,40,o),
(464,118,o),
(464,241,cs),
(464,318,o),
(434,377,o),
(362,420,cs),
(334,436,l),
(369,617,l),
(387,593,o),
(402,538,o),
(400,491,c),
(470,491,o),
(525,537,o),
(523,596,cs),
(520,646,o),
(477,678,o),
(385,686,c),
(402,760,l),
(352,760,l),
(337,688,l),
(206,684,o),
(129,613,o),
(129,490,cs),
(129,410,o),
(169,361,o),
(253,309,c),
(214,107,l),
(187,127,o),
(169,170,o),
(172,265,c),
(86,265,o),
(50,208,o),
(50,148,cs),
(50,85,o),
(99,48,o),
(199,39,c)
);
},
{
closed = 1;
nodes = (
(296,277,l),
(325,248,o),
(333,223,o),
(333,197,cs),
(333,134,o),
(299,96,o),
(261,97,c)
);
},
{
closed = 1;
nodes = (
(291,468,l),
(274,489,o),
(263,509,o),
(263,543,cs),
(263,599,o),
(294,621,o),
(320,627,c)
);
}
);
width = 505;
},
{
layerId = "9563C917-11DF-412F-BB09-FC0C1CFFA48C";
shapes = (
{
closed = 1;
nodes = (
(127,-78,l),
(152,-78,l),
(176,35,l),
(284,37,o),
(349,104,o),
(349,212,cs),
(349,272,o),
(319,321,o),
(256,368,cs),
(248,374,l),
(309,659,l),
(376,652,o),
(390,602,o),
(388,554,c),
(402,554,o),
(415,566,o),
(415,583,cs),
(415,632,o),
(378,676,o),
(314,684,c),
(330,760,l),
(305,760,l),
(289,685,l),
(197,682,o),
(134,607,o),
(134,511,cs),
(134,444,o),
(164,403,o),
(220,361,c),
(156,61,l),
(74,67,o),
(46,123,o),
(46,214,c),
(35,211,o),
(23,199,o),
(23,176,cs),
(23,108,o),
(56,43,o),
(151,36,c)
);
},
{
closed = 1;
nodes = (
(242,344,l),
(305,292,o),
(321,255,o),
(321,212,cs),
(321,122,o),
(271,64,o),
(181,60,c)
);
},
{
closed = 1;
nodes = (
(226,390,l),
(178,429,o),
(162,457,o),
(162,511,cs),
(162,598,o),
(216,655,o),
(284,660,c)
);
}
);
width = 424;
},
{
layerId = "A783126C-D342-49FA-8B69-0453AD03268C";
shapes = (
{
closed = 1;
nodes = (
(177,-79,l),
(205,-79,l),
(230,38,l),
(351,40,o),
(428,101,o),
(428,200,cs),
(428,278,o),
(398,320,o),
(302,370,cs),
(300,371,l),
(361,654,l),
(440,647,o),
(456,602,o),
(455,550,c),
(472,550,o),
(481,559,o),
(481,576,cs),
(481,620,o),
(453,670,o),
(366,679,c),
(383,760,l),
(355,760,l),
(338,680,l),
(226,680,o),
(158,607,o),
(158,512,cs),
(158,426,o),
(199,392,o),
(269,357,c),
(207,63,l),
(106,69,o),
(70,127,o),
(70,236,c),
(53,235,o),
(44,223,o),
(44,206,cs),
(44,119,o),
(91,47,o),
(202,39,c)
);
},
{
closed = 1;
nodes = (
(295,344,l),
(381,298,o),
(400,265,o),
(400,200,cs),
(400,113,o),
(337,67,o),
(235,63,c)
);
},
{
closed = 1;
nodes = (
(275,384,l),
(213,417,o),
(186,444,o),
(186,512,cs),
(186,609,o),
(256,653,o),
(333,655,c)
);
}
);
width = 511;
},
{
layerId = "44BFC83C-08F8-422F-A73E-536514612562";
shapes = (
{
closed = 1;
nodes = (
(146,-79,l),
(187,-79,l),
(211,36,l),
(320,42,o),
(405,111,o),
(405,234,cs),
(405,306,o),
(370,349,o),
(301,392,cs),
(289,398,l),
(339,641,l),
(383,629,o),
(391,567,o),
(389,517,c),
(435,517,o),
(464,549,o),
(464,590,cs),
(463,645,o),
(422,677,o),
(349,684,c),
(365,760,l),
(324,760,l),
(309,684,l),
(207,678,o),
(130,622,o),
(130,492,cs),
(130,419,o),
(169,369,o),
(231,333,c),
(181,85,l),
(131,99,o),
(103,166,o),
(106,253,c),
(68,253,o),
(32,220,o),
(32,162,cs),
(32,97,o),
(81,44,o),
(171,37,c)
);
},
{
closed = 1;
nodes = (
(268,311,l),
(303,288,o),
(321,261,o),
(321,218,cs),
(321,147,o),
(284,92,o),
(222,84,c)
);
},
{
closed = 1;
nodes = (
(254,421,l),
(225,444,o),
(213,470,o),
(213,508,cs),
(213,583,o),
(249,631,o),
(297,641,c)
);
}
);
width = 461;
}
);
script = "";
subCategory = Currency;
unicode = 36;
}
{
category = Symbol;
glyphname = percent;
layers = (
{
layerId = UUID0;
shapes = (
{
closed = 1;
nodes = (
(241,0,l),
(739,714,l),
(669,714,l),
(167,0,l)
);
},
{
closed = 1;
nodes = (
(344,281,o),
(409,460,o),
(409,564,cs),
(409,659,o),
(369,723,o),
(276,723,cs),
(130,723,o),
(66,551,o),
(66,440,c),
(66,332,o),
(116,281,o),
(195,281,cs)
);
},
{
closed = 1;
nodes = (
(159,322,o),
(145,360,o),
(145,425,cs),
(145,513,o),
(188,683,o),
(272,683,c),
(312,683,o),
(326,645,o),
(326,580,cs),
(326,492,o),
(283,322,o),
(199,322,cs)
);
},
{
closed = 1;
nodes = (
(786,-8,o),
(851,171,o),
(851,275,cs),
(851,370,o),
(811,434,o),
(718,434,cs),
(572,434,o),
(508,262,o),
(508,151,c),
(508,43,o),
(558,-8,o),
(637,-8,cs)
);
},
{
closed = 1;
nodes = (
(601,33,o),
(587,71,o),
(587,136,cs),
(587,224,o),
(630,394,o),
(714,394,c),
(754,394,o),
(768,356,o),
(768,291,cs),
(768,203,o),
(725,33,o),
(641,33,cs)
);
}
);
width = 896;
},
{
layerId = "0748FCBA-26BB-4096-A322-99C7EC440251";
shapes = (
{
closed = 1;
nodes = (
(257,0,l),
(750,714,l),
(675,714,l),
(179,0,l)
);
},
{
closed = 1;
nodes = (
(376,280,o),
(447,460,o),
(447,575,cs),
(447,660,o),
(403,724,o),
(302,724,cs),
(142,724,o),
(72,551,o),
(72,426,c),
(72,331,o),
(127,280,o),
(213,280,c)
);
},
{
closed = 1;
nodes = (
(192,331,o),
(180,365,o),
(180,418,cs),
(180,497,o),
(221,672,o),
(299,672,c),
(332,671,o),
(343,639,o),
(343,586,cs),
(343,506,o),
(302,331,o),
(224,331,cs)
);
},
{
closed = 1;
nodes = (
(791,-10,o),
(862,170,o),
(862,285,cs),
(862,370,o),
(818,434,o),
(717,434,cs),
(557,434,o),
(487,261,o),
(487,136,c),
(487,41,o),
(542,-10,o),
(628,-10,c)
);
},
{
closed = 1;
nodes = (
(607,41,o),
(595,75,o),
(595,128,cs),
(595,207,o),
(636,382,o),
(714,382,c),
(747,381,o),
(758,349,o),
(758,296,cs),
(758,216,o),
(717,41,o),
(639,41,cs)
);
}
);
width = 896;
},
{
layerId = "EFE4222C-09E4-4728-8E05-7459D7542305";
shapes = (
{
closed = 1;
nodes = (
(289,0,l),
(778,714,l),
(700,714,l),
(208,0,l)
);
},
{
closed = 1;
nodes = (
(399,279,o),
(475,460,o),
(475,583,cs),
(475,661,o),
(428,725,o),
(321,725,cs),
(150,725,o),
(76,551,o),
(76,416,cs),
(76,330,o),
(135,279,o),
(226,279,cs)
);
},
{
closed = 1;
nodes = (
(217,338,o),
(206,369,o),
(206,413,cs),
(206,485,o),
(246,664,o),
(319,664,cs),
(347,662,o),
(356,635,o),
(356,590,cs),
(356,516,o),
(316,338,o),
(243,338,cs)
);
},
{
closed = 1;
nodes = (
(835,-11,o),
(911,169,o),
(911,292,cs),
(911,370,o),
(864,434,o),
(757,434,cs),
(586,434,o),
(512,260,o),
(512,125,cs),
(512,40,o),
(571,-11,o),
(662,-11,cs)
);
},
{
closed = 1;
nodes = (
(652,47,o),
(641,78,o),
(641,122,cs),
(641,194,o),
(681,373,o),
(754,373,cs),
(782,371,o),
(791,344,o),
(791,300,cs),
(791,226,o),
(751,47,o),
(678,47,cs)
);
}
);
width = 935;
},
{
layerId = "081AFB27-5722-432A-9779-C9794386CEF1";
shapes = (
{
closed = 1;
nodes = (
(240,0,l),
(666,714,l),
(602,714,l),
(173,0,l)
);
},
{
closed = 1;
nodes = (
(346,279,o),
(416,470,o),
(416,587,cs),
(416,665,o),
(379,725,o),
(294,725,cs),
(147,725,o),
(79,539,o),
(79,413,cs),
(79,327,o),
(125,279,o),
(198,279,cs)
);
},
{
closed = 1;
nodes = (
(197,334,o),
(189,361,o),
(189,403,cs),
(189,480,o),
(230,667,o),
(290,667,cs),
(310,667,o),
(317,643,o),
(317,603,cs),
(317,523,o),
(276,334,o),
(216,334,cs)
);
},
{
closed = 1;
nodes = (
(690,-10,o),
(760,180,o),
(760,297,cs),
(760,374,o),
(723,434,o),
(638,434,cs),
(491,434,o),
(423,249,o),
(423,123,cs),
(423,38,o),
(469,-10,o),
(542,-10,cs)
);
},
{
closed = 1;
nodes = (
(540,44,o),
(532,71,o),
(532,113,cs),
(532,189,o),
(573,377,o),
(633,377,cs),
(653,377,o),
(660,352,o),
(660,312,cs),
(660,233,o),
(619,44,o),
(558,44,cs)
);
}
);
width = 766;
},
{
layerId = "9563C917-11DF-412F-BB09-FC0C1CFFA48C";
shapes = (
{
closed = 1;
nodes = (
(160,0,l),
(595,714,l),
(565,714,l),
(130,0,l)
);
},
{
closed = 1;
nodes = (
(270,283,o),
(320,456,o),
(320,576,cs),
(320,665,o),
(289,721,o),
(229,721,cs),
(126,721,o),
(73,548,o),
(73,426,cs),
(73,333,o),
(106,283,o),
(164,283,cs)
);
},
{
closed = 1;
nodes = (
(122,308,o),
(101,344,o),
(101,426,cs),
(101,528,o),
(144,696,o),
(227,696,cs),
(271,696,o),
(292,653,o),
(292,576,cs),
(292,476,o),
(247,308,o),
(166,308,cs)
);
},
{
closed = 1;
nodes = (
(605,-6,o),
(653,167,o),
(653,287,cs),
(653,376,o),
(622,432,o),
(562,432,cs),
(459,432,o),
(406,259,o),
(406,137,cs),
(406,42,o),
(442,-6,o),
(497,-6,cs)
);
},
{
closed = 1;
nodes = (
(455,19,o),
(434,55,o),
(434,137,cs),
(434,239,o),
(477,407,o),
(560,407,cs),
(604,407,o),
(625,364,o),
(625,287,cs),
(625,187,o),
(582,19,o),
(499,19,cs)
);
}
);
width = 693;
},
{
layerId = "A783126C-D342-49FA-8B69-0453AD03268C";
shapes = (
{
closed = 1;
nodes = (
(198,0,l),
(686,714,l),
(658,714,l),
(170,0,l)
);
},
{
closed = 1;
nodes = (
(304,283,o),
(357,453,o),
(357,560,cs),
(357,656,o),
(322,721,o),
(249,721,cs),
(124,721,o),
(68,551,o),
(68,447,cs),
(68,339,o),
(111,283,o),
(182,283,cs)
);
},
{
closed = 1;
nodes = (
(126,307,o),
(95,353,o),
(95,447,cs),
(95,532,o),
(143,697,o),
(249,697,cs),
(297,697,o),
(330,652,o),
(330,560,cs),
(330,472,o),
(285,307,o),
(182,307,cs)
);
},
{
closed = 1;
nodes = (
(735,-6,o),
(788,164,o),
(788,271,cs),
(788,367,o),
(753,432,o),
(680,432,cs),
(555,432,o),
(499,262,o),
(499,158,cs),
(499,53,o),
(540,-6,o),
(615,-6,cs)
);
},
{
closed = 1;
nodes = (
(557,18,o),
(526,64,o),
(526,158,cs),
(526,243,o),
(569,408,o),
(680,408,cs),
(728,408,o),
(761,363,o),
(761,271,cs),
(761,183,o),
(716,18,o),
(615,18,cs)
);
}
);
width = 840;
},
{
layerId = "44BFC83C-08F8-422F-A73E-536514612562";
shapes = (
{
closed = 1;
nodes = (
(201,0,l),
(629,714,l),
(572,714,l),
(140,0,l)
);
},
{
closed = 1;
nodes = (
(298,281,o),
(360,471,o),
(360,577,cs),
(360,665,o),
(329,723,o),
(257,723,cs),
(132,723,o),
(72,540,o),
(72,427,cs),
(72,328,o),
(110,281,o),
(171,281,cs)
);
},
{
closed = 1;
nodes = (
(151,321,o),
(141,353,o),
(141,407,cs),
(141,501,o),
(183,684,o),
(252,684,c),
(279,685,o),
(289,653,o),
(289,598,cs),
(289,504,o),
(247,321,o),
(178,321,cs)
);
},
{
closed = 1;
nodes = (
(644,-8,o),
(705,183,o),
(705,288,cs),
(705,376,o),
(674,434,o),
(602,434,cs),
(477,434,o),
(418,251,o),
(418,138,cs),
(418,39,o),
(456,-8,o),
(517,-8,cs)
);
},
{
closed = 1;
nodes = (
(496,32,o),
(486,64,o),
(486,120,cs),
(486,212,o),
(529,395,o),
(597,395,cs),
(625,395,o),
(635,363,o),
(635,309,cs),
(635,215,o),
(593,32,o),
(524,32,cs)
);
}
);
width = 727;
},
{
layerId = "50C02CB6-129D-4BF7-ADB7-784B68302109";
shapes = (
{
closed = 1;
nodes = (
(223,0,l),
(650,714,l),
(588.99,714,l),
(159,0,l)
);
},
{
closed = 1;
nodes = (
(325,280,o),
(392,470,o),
(392,583,cs),
(392,665,o),
(357,724,o),
(278,724,cs),
(140,724,o),
(76,539,o),
(76,419,cs),
(76,327,o),
(119,280,o),
(186,280,cs)
);
},
{
closed = 1;
nodes = (
(177,328,o),
(168,358,o),
(168,405,cs),
(168,489,o),
(210,674,o),
(273,674,c),
(297,675,o),
(305,647,o),
(305,601,cs),
(305,515,o),
(263,328,o),
(200,328,cs)
);
},
{
closed = 1;
nodes = (
(670,-9,o),
(736,181,o),
(736,293,cs),
(736,375,o),
(702,434,o),
(622,434,cs),
(485,434,o),
(421,250,o),
(421,129,cs),
(421,38,o),
(463,-9,o),
(531,-9,cs)
);
},
{
closed = 1;
nodes = (
(521,39,o),
(512,68,o),
(512,116,cs),
(512,199,o),
(554,385,o),
(617,385,cs),
(641,385,o),
(649,357,o),
(649,311,cs),
(649,225,o),
(608,39,o),
(543,39,cs)
);
}
);
width = 749;
}
);
script = "";
subCategory = Math;
unicode = 37;
}
{
category = Symbol;
glyphname = ampersand;
layers = (
{
layerId = UUID0;
shapes = (
{
closed = 1;
nodes = (
(352,-10,o),
(422,29,o),
(475,83,c),
(535,0,l),
(688,0,l),
(697,42,l),
(688,42,ls),
(635,42,o),
(612,55,o),
(590,84,cs),
(535,159,l),
(568,211,o),
(593,266,o),
(615,311,cs),
(645,372,o),
(689,379,o),
(734,379,cs),
(743,379,l),
(752,421,l),
(572,421,l),
(564,382,ls),
(552,324,o),
(531,261,o),
(501,205,c),
(361,397,l),
(505,451,o),
(579,481,o),
(579,594,cs),
(579,667,o),
(527,724,o),
(410,724,cs),
(275,724,o),
(197,666,o),
(197,552,cs),
(197,505,o),
(214,457,o),
(245,405,c),
(131,362,o),
(35,308,o),
(35,177,cs),
(35,74,o),
(105,-10,o),
(254,-10,cs)
);
},
{
closed = 1;
nodes = (
(181,46,o),
(134,103,o),
(134,179,cs),
(134,269,o),
(172,315,o),
(274,362,c),
(444,126,l),
(399,78,o),
(340,46,o),
(264,46,cs)
);
},
{
closed = 1;
nodes = (
(305,484,o),
(293,522,o),
(293,559,cs),
(293,637,o),
(334,675,o),
(403,675,cs),
(457,675,o),
(488,637,o),
(488,587,cs),
(488,513,o),
(445,480,o),
(333,437,c)
);
}
);
width = 742;
},
{
layerId = "0748FCBA-26BB-4096-A322-99C7EC440251";
shapes = (
{
closed = 1;
nodes = (
(365,-10,o),
(437,22,o),
(492,69,c),
(542,0,l),
(734,0,l),
(745,53,l),
(738,53,ls),
(695,53,o),
(665,67,o),
(645,94,cs),
(582,177,l),
(611,222,o),
(633,267,o),
(653,306,cs),
(684,366,o),
(727,373,o),
(772,373,cs),
(781,373,l),
(792,426,l),
(592,426,l),
(584,388,ls),
(574,340,o),
(558,288,o),
(535,240,c),
(412,402,l),
(555,460,o),
(607,502,o),
(607,594,cs),
(607,667,o),
(552,724,o),
(429,724,cs),
(287,724,o),
(205,666,o),
(205,552,cs),
(205,505,o),
(222,455,o),
(252,404,c),
(135,361,o),
(34,311,o),
(34,178,cs),
(34,71,o),
(107,-10,o),
(268,-10,cs)
);
},
{
closed = 1;
nodes = (
(224,57,o),
(181,112,o),
(181,186,c),
(181,257,o),
(211,305,o),
(290,349,c),
(453,123,l),
(412,83,o),
(361,57,o),
(299,57,cs)
);
},
{
closed = 1;
nodes = (
(353,489,o),
(340,522,o),
(340,560,cs),
(340,627,o),
(375,664,o),
(422,664,cs),
(469,664,o),
(493,633,o),
(493,580,c),
(493,518,o),
(461,485,o),
(379,450,c)
);
}
);
width = 801;
},
{
layerId = "EFE4222C-09E4-4728-8E05-7459D7542305";
shapes = (
{
closed = 1;
nodes = (
(374,-10,o),
(448,17,o),
(504,59,c),
(547,0,l),
(768,0,l),
(780,61,l),
(775,61,ls),
(739,61,o),
(704,76,o),
(685,101,cs),
(616,190,l),
(642,230,o),
(662,268,o),
(681,302,cs),
(712,362,o),
(755,369,o),
(800,369,cs),
(809,369,l),
(821,430,l),
(606,430,l),
(598,392,ls),
(590,352,o),
(578,308,o),
(560,266,c),
(449,406,l),
(592,467,o),
(627,517,o),
(627,594,cs),
(627,667,o),
(570,724,o),
(443,724,cs),
(296,724,o),
(211,666,o),
(211,552,cs),
(211,505,o),
(228,454,o),
(257,403,c),
(138,360,o),
(33,313,o),
(33,179,cs),
(33,69,o),
(108,-10,o),
(278,-10,cs)
);
},
{
closed = 1;
nodes = (
(256,65,o),
(216,119,o),
(216,191,cs),
(216,248,o),
(240,298,o),
(302,339,c),
(460,121,l),
(422,87,o),
(377,65,o),
(325,65,cs)
);
},
{
closed = 1;
nodes = (
(389,493,o),
(375,522,o),
(375,561,cs),
(375,620,o),
(396,656,o),
(441,656,cs),
(478,656,o),
(497,630,o),
(497,575,cs),
(497,522,o),
(473,489,o),
(413,460,c)
);
}
);
width = 844;
},
{
layerId = "081AFB27-5722-432A-9779-C9794386CEF1";
shapes = (
{
closed = 1;
nodes = (
(306,-10,o),
(368,20,o),
(416,64,c),
(447,0,l),
(633,0,l),
(645,57,l),
(642,57,ls),
(594,57,o),
(575,82,o),
(552,121,cs),
(516,183,l),
(539,226,o),
(556,268,o),
(573,304,cs),
(601,364,o),
(636,371,o),
(673,371,cs),
(680,371,l),
(692,428,l),
(514,428,l),
(506,390,ls),
(498,346,o),
(487,298,o),
(472,253,c),
(389,404,l),
(510,464,o),
(539,510,o),
(539,600,cs),
(539,670,o),
(494,724,o),
(392,724,cs),
(267,724,o),
(195,663,o),
(195,543,cs),
(195,499,o),
(206,451,o),
(227,403,c),
(124,359,o),
(33,310,o),
(33,169,cs),
(33,66,o),
(93,-10,o),
(228,-10,cs)
);
},
{
closed = 1;
nodes = (
(220,61,o),
(190,112,o),
(190,180,cs),
(190,246,o),
(210,298,o),
(262,344,c),
(382,122,l),
(349,85,o),
(313,61,o),
(273,61,cs)
);
},
{
closed = 1;
nodes = (
(345,488,o),
(335,519,o),
(335,555,cs),
(335,613,o),
(350,660,o),
(389,660,cs),
(416,660,o),
(429,635,o),
(429,588,cs),
(429,525,o),
(411,490,o),
(361,455,c)
);
}
);
width = 697;
},
{
layerId = "9563C917-11DF-412F-BB09-FC0C1CFFA48C";
shapes = (
{
closed = 1;
nodes = (
(243,-10,o),
(302,39,o),
(346,104,c),
(402,0,l),
(478,0,l),
(483,20,l),
(473,20,ls),
(423,20,o),
(420,23,o),
(403,55,cs),
(363,129,l),
(396,191,o),
(424,271,o),
(439,325,cs),
(457,392,o),
(461,395,o),
(520,395,cs),
(534,395,l),
(539,415,l),
(433,415,l),
(424,374,ls),
(408,301,o),
(383,220,o),
(349,153,c),
(225,393,l),
(372,459,o),
(421,506,o),
(421,601,cs),
(421,670,o),
(379,724,o),
(301,724,cs),
(211,724,o),
(153,661,o),
(153,548,cs),
(153,504,o),
(167,453,o),
(191,405,c),
(87,360,o),
(17,301,o),
(17,164,cs),
(17,71,o),
(63,-10,o),
(164,-10,cs)
);
},
{
closed = 1;
nodes = (
(87,15,o),
(45,86,o),
(45,162,cs),
(45,274,o),
(77,326,o),
(202,382,c),
(333,127,l),
(291,61,o),
(238,15,o),
(166,15,cs)
);
},
{
closed = 1;
nodes = (
(188,468,o),
(181,510,o),
(181,548,cs),
(181,648,o),
(230,699,o),
(300,699,cs),
(360,699,o),
(393,657,o),
(393,601,cs),
(393,517,o),
(349,474,o),
(214,416,c)
);
}
);
width = 530;
},
{
layerId = "A783126C-D342-49FA-8B69-0453AD03268C";
shapes = (
{
closed = 1;
nodes = (
(298,-10,o),
(371,39,o),
(423,104,c),
(496,0,l),
(606,0,l),
(611,20,l),
(569,20,ls),
(520,20,o),
(515,23,o),
(485,64,cs),
(439,127,l),
(476,187,o),
(510,263,o),
(526,317,cs),
(545,382,o),
(557,387,o),
(602,387,cs),
(664,387,l),
(669,407,l),
(519,407,l),
(508,355,ls),
(494,289,o),
(463,216,o),
(424,149,c),
(252,390,l),
(434,457,o),
(495,495,o),
(495,596,cs),
(495,665,o),
(448,724,o),
(348,724,cs),
(216,724,o),
(157,652,o),
(157,554,cs),
(157,507,o),
(180,454,o),
(213,402,c),
(103,368,o),
(7,304,o),
(7,175,cs),
(7,79,o),
(70,-10,o),
(200,-10,cs)
);
},
{
closed = 1;
nodes = (
(93,15,o),
(35,94,o),
(35,175,cs),
(35,289,o),
(99,339,o),
(227,381,c),
(409,125,l),
(360,62,o),
(293,15,o),
(201,15,cs)
);
},
{
closed = 1;
nodes = (
(198,472,o),
(185,519,o),
(185,554,cs),
(185,636,o),
(230,699,o),
(346,699,cs),
(425,699,o),
(467,656,o),
(467,595,cs),
(467,507,o),
(406,469,o),
(238,411,c)
);
}
);
width = 667;
},
{
layerId = "44BFC83C-08F8-422F-A73E-536514612562";
shapes = (
{
closed = 1;
nodes = (
(283,-10,o),
(342,29,o),
(388,85,c),
(429,0,l),
(560,0,l),
(570,41,l),
(563,41,ls),
(517,41,o),
(500,56,o),
(482,90,cs),
(444,157,l),
(473,210,o),
(494,266,o),
(513,311,cs),
(540,373,o),
(575,380,o),
(612,380,cs),
(619,380,l),
(628,421,l),
(480,421,l),
(472,381,ls),
(460,322,o),
(442,258,o),
(416,201,c),
(316,397,l),
(438,453,o),
(494,490,o),
(494,601,cs),
(494,669,o),
(453,724,o),
(361,724,cs),
(247,724,o),
(183,662,o),
(183,543,cs),
(183,499,o),
(194,453,o),
(215,405,c),
(117,360,o),
(34,305,o),
(34,166,cs),
(34,69,o),
(87,-10,o),
(204,-10,cs)
);
},
{
closed = 1;
nodes = (
(161,45,o),
(125,98,o),
(125,171,cs),
(125,265,o),
(153,312,o),
(238,363,c),
(363,126,l),
(325,78,o),
(278,45,o),
(220,45,cs)
);
},
{
closed = 1;
nodes = (
(276,479,o),
(268,517,o),
(268,551,cs),
(268,632,o),
(298,676,o),
(355,676,cs),
(396,676,o),
(420,647,o),
(420,595,cs),
(420,516,o),
(387,482,o),
(295,436,c)
);
}
);
width = 606;
},
{
layerId = "50C02CB6-129D-4BF7-ADB7-784B68302109";
shapes = (
{
closed = 1;
nodes = (
(296,-10,o),
(357,24,o),
(404,73,c),
(439,0,l),
(601,0,l),
(612,50,l),
(608,50,ls),
(560,50,o),
(542,71,o),
(522,107,cs),
(485,172,l),
(510,219,o),
(529,267,o),
(547,307,cs),
(574,368,o),
(610,375,o),
(646,375,cs),
(653,375,l),
(664,425,l),
(499,425,l),
(491,386,ls),
(481,336,o),
(467,281,o),
(448,230,c),
(357,401,l),
(479,459,o),
(520,501,o),
(520,600,cs),
(520,669,o),
(476,724,o),
(379,724,cs),
(258,724,o),
(190,663,o),
(190,543,cs),
(190,499,o),
(201,452,o),
(222,404,c),
(121,360,o),
(34,308,o),
(34,168,cs),
(34,67,o),
(90,-10,o),
(218,-10,cs)
);
},
{
closed = 1;
nodes = (
(194,54,o),
(162,106,o),
(162,176,cs),
(162,254,o),
(185,304,o),
(252,352,c),
(374,124,l),
(339,82,o),
(298,54,o),
(250,54,cs)
);
},
{
closed = 1;
nodes = (
(315,484,o),
(306,518,o),
(306,553,cs),
(306,621,o),
(327,667,o),
(374,667,cs),
(407,667,o),
(425,640,o),
(425,591,cs),
(425,521,o),
(401,487,o),
(332,447,c)
);
}
);
width = 658;
}
);
script = "";
subCategory = Other;
unicode = 38;
}
{
category = Punctuation;
glyphname = quotesingle;
kernLeft = quotesingle;
kernRight = quotesingle;
layers = (
{
layerId = UUID0;
shapes = (
{
closed = 1;
nodes = (
(173,479,l),
(253,714,l),
(147,714,l),
(127,479,l)
);
}
);
width = 220;
},
{
layerId = "EFE4222C-09E4-4728-8E05-7459D7542305";
shapes = (
{
closed = 1;
nodes = (
(231,410,l),
(352,714,l),
(160,714,l),
(150,410,l)
);
}
);
width = 322;
},
{
layerId = "081AFB27-5722-432A-9779-C9794386CEF1";
shapes = (
{
closed = 1;
nodes = (
(210,425,l),
(323,714,l),
(160,714,l),
(141,425,l)
);
}
);
width = 271;
},
{
layerId = "9563C917-11DF-412F-BB09-FC0C1CFFA48C";
shapes = (
{
closed = 1;
nodes = (
(119,530,l),
(163,714,l),
(133,714,l),
(99,530,l)
);
}
);
width = 119;
},
{
layerId = "A783126C-D342-49FA-8B69-0453AD03268C";
shapes = (
{
closed = 1;
nodes = (
(113,530,l),
(157,714,l),
(127,714,l),
(93,530,l)
);
}
);
width = 131;
},
{
layerId = "44BFC83C-08F8-422F-A73E-536514612562";
shapes = (
{
closed = 1;
nodes = (
(163,483,l),
(242,714,l),
(147,714,l),
(122,483,l)
);
}
);
width = 186;
}
);
script = "";
subCategory = Other;
unicode = 39;
}
{
category = Punctuation;
glyphname = parenleft;
kernRight = parenleft;
layers = (
{
layerId = UUID0;
shapes = (
{
closed = 1;
nodes = (
(229,-82,l),
(159,-33,o),
(136,54,o),
(136,139,cs),
(136,277,o),
(187,601,o),
(398,715,c),
(408,760,l),
(161,695,o),
(42,429,o),
(42,186,cs),
(42,47,o),
(94,-74,o),
(219,-128,c)
);
}
);
width = 346;
},
{
layerId = "0748FCBA-26BB-4096-A322-99C7EC440251";
shapes = (
{
closed = 1;
nodes = (
(283,-75,l),
(218,-28,o),
(196,57,o),
(196,139,cs),
(196,276,o),
(245,596,o),
(451,709,c),
(461,772,l),
(178,706,o),
(42,434,o),
(42,186,cs),
(42,42,o),
(109,-83,o),
(270,-139,c)
);
}
);
width = 400;
},
{
layerId = "EFE4222C-09E4-4728-8E05-7459D7542305";
shapes = (
{
closed = 1;
nodes = (
(323,-70,l),
(261,-24,o),
(240,59,o),
(240,139,cs),
(240,275,o),
(288,592,o),
(490,705,c),
(500,781,l),
(191,714,o),
(42,438,o),
(42,186,cs),
(42,38,o),
(120,-90,o),
(308,-147,c)
);
}
);
width = 440;
},
{
layerId = "081AFB27-5722-432A-9779-C9794386CEF1";
shapes = (
{
closed = 1;
nodes = (
(269,-73,l),
(225,-30,o),
(209,46,o),
(209,120,cs),
(209,244,o),
(257,587,o),
(435,707,c),
(446,776,l),
(176,707,o),
(41,418,o),
(41,170,cs),
(41,31,o),
(104,-89,o),
(253,-143,c)
);
}
);
width = 367;
},
{
layerId = "9563C917-11DF-412F-BB09-FC0C1CFFA48C";
shapes = (
{
closed = 1;
nodes = (
(119,-96,l),
(85,-56,o),
(54,44,o),
(54,149,cs),
(54,300,o),
(100,539,o),
(291,713,c),
(296,738,l),
(93,583,o),
(26,348,o),
(26,151,cs),
(26,32,o),
(60,-63,o),
(114,-119,c)
);
}
);
width = 221;
},
{
layerId = "A783126C-D342-49FA-8B69-0453AD03268C";
shapes = (
{
closed = 1;
nodes = (
(160,-89,l),
(98,-37,o),
(70,81,o),
(70,200,cs),
(70,393,o),
(156,632,o),
(335,719,c),
(341,744,l),
(127,656,o),
(42,403,o),
(42,199,cs),
(42,53,o),
(76,-58,o),
(154,-114,c)
);
}
);
width = 277;
},
{
layerId = "44BFC83C-08F8-422F-A73E-536514612562";
shapes = (
{
closed = 1;
nodes = (
(191,-83,l),
(143,-39,o),
(127,59,o),
(127,139,cs),
(127,269,o),
(177,595,o),
(360,716,c),
(369,758,l),
(151,682,o),
(40,399,o),
(40,163,cs),
(40,35,o),
(82,-77,o),
(180,-127,c)
);
}
);
width = 288;
},
{
layerId = "50C02CB6-129D-4BF7-ADB7-784B68302109";
shapes = (
{
closed = 1;
nodes = (
(235,-77,l),
(189,-34,o),
(173,52,o),
(173,128,cs),
(173,255,o),
(222,590,o),
(402,711,c),
(413,768,l),
(165,696,o),
(41,410,o),
(41,167,cs),
(41,33,o),
(94,-84,o),
(221,-136,c)
);
}
);
width = 333;
}
);
script = "";
subCategory = Parenthesis;
unicode = 40;
}
{
category = Punctuation;
glyphname = asterisk;
kernLeft = quoteright;
kernRight = P;
layers = (
{
layerId = UUID0;
shapes = (
{
closed = 1;
nodes = (
(337,533,l),
(469,410,l),
(519,478,l),
(364,561,l),
(540,574,l),
(522,658,l),
(351,598,l),
(411,747,l),
(326,765,l),
(318,604,l),
(188,731,l),
(137,661,l),
(291,577,l),
(116,563,l),
(134,479,l),
(304,540,l),
(246,391,l),
(331,373,l)
);
}
);
width = 500;
},
{
layerId = "0748FCBA-26BB-4096-A322-99C7EC440251";
shapes = (
{
closed = 1;
nodes = (
(380,524,l),
(505,391,l),
(570,478,l),
(426,550,l),
(586,556,l),
(563,663,l),
(395,592,l),
(464,742,l),
(354,765,l),
(352,599,l),
(229,736,l),
(164,646,l),
(308,575,l),
(147,567,l),
(171,461,l),
(338,534,l),
(272,381,l),
(381,358,l)
);
}
);
width = 618;
},
{
layerId = "EFE4222C-09E4-4728-8E05-7459D7542305";
shapes = (
{
closed = 1;
nodes = (
(392,517,l),
(512,377,l),
(588,478,l),
(452,542,l),
(600,543,l),
(573,667,l),
(408,588,l),
(483,738,l),
(355,765,l),
(357,595,l),
(239,740,l),
(164,635,l),
(301,574,l),
(150,570,l),
(178,448,l),
(343,530,l),
(271,374,l),
(398,347,l)
);
}
);
width = 628;
},
{
layerId = "081AFB27-5722-432A-9779-C9794386CEF1";
shapes = (
{
closed = 1;
nodes = (
(345,521,l),
(436,384,l),
(504,478,l),
(397,546,l),
(516,550,l),
(498,665,l),
(360,590,l),
(429,740,l),
(322,765,l),
(318,597,l),
(228,738,l),
(161,641,l),
(269,575,l),
(147,568,l),
(167,455,l),
(304,532,l),
(238,378,l),
(344,353,l)
);
}
);
width = 523;
},
{
layerId = "9563C917-11DF-412F-BB09-FC0C1CFFA48C";
shapes = (
{
closed = 1;
nodes = (
(232,583,l),
(324,486,l),
(346,511,l),
(238,596,l),
(372,630,l),
(361,662,l),
(238,610,l),
(281,753,l),
(246,760,l),
(226,613,l),
(134,711,l),
(112,685,l),
(220,600,l),
(86,566,l),
(97,534,l),
(220,586,l),
(179,443,l),
(214,436,l)
);
}
);
width = 318;
},
{
layerId = "A783126C-D342-49FA-8B69-0453AD03268C";
shapes = (
{
closed = 1;
nodes = (
(263,552,l),
(377,441,l),
(401,474,l),
(263,568,l),
(428,597,l),
(419,640,l),
(269,582,l),
(317,751,l),
(275,760,l),
(253,586,l),
(140,701,l),
(113,665,l),
(250,570,l),
(86,540,l),
(97,499,l),
(245,556,l),
(196,387,l),
(240,377,l)
);
}
);
width = 386;
},
{
layerId = "44BFC83C-08F8-422F-A73E-536514612562";
shapes = (
{
closed = 1;
nodes = (
(292,534,l),
(392,413,l),
(437,478,l),
(320,562,l),
(458,576,l),
(446,658,l),
(307,599,l),
(363,747,l),
(291,765,l),
(279,604,l),
(181,731,l),
(135,663,l),
(253,577,l),
(115,562,l),
(127,481,l),
(265,541,l),
(210,392,l),
(283,375,l)
);
}
);
width = 412;
},
{
layerId = "50C02CB6-129D-4BF7-ADB7-784B68302109";
shapes = (
{
closed = 1;
nodes = (
(322,527,l),
(417,396,l),
(475,478,l),
(363,553,l),
(491,561,l),
(475,662,l),
(337,594,l),
(400,743,l),
(308,765,l),
(301,600,l),
(208,735,l),
(150,651,l),
(262,576,l),
(133,565,l),
(150,466,l),
(287,536,l),
(226,384,l),
(317,363,l)
);
}
);
width = 475;
}
);
script = "";
subCategory = Other;
unicode = 42;
}
{
category = Symbol;
glyphname = plus;
layers = (
{
layerId = "EFE4222C-09E4-4728-8E05-7459D7542305";
shapes = (
{
closed = 1;
nodes = (
(324,135,l),
(324,318,l),
(509,318,l),
(509,397,l),
(324,397,l),
(324,580,l),
(244,580,l),
(244,397,l),
(60,397,l),
(60,318,l),
(244,318,l),
(244,135,l)
);
}
);
width = 569;
},
{
layerId = UUID0;
shapes = (
{
closed = 1;
nodes = (
(309,143,l),
(309,328,l),
(494,328,l),
(494,387,l),
(309,387,l),
(309,572,l),
(249,572,l),
(249,387,l),
(65,387,l),
(65,328,l),
(249,328,l),
(249,143,l)
);
}
);
width = 559;
},
{
layerId = "081AFB27-5722-432A-9779-C9794386CEF1";
shapes = (
{
closed = 1;
nodes = (
(287,143,l),
(287,321,l),
(427,321,l),
(427,394,l),
(287,394,l),
(287,572,l),
(210,572,l),
(210,394,l),
(70,394,l),
(70,321,l),
(210,321,l),
(210,143,l)
);
}
);
width = 425;
},
{
layerId = "9563C917-11DF-412F-BB09-FC0C1CFFA48C";
shapes = (
{
closed = 1;
nodes = (
(244,143,l),
(244,344,l),
(391,344,l),
(391,372,l),
(244,372,l),
(244,572,l),
(214,572,l),
(214,372,l),
(66,372,l),
(66,344,l),
(214,344,l),
(214,143,l)
);
}
);
width = 425;
},
{
layerId = "A783126C-D342-49FA-8B69-0453AD03268C";
shapes = (
{
closed = 1;
nodes = (
(293,143,l),
(293,343,l),
(494,343,l),
(494,371,l),
(293,371,l),
(293,572,l),
(265,572,l),
(265,371,l),
(65,371,l),
(65,343,l),
(265,343,l),
(265,143,l)
);
}
);
width = 559;
},
{
layerId = "44BFC83C-08F8-422F-A73E-536514612562";
shapes = (
{
closed = 1;
nodes = (
(256,143,l),
(256,329,l),
(397,329,l),
(397,386,l),
(256,386,l),
(256,572,l),
(198,572,l),
(198,386,l),
(58,386,l),
(58,329,l),
(198,329,l),
(198,143,l)
);
}
);
width = 425;
}
);
script = "";
subCategory = Math;
unicode = 43;
}
{
category = Punctuation;
glyphname = comma;
kernLeft = period;
kernRight = quotesinglbase;
layers = (
{
layerId = UUID0;
shapes = (
{
closed = 1;
nodes = (
(-28,-146,l),
(96,-121,o),
(153,-45,o),
(153,46,cs),
(153,98,o),
(117,128,o),
(75,128,cs),
(41,128,o),
(13,108,o),
(13,69,cs),
(13,16,o),
(78,16,o),
(78,-20,cs),
(78,-60,o),
(43,-89,o),
(-24,-104,c)
);
}
);
width = 250;
},
{
layerId = "EFE4222C-09E4-4728-8E05-7459D7542305";
shapes = (
{
closed = 1;
nodes = (
(-7,-155,l),
(155,-124,o),
(241,-36,o),
(241,74,cs),
(241,136,o),
(200,171,o),
(148,171,cs),
(103,171,o),
(63,141,o),
(63,95,cs),
(63,33,o),
(113,35,o),
(113,-11,cs),
(113,-50,o),
(78,-77,o),
(9,-94,c)
);
}
);
width = 344;
},
{
layerId = "081AFB27-5722-432A-9779-C9794386CEF1";
shapes = (
{
closed = 1;
nodes = (
(-10,-153,l),
(130,-123,o),
(207,-34,o),
(207,73,cs),
(207,130,o),
(175,162,o),
(133,162,cs),
(95,162,o),
(59,132,o),
(59,85,cs),
(59,31,o),
(95,30,o),
(95,-10,cs),
(95,-51,o),
(65,-79,o),
(6,-96,c)
);
}
);
width = 288;
},
{
layerId = "9563C917-11DF-412F-BB09-FC0C1CFFA48C";
shapes = (
{
closed = 1;
nodes = (
(-47,-138,l),
(41,-113,o),
(60,-52,o),
(60,15,cs),
(60,51,o),
(46,73,o),
(26,73,cs),
(6,73,o),
(-4,59,o),
(-4,42,cs),
(-4,11,o),
(31,12,o),
(31,-22,cs),
(31,-60,o),
(8,-98,o),
(-48,-117,c)
);
}
);
width = 146;
},
{
layerId = "A783126C-D342-49FA-8B69-0453AD03268C";
shapes = (
{
closed = 1;
nodes = (
(-47,-140,l),
(46,-116,o),
(66,-53,o),
(66,15,cs),
(66,51,o),
(52,73,o),
(32,73,cs),
(12,73,o),
(2,59,o),
(2,42,cs),
(2,11,o),
(37,12,o),
(37,-22,cs),
(37,-62,o),
(12,-102,o),
(-50,-120,c)
);
}
);
width = 181;
},
{
layerId = "44BFC83C-08F8-422F-A73E-536514612562";
shapes = (
{
closed = 1;
nodes = (
(-26,-146,l),
(83,-121,o),
(135,-46,o),
(135,42,cs),
(135,95,o),
(107,125,o),
(74,125,cs),
(44,125,o),
(20,104,o),
(20,65,cs),
(20,16,o),
(65,14,o),
(65,-19,cs),
(65,-60,o),
(37,-89,o),
(-20,-105,c)
);
}
);
width = 211;
}
);
script = "";
subCategory = Other;
unicode = 44;
}
{
category = Punctuation;
glyphname = hyphen;
kernLeft = hyphen;
kernRight = hyphen;
layers = (
{
layerId = UUID0;
shapes = (
{
closed = 1;
nodes = (
(274,235,l),
(290,310,l),
(30,310,l),
(14,235,l)
);
}
);
width = 310;
},
{
layerId = "EFE4222C-09E4-4728-8E05-7459D7542305";
shapes = (
{
closed = 1;
nodes = (
(267,209,l),
(295,336,l),
(35,336,l),
(7,209,l)
);
}
);
width = 310;
},
{
layerId = "081AFB27-5722-432A-9779-C9794386CEF1";
shapes = (
{
closed = 1;
nodes = (
(226,215,l),
(254,330,l),
(42,330,l),
(14,215,l)
);
}
);
width = 253;
},
{
layerId = "9563C917-11DF-412F-BB09-FC0C1CFFA48C";
shapes = (
{
closed = 1;
nodes = (
(221,255,l),
(227,281,l),
(23,281,l),
(17,255,l)
);
}
);
width = 244;
},
{
layerId = "A783126C-D342-49FA-8B69-0453AD03268C";
shapes = (
{
closed = 1;
nodes = (
(283,266,l),
(288,292,l),
(28,292,l),
(23,266,l)
);
}
);
width = 310;
},
{
layerId = "44BFC83C-08F8-422F-A73E-536514612562";
shapes = (
{
closed = 1;
nodes = (
(229,237,l),
(246,308,l),
(38,308,l),
(21,237,l)
);
}
);
width = 248;
}
);
script = "";
subCategory = Dash;
unicode = 45;
}
{
category = Punctuation;
glyphname = period;
kernLeft = period;
kernRight = quotesinglbase;
layers = (
{
layerId = UUID0;
shapes = (
{
closed = 1;
nodes = (
(119,-8,o),
(154,17,o),
(154,80,cs),
(154,110,o),
(131,129,o),
(98,129,cs),
(65,129,o),
(26,104,o),
(26,43,cs),
(26,12,o),
(49,-8,o),
(82,-8,cs)
);
}
);
width = 250;
},
{
layerId = "0748FCBA-26BB-4096-A322-99C7EC440251";
shapes = (
{
closed = 1;
nodes = (
(157,-8,o),
(202,15,o),
(202,82,cs),
(202,131,o),
(167,154,o),
(121,154,cs),
(68,154,o),
(34,118,o),
(34,64,cs),
(34,15,o),
(67,-8,o),
(115,-8,cs)
);
}
);
width = 304;
},
{
layerId = "EFE4222C-09E4-4728-8E05-7459D7542305";
shapes = (
{
closed = 1;
nodes = (
(184,-8,o),
(237,17,o),
(237,92,cs),
(237,146,o),
(197,172,o),
(142,172,cs),
(80,172,o),
(40,132,o),
(40,72,cs),
(40,17,o),
(79,-8,o),
(135,-8,cs)
);
}
);
width = 344;
},
{
layerId = "081AFB27-5722-432A-9779-C9794386CEF1";
shapes = (
{
closed = 1;
nodes = (
(156,-8,o),
(204,17,o),
(204,90,cs),
(204,139,o),
(172,163,o),
(126,163,cs),
(72,163,o),
(36,123,o),
(36,64,cs),
(36,15,o),
(68,-8,o),
(114,-8,cs)
);
}
);
width = 288;
},
{
layerId = "9563C917-11DF-412F-BB09-FC0C1CFFA48C";
shapes = (
{
closed = 1;
nodes = (
(47,-6,o),
(63,10,o),
(63,41,cs),
(63,63,o),
(52,72,o),
(38,72,cs),
(19,72,o),
(4,54,o),
(4,26,cs),
(4,4,o),
(14,-6,o),
(31,-6,c)
);
}
);
width = 146;
},
{
layerId = "A783126C-D342-49FA-8B69-0453AD03268C";
shapes = (
{
closed = 1;
nodes = (
(46,-5,o),
(63,9,o),
(63,46,cs),
(63,65,o),
(52,73,o),
(39,73,cs),
(20,73,o),
(4,55,o),
(4,24,cs),
(4,4,o),
(14,-5,o),
(30,-5,cs)
);
}
);
width = 181;
},
{
layerId = "44BFC83C-08F8-422F-A73E-536514612562";
shapes = (
{
closed = 1;
nodes = (
(105,-8,o),
(137,13,o),
(137,71,cs),
(137,108,o),
(115,127,o),
(85,127,cs),
(49,127,o),
(24,95,o),
(24,48,cs),
(24,11,o),
(45,-8,o),
(76,-8,cs)
);
}
);
width = 211;
},
{
layerId = "50C02CB6-129D-4BF7-ADB7-784B68302109";
shapes = (
{
closed = 1;
nodes = (
(134,-8,o),
(175,15,o),
(175,80,cs),
(175,126,o),
(147,147,o),
(108,147,cs),
(62,147,o),
(31,111,o),
(31,61,cs),
(31,18,o),
(58,-8,o),
(97,-8,cs)
);
}
);
width = 255;
}
);
script = "";
subCategory = Other;
unicode = 46;
}
{
category = Punctuation;
glyphname = slash;
layers = (
{
layerId = UUID0;
shapes = (
{
closed = 1;
nodes = (
(-30,-121,l),
(381,760,l),
(318,760,l),
(-93,-121,l)
);
}
);
width = 288;
},
{
layerId = "EFE4222C-09E4-4728-8E05-7459D7542305";
shapes = (
{
closed = 1;
nodes = (
(-22,-121,l),
(415,760,l),
(326,760,l),
(-111,-121,l)
);
}
);
width = 288;
},
{
layerId = "081AFB27-5722-432A-9779-C9794386CEF1";
shapes = (
{
closed = 1;
nodes = (
(-22,-121,l),
(371,760,l),
(296,760,l),
(-97,-121,l)
);
}
);
width = 235;
},
{
layerId = "9563C917-11DF-412F-BB09-FC0C1CFFA48C";
shapes = (
{
closed = 1;
nodes = (
(-47,-121,l),
(309,760,l),
(280,760,l),
(-76,-121,l)
);
}
);
width = 227;
},
{
layerId = "A783126C-D342-49FA-8B69-0453AD03268C";
shapes = (
{
closed = 1;
nodes = (
(-51,-121,l),
(357,760,l),
(327,760,l),
(-79,-121,l)
);
}
);
width = 288;
},
{
layerId = "44BFC83C-08F8-422F-A73E-536514612562";
shapes = (
{
closed = 1;
nodes = (
(-29,-121,l),
(342,760,l),
(287,760,l),
(-82,-121,l)
);
}
);
width = 231;
}
);
script = "";
subCategory = Other;
unicode = 47;
}
{
category = Number;
glyphname = zero;
layers = (
{
layerId = UUID0;
shapes = (
{
closed = 1;
nodes = (
(440,-11,o),
(530,294,o),
(530,496,cs),
(530,655,o),
(446,725,o),
(340,725,cs),
(134,725,o),
(40,438,o),
(40,231,cs),
(40,73,o),
(118,-11,o),
(233,-11,cs)
);
},
{
closed = 1;
nodes = (
(177,44,o),
(137,91,o),
(137,202,cs),
(137,377,o),
(191,671,o),
(330,671,cs),
(396,671,o),
(433,624,o),
(433,515,cs),
(433,339,o),
(381,44,o),
(241,44,cs)
);
}
);
width = 559;
},
{
layerId = "0748FCBA-26BB-4096-A322-99C7EC440251";
shapes = (
{
closed = 1;
nodes = (
(467,-11,o),
(564,294,o),
(564,496,cs),
(564,655,o),
(474,725,o),
(360,725,cs),
(138,725,o),
(37,438,o),
(37,231,cs),
(37,73,o),
(121,-11,o),
(245,-11,cs)
);
},
{
closed = 1;
nodes = (
(204,57,o),
(174,99,o),
(174,188,cs),
(174,358,o),
(242,658,o),
(355,658,cs),
(404,658,o),
(432,616,o),
(432,529,cs),
(432,361,o),
(368,57,o),
(251,57,cs)
);
}
);
width = 559;
},
{
layerId = "EFE4222C-09E4-4728-8E05-7459D7542305";
shapes = (
{
closed = 1;
nodes = (
(489,-11,o),
(591,294,o),
(591,496,cs),
(591,655,o),
(497,725,o),
(377,725,cs),
(143,725,o),
(37,438,o),
(37,231,cs),
(37,73,o),
(125,-11,o),
(256,-11,cs)
);
},
{
closed = 1;
nodes = (
(226,67,o),
(203,105,o),
(203,178,cs),
(203,344,o),
(281,648,o),
(375,648,cs),
(412,648,o),
(433,610,o),
(433,539,cs),
(433,377,o),
(360,67,o),
(260,67,cs)
);
}
);
width = 569;
},
{
layerId = "081AFB27-5722-432A-9779-C9794386CEF1";
shapes = (
{
closed = 1;
nodes = (
(429,-11,o),
(525,317,o),
(525,512,cs),
(525,659,o),
(453,725,o),
(357,725,cs),
(156,725,o),
(57,417,o),
(57,214,cs),
(57,68,o),
(125,-11,o),
(228,-11,cs)
);
},
{
closed = 1;
nodes = (
(211,62,o),
(196,96,o),
(196,163,cs),
(196,329,o),
(278,653,o),
(353,653,cs),
(379,653,o),
(393,619,o),
(393,554,cs),
(393,392,o),
(316,62,o),
(234,62,cs)
);
}
);
width = 505;
},
{
layerId = "9563C917-11DF-412F-BB09-FC0C1CFFA48C";
shapes = (
{
closed = 1;
nodes = (
(334,-11,o),
(414,319,o),
(414,507,cs),
(414,646,o),
(373,724,o),
(293,724,cs),
(132,724,o),
(41,431,o),
(41,210,cs),
(41,68,o),
(84,-11,o),
(161,-11,cs)
);
},
{
closed = 1;
nodes = (
(100,14,o),
(69,87,o),
(69,210,cs),
(69,411,o),
(153,700,o),
(288,700,cs),
(355,700,o),
(386,627,o),
(386,507,cs),
(386,337,o),
(313,14,o),
(162,14,cs)
);
}
);
width = 424;
},
{
layerId = "A783126C-D342-49FA-8B69-0453AD03268C";
shapes = (
{
closed = 1;
nodes = (
(424,-11,o),
(492,283,o),
(492,490,cs),
(492,662,o),
(421,723,o),
(330,723,cs),
(121,723,o),
(41,418,o),
(41,219,cs),
(41,66,o),
(101,-11,o),
(201,-11,cs)
);
},
{
closed = 1;
nodes = (
(120,14,o),
(69,81,o),
(69,221,cs),
(69,399,o),
(139,698,o),
(329,698,cs),
(406,698,o),
(464,644,o),
(464,485,cs),
(464,302,o),
(398,14,o),
(206,14,cs)
);
}
);
width = 511;
},
{
layerId = "44BFC83C-08F8-422F-A73E-536514612562";
shapes = (
{
closed = 1;
nodes = (
(379,-11,o),
(459,324,o),
(459,515,cs),
(459,660,o),
(395,724,o),
(312,724,cs),
(128,724,o),
(46,410,o),
(46,210,cs),
(46,67,o),
(104,-11,o),
(193,-11,cs)
);
},
{
closed = 1;
nodes = (
(157,43,o),
(132,91,o),
(132,189,cs),
(132,352,o),
(191,671,o),
(304,671,cs),
(350,671,o),
(374,623,o),
(374,528,cs),
(374,366,o),
(317,43,o),
(201,43,cs)
);
}
);
width = 461;
},
{
layerId = "50C02CB6-129D-4BF7-ADB7-784B68302109";
shapes = (
{
closed = 1;
nodes = (
(407,-11,o),
(496,320,o),
(496,513,cs),
(496,659,o),
(428,725,o),
(338,725,cs),
(144,725,o),
(52,414,o),
(52,212,cs),
(52,67,o),
(116,-11,o),
(213,-11,cs)
);
},
{
closed = 1;
nodes = (
(188,54,o),
(168,94,o),
(168,174,cs),
(168,339,o),
(240,661,o),
(332,661,cs),
(366,661,o),
(385,621,o),
(385,543,cs),
(385,381,o),
(317,54,o),
(220,54,cs)
);
}
);
width = 486;
}
);
script = "";
subCategory = "Decimal Digit";
unicode = 48;
}
{
category = Number;
glyphname = one;
layers = (
{
layerId = UUID0;
shapes = (
{
closed = 1;
nodes = (
(410,0,l),
(419,42,l),
(365,42,ls),
(323,42,o),
(293,48,o),
(293,82,cs),
(293,88,o),
(295,102,o),
(297,110,cs),
(426,718,l),
(362,718,l),
(281,666,ls),
(205,617,o),
(163,601,o),
(117,589,c),
(117,558,o),
(129,535,o),
(157,535,cs),
(200,535,o),
(241,574,o),
(308,639,c),
(312,639,l),
(299,587,o),
(286,534,o),
(275,482,cs),
(197,114,ls),
(184,51,o),
(144,42,o),
(99,42,cs),
(46,42,l),
(38,0,l)
);
}
);
width = 559;
},
{
layerId = "0748FCBA-26BB-4096-A322-99C7EC440251";
shapes = (
{
closed = 1;
nodes = (
(453,0,l),
(464,53,l),
(415,53,ls),
(372,53,o),
(340,57,o),
(340,86,cs),
(340,94,o),
(344,113,o),
(346,121,c),
(473,718,l),
(361,718,l),
(280,666,ls),
(204,617,o),
(156,601,o),
(110,589,c),
(110,542,o),
(130,515,o),
(158,515,cs),
(201,515,o),
(240,554,o),
(303,619,c),
(307,619,l),
(295,573,o),
(284,528,o),
(274,482,cs),
(197,118,ls),
(187,70,o),
(157,53,o),
(110,53,cs),
(51,53,l),
(40,0,l)
);
}
);
width = 559;
},
{
layerId = "EFE4222C-09E4-4728-8E05-7459D7542305";
shapes = (
{
closed = 1;
nodes = (
(489,0,l),
(502,61,l),
(456,61,ls),
(413,61,o),
(379,64,o),
(379,89,cs),
(379,98,o),
(385,121,o),
(387,129,cs),
(512,718,l),
(365,718,l),
(284,666,ls),
(208,617,o),
(155,601,o),
(109,589,c),
(109,530,o),
(135,500,o),
(163,500,cs),
(206,500,o),
(244,539,o),
(304,604,c),
(308,604,l),
(296,563,o),
(287,523,o),
(278,482,cs),
(202,121,ls),
(194,84,o),
(171,61,o),
(123,61,cs),
(59,61,l),
(46,0,l)
);
}
);
width = 569;
},
{
layerId = "081AFB27-5722-432A-9779-C9794386CEF1";
shapes = (
{
closed = 1;
nodes = (
(416,0,l),
(429,57,l),
(392,57,ls),
(358,57,o),
(330,60,o),
(330,86,cs),
(330,95,o),
(334,115,o),
(338,133,cs),
(463,718,l),
(336,718,l),
(268,666,ls),
(204,617,o),
(160,601,o),
(122,589,c),
(120,536,o),
(141,508,o),
(164,508,cs),
(199,508,o),
(235,544,o),
(287,612,c),
(290,612,l),
(274,568,o),
(265,525,o),
(257,482,cs),
(181,119,ls),
(172,77,o),
(154,57,o),
(115,57,cs),
(62,57,l),
(49,0,l)
);
}
);
width = 505;
},
{
layerId = "9563C917-11DF-412F-BB09-FC0C1CFFA48C";
shapes = (
{
closed = 1;
nodes = (
(292,0,l),
(297,20,l),
(232,20,ls),
(200,20,o),
(196,23,o),
(196,47,cs),
(196,55,o),
(199,78,o),
(204,101,cs),
(335,718,l),
(327,718,l),
(283,679,ls),
(226,627,o),
(178,598,o),
(142,589,c),
(142,581,o),
(144,568,o),
(165,568,cs),
(195,568,o),
(229,597,o),
(297,666,c),
(299,666,l),
(292,641,o),
(276,574,o),
(256,478,cs),
(176,101,ls),
(160,26,o),
(157,20,o),
(115,20,cs),
(50,20,l),
(45,0,l)
);
}
);
width = 424;
},
{
layerId = "A783126C-D342-49FA-8B69-0453AD03268C";
shapes = (
{
closed = 1;
nodes = (
(351,0,l),
(356,20,l),
(266,20,ls),
(228,20,o),
(221,24,o),
(221,41,cs),
(221,53,o),
(223,65,o),
(226,80,cs),
(361,718,l),
(353,718,l),
(289,676,ls),
(213,626,o),
(179,610,o),
(133,600,c),
(133,589,o),
(136,581,o),
(158,581,cs),
(190,581,o),
(242,614,o),
(327,679,c),
(328,679,l),
(321,651,o),
(309,601,o),
(284,482,cs),
(198,80,ls),
(186,23,o),
(179,20,o),
(120,20,cs),
(45,20,l),
(40,0,l)
);
}
);
width = 511;
},
{
layerId = "44BFC83C-08F8-422F-A73E-536514612562";
shapes = (
{
closed = 1;
nodes = (
(340,0,l),
(349,41,l),
(307,41,ls),
(275,41,o),
(251,47,o),
(251,79,cs),
(251,86,o),
(253,99,o),
(258,122,cs),
(384,718,l),
(324,718,l),
(258,666,ls),
(195,617,o),
(159,601,o),
(122,589,c),
(121,560,o),
(132,538,o),
(154,538,cs),
(188,538,o),
(223,576,o),
(280,642,c),
(282,642,l),
(270,608,o),
(259,554,o),
(245,482,cs),
(167,113,ls),
(154,49,o),
(124,41,o),
(88,41,cs),
(44,41,l),
(36,0,l)
);
}
);
width = 461;
},
{
layerId = "50C02CB6-129D-4BF7-ADB7-784B68302109";
shapes = (
{
closed = 1;
nodes = (
(383,0,l),
(394,50,l),
(355,50,ls),
(322,50,o),
(296,54,o),
(296,83,cs),
(296,91,o),
(299,108,o),
(303,128,cs),
(429,718,l),
(331,718,l),
(264,666,ls),
(200,617,o),
(160,601,o),
(122,589,c),
(120,546,o),
(137,521,o),
(160,521,cs),
(194,521,o),
(230,558,o),
(284,625,c),
(287,625,l),
(272,585,o),
(262,537,o),
(252,482,cs),
(175,116,ls),
(164,65,o),
(141,50,o),
(103,50,cs),
(54,50,l),
(43,0,l)
);
}
);
width = 486;
}
);
script = "";
subCategory = "Decimal Digit";
unicode = 49;
}
{
category = Number;
glyphname = two;
layers = (
{
layerId = UUID0;
shapes = (
{
closed = 1;
nodes = (
(416,0,l),
(456,171,l),
(414,171,l),
(407,155,ls),
(390,117,o),
(369,80,o),
(308,80,cs),
(76,80,l),
(301,282,ls),
(436,404,o),
(509,485,o),
(509,578,cs),
(509,668,o),
(445,724,o),
(320,724,cs),
(181,724,o),
(102,656,o),
(102,587,cs),
(102,542,o),
(132,523,o),
(173,523,c),
(186,603,o),
(229,674,o),
(315,674,cs),
(374,674,o),
(407,633,o),
(407,573,cs),
(407,487,o),
(374,414,o),
(239,293,cs),
(4,81,l),
(-17,0,l)
);
}
);
width = 559;
},
{
layerId = "EFE4222C-09E4-4728-8E05-7459D7542305";
shapes = (
{
closed = 1;
nodes = (
(490,0,l),
(546,239,l),
(474,239,l),
(467,219,ls),
(448,176,o),
(426,132,o),
(359,132,cs),
(126,132,l),
(291,250,ls),
(529,420,o),
(599,484,o),
(599,590,cs),
(599,673,o),
(515,724,o),
(370,724,cs),
(210,724,o),
(124,659,o),
(124,573,cs),
(124,504,o),
(187,471,o),
(271,471,c),
(272,577,o),
(305,653,o),
(356,653,cs),
(391,653,o),
(410,616,o),
(410,564,cs),
(410,482,o),
(377,416,o),
(240,305,cs),
(8,119,l),
(-13,0,l)
);
}
);
width = 569;
},
{
layerId = "081AFB27-5722-432A-9779-C9794386CEF1";
shapes = (
{
closed = 1;
nodes = (
(406,0,l),
(462,224,l),
(401,224,l),
(394,205,ls),
(379,162,o),
(358,121,o),
(302,121,cs),
(112,121,l),
(250,248,l),
(467,418,o),
(520,488,o),
(520,592,cs),
(520,674,o),
(452,724,o),
(335,724,cs),
(199,724,o),
(126,656,o),
(126,573,cs),
(126,512,o),
(178,482,o),
(249,482,c),
(252,583,o),
(281,658,o),
(320,658,cs),
(345,658,o),
(358,624,o),
(358,578,cs),
(358,491,o),
(333,424,o),
(208,302,cs),
(12,111,l),
(-10,0,l)
);
}
);
width = 505;
},
{
layerId = "9563C917-11DF-412F-BB09-FC0C1CFFA48C";
shapes = (
{
closed = 1;
nodes = (
(310,0,l),
(334,103,l),
(314,103,l),
(311,91,ls),
(295,26,o),
(293,25,o),
(235,25,cs),
(31,25,l),
(242,261,ls),
(347,379,o),
(395,474,o),
(395,580,cs),
(395,665,o),
(350,724,o),
(261,724,cs),
(168,724,o),
(114,655,o),
(114,595,cs),
(114,571,o),
(127,564,o),
(139,564,c),
(139,651,o),
(190,699,o),
(259,699,cs),
(330,699,o),
(367,650,o),
(367,578,cs),
(367,494,o),
(340,409,o),
(216,270,cs),
(6,33,l),
(-3,0,l)
);
}
);
width = 424;
},
{
layerId = "A783126C-D342-49FA-8B69-0453AD03268C";
shapes = (
{
closed = 1;
nodes = (
(381,0,l),
(409,130,l),
(389,130,l),
(376,82,ls),
(363,31,o),
(356,25,o),
(300,25,cs),
(33,25,l),
(272,250,ls),
(409,379,o),
(462,461,o),
(462,570,cs),
(462,664,o),
(398,724,o),
(296,724,cs),
(178,724,o),
(117,643,o),
(117,586,cs),
(117,570,o),
(125,562,o),
(142,562,c),
(142,635,o),
(194,699,o),
(296,699,cs),
(380,699,o),
(434,650,o),
(434,570,cs),
(434,462,o),
(375,383,o),
(254,268,cs),
(8,35,l),
(-1,0,l)
);
}
);
width = 511;
},
{
layerId = "44BFC83C-08F8-422F-A73E-536514612562";
shapes = (
{
closed = 1;
nodes = (
(348,0,l),
(390,166,l),
(352,166,l),
(346,151,ls),
(330,113,o),
(312,76,o),
(263,76,cs),
(78,76,l),
(251,263,ls),
(395,402,o),
(450,481,o),
(450,585,cs),
(450,670,o),
(399,724,o),
(300,724,cs),
(183,724,o),
(116,653,o),
(116,585,cs),
(116,544,o),
(144,527,o),
(183,527,c),
(194,605,o),
(230,676,o),
(293,676,cs),
(334,676,o),
(357,638,o),
(357,582,cs),
(357,497,o),
(333,425,o),
(210,293,cs),
(12,78,l),
(-6,0,l)
);
}
);
width = 461;
}
);
script = "";
subCategory = "Decimal Digit";
unicode = 50;
}
{
category = Number;
glyphname = three;
layers = (
{
layerId = UUID0;
shapes = (
{
closed = 1;
nodes = (
(315,-10,o),
(466,48,o),
(466,225,cs),
(466,311,o),
(408,366,o),
(316,376,c),
(450,400,o),
(517,488,o),
(517,581,cs),
(517,672,o),
(443,724,o),
(333,724,cs),
(211,724,o),
(113,671,o),
(113,589,cs),
(113,540,o),
(145,525,o),
(187,525,c),
(204,604,o),
(238,674,o),
(329,674,cs),
(388,674,o),
(414,636,o),
(414,583,cs),
(414,470,o),
(331,395,o),
(219,395,cs),
(187,395,l),
(177,344,l),
(220,344,ls),
(309,344,o),
(361,296,o),
(361,214,cs),
(361,102,o),
(287,45,o),
(198,45,cs),
(108,45,o),
(73,108,o),
(73,169,c),
(31,169,o),
(-3,142,o),
(-3,95,cs),
(-3,40,o),
(48,-10,o),
(191,-10,cs)
);
}
);
width = 559;
},
{
layerId = "EFE4222C-09E4-4728-8E05-7459D7542305";
shapes = (
{
closed = 1;
nodes = (
(369,-10,o),
(542,48,o),
(542,225,cs),
(542,311,o),
(484,359,o),
(392,369,c),
(526,393,o),
(593,488,o),
(593,581,cs),
(593,672,o),
(505,724,o),
(373,724,cs),
(226,724,o),
(109,652,o),
(109,570,cs),
(109,521,o),
(171,506,o),
(251,506,c),
(263,585,o),
(289,655,o),
(348,655,cs),
(394,655,o),
(408,620,o),
(408,573,cs),
(408,472,o),
(325,404,o),
(207,404,cs),
(175,404,l),
(165,334,l),
(208,334,ls),
(303,334,o),
(355,293,o),
(355,221,cs),
(355,123,o),
(294,73,o),
(243,73,cs),
(174,73,o),
(137,125,o),
(137,216,c),
(48,216,o),
(2,178,o),
(2,123,cs),
(2,66,o),
(60,-10,o),
(226,-10,cs)
);
}
);
width = 569;
},
{
layerId = "081AFB27-5722-432A-9779-C9794386CEF1";
shapes = (
{
closed = 1;
nodes = (
(316,-10,o),
(465,50,o),
(465,233,cs),
(465,314,o),
(420,361,o),
(348,371,c),
(462,395,o),
(521,493,o),
(521,586,cs),
(521,674,o),
(450,724,o),
(343,724,cs),
(219,724,o),
(119,654,o),
(119,572,cs),
(119,525,o),
(170,510,o),
(237,510,c),
(250,589,o),
(274,659,o),
(319,659,cs),
(352,659,o),
(363,629,o),
(363,587,cs),
(363,475,o),
(291,402,o),
(191,402,cs),
(165,402,l),
(154,336,l),
(191,336,ls),
(265,336,o),
(305,299,o),
(305,227,cs),
(305,122,o),
(252,67,o),
(212,67,cs),
(157,67,o),
(129,121,o),
(133,206,c),
(55,206,o),
(14,171,o),
(14,113,cs),
(14,57,o),
(60,-10,o),
(195,-10,cs)
);
}
);
width = 505;
},
{
layerId = "9563C917-11DF-412F-BB09-FC0C1CFFA48C";
shapes = (
{
closed = 1;
nodes = (
(239,-10,o),
(335,65,o),
(335,227,cs),
(335,305,o),
(287,361,o),
(242,375,c),
(346,401,o),
(391,487,o),
(391,584,cs),
(391,669,o),
(339,724,o),
(267,724,cs),
(182,724,o),
(116,666,o),
(116,573,cs),
(116,551,o),
(128,540,o),
(140,540,c),
(140,628,o),
(174,699,o),
(265,699,cs),
(321,699,o),
(363,656,o),
(363,584,cs),
(363,459,o),
(287,389,o),
(195,389,cs),
(169,389,l),
(161,364,l),
(192,364,ls),
(260,364,o),
(307,300,o),
(307,227,cs),
(307,87,o),
(225,15,o),
(131,15,cs),
(48,15,o),
(28,65,o),
(28,132,c),
(18,132,o),
(2,124,o),
(2,102,cs),
(2,50,o),
(33,-10,o),
(129,-10,cs)
);
}
);
width = 424;
},
{
layerId = "A783126C-D342-49FA-8B69-0453AD03268C";
shapes = (
{
closed = 1;
nodes = (
(328,-10,o),
(411,70,o),
(411,225,cs),
(411,313,o),
(346,369,o),
(280,375,c),
(402,388,o),
(462,469,o),
(462,571,cs),
(462,662,o),
(394,724,o),
(300,724,cs),
(187,724,o),
(119,647,o),
(119,573,cs),
(119,550,o),
(132,539,o),
(145,539,c),
(145,621,o),
(183,699,o),
(299,699,cs),
(384,699,o),
(434,643,o),
(434,570,cs),
(434,452,o),
(342,389,o),
(229,389,cs),
(197,389,l),
(189,364,l),
(230,364,ls),
(326,364,o),
(383,303,o),
(383,224,cs),
(383,82,o),
(306,15,o),
(189,15,cs),
(82,15,o),
(34,60,o),
(34,135,c),
(17,135,o),
(9,122,o),
(9,108,cs),
(9,48,o),
(62,-10,o),
(187,-10,cs)
);
}
);
width = 511;
},
{
layerId = "44BFC83C-08F8-422F-A73E-536514612562";
shapes = (
{
closed = 1;
nodes = (
(264,-10,o),
(395,51,o),
(395,233,cs),
(395,313,o),
(351,365,o),
(281,374,c),
(393,399,o),
(451,492,o),
(451,587,cs),
(451,674,o),
(390,724,o),
(302,724,cs),
(199,724,o),
(118,661,o),
(118,579,cs),
(118,539,o),
(146,526,o),
(183,526,c),
(200,606,o),
(224,676,o),
(294,676,cs),
(337,676,o),
(359,639,o),
(359,586,cs),
(359,471,o),
(287,395,o),
(193,395,cs),
(167,395,l),
(158,345,l),
(192,345,ls),
(262,345,o),
(301,298,o),
(301,227,cs),
(301,103,o),
(237,43,o),
(168,43,cs),
(98,43,o),
(73,107,o),
(76,166,c),
(35,166,o),
(5,142,o),
(5,95,cs),
(5,42,o),
(45,-10,o),
(159,-10,cs)
);
}
);
width = 461;
}
);
script = "";
subCategory = "Decimal Digit";
unicode = 51;
}
{
category = Number;
glyphname = four;
layers = (
{
layerId = UUID0;
shapes = (
{
closed = 1;
nodes = (
(455,0,l),
(464,42,l),
(441,42,ls),
(399,42,o),
(369,48,o),
(369,82,cs),
(369,88,o),
(371,102,o),
(373,110,cs),
(501,714,l),
(405,714,l),
(-5,237,l),
(-14,196,l),
(514,196,l),
(526,252,l),
(34,252,l),
(49,217,l),
(306,518,ls),
(327,542,o),
(372,599,o),
(394,633,c),
(375,571,o),
(357,497,o),
(345,439,c),
(278,114,ls),
(265,51,o),
(225,42,o),
(180,42,cs),
(136,42,l),
(128,0,l)
);
}
);
width = 559;
},
{
layerId = "EFE4222C-09E4-4728-8E05-7459D7542305";
shapes = (
{
closed = 1;
nodes = (
(497,0,l),
(510,61,l),
(495,61,ls),
(457,61,o),
(434,67,o),
(434,101,cs),
(434,107,o),
(436,126,o),
(438,134,cs),
(562,714,l),
(383,714,l),
(27,256,l),
(9,179,l),
(537,179,l),
(552,252,l),
(67,252,l),
(84,231,l),
(240,433,ls),
(275,476,o),
(329,556,o),
(363,609,c),
(344,547,o),
(326,467,o),
(316,418,cs),
(254,133,ls),
(239,61,o),
(192,61,o),
(158,61,cs),
(140,61,l),
(128,0,l)
);
}
);
width = 569;
},
{
layerId = "081AFB27-5722-432A-9779-C9794386CEF1";
shapes = (
{
closed = 1;
nodes = (
(427,0,l),
(440,57,l),
(429,57,ls),
(399,57,o),
(382,62,o),
(382,93,cs),
(382,101,o),
(384,120,o),
(386,129,cs),
(510,714,l),
(356,714,l),
(53,252,l),
(35,183,l),
(465,183,l),
(480,252,l),
(85,252,l),
(99,228,l),
(231,430,ls),
(262,477,o),
(308,552,o),
(336,614,c),
(318,552,o),
(301,474,o),
(290,423,cs),
(228,129,ls),
(214,59,o),
(174,57,o),
(147,57,cs),
(135,57,l),
(123,0,l)
);
}
);
width = 505;
},
{
layerId = "9563C917-11DF-412F-BB09-FC0C1CFFA48C";
shapes = (
{
closed = 1;
nodes = (
(328,0,l),
(333,20,l),
(287,20,ls),
(255,20,o),
(249,27,o),
(249,46,cs),
(249,60,o),
(252,74,o),
(255,90,cs),
(387,714,l),
(365,714,l),
(5,230,l),
(1,214,l),
(397,214,l),
(406,239,l),
(29,239,l),
(35,232,l),
(309,599,ls),
(323,617,o),
(344,648,o),
(353,665,c),
(344,634,o),
(332,586,o),
(318,520,cs),
(227,90,ls),
(214,27,o),
(210,20,o),
(162,20,cs),
(100,20,l),
(95,0,l)
);
}
);
width = 424;
},
{
layerId = "A783126C-D342-49FA-8B69-0453AD03268C";
shapes = (
{
closed = 1;
nodes = (
(418,0,l),
(423,20,l),
(362,20,ls),
(318,20,o),
(312,23,o),
(312,50,cs),
(312,56,o),
(314,70,o),
(317,84,cs),
(450,714,l),
(412,714,l),
(19,231,l),
(15,214,l),
(473,214,l),
(478,239,l),
(61,239,l),
(61,243,l),
(331,579,ls),
(365,622,o),
(407,672,o),
(421,692,c),
(404,630,o),
(393,575,o),
(378,506,cs),
(289,84,ls),
(277,26,o),
(272,20,o),
(219,20,cs),
(131,20,l),
(126,0,l)
);
}
);
width = 511;
},
{
layerId = "44BFC83C-08F8-422F-A73E-536514612562";
shapes = (
{
closed = 1;
nodes = (
(374,0,l),
(384,41,l),
(366,41,ls),
(335,41,o),
(312,47,o),
(312,78,cs),
(312,85,o),
(314,100,o),
(316,108,cs),
(444,714,l),
(355,714,l),
(18,236,l),
(9,200,l),
(428,200,l),
(440,250,l),
(54,250,l),
(64,230,l),
(272,517,ls),
(290,543,o),
(326,598,o),
(344,635,c),
(326,573,o),
(309,500,o),
(297,441,cs),
(229,113,ls),
(216,50,o),
(183,41,o),
(148,41,cs),
(116,41,l),
(108,0,l)
);
}
);
width = 461;
}
);
script = "";
subCategory = "Decimal Digit";
unicode = 52;
}
{
category = Number;
glyphname = five;
layers = (
{
layerId = UUID0;
shapes = (
{
closed = 1;
nodes = (
(360,-10,o),
(467,99,o),
(467,243,cs),
(467,362,o),
(385,427,o),
(257,427,cs),
(212,427,o),
(183,418,o),
(161,411,c),
(227,634,l),
(421,634,ls),
(457,634,o),
(467,624,o),
(467,610,cs),
(467,602,o),
(465,580,o),
(464,563,c),
(506,563,l),
(533,714,l),
(199,714,l),
(92,357,l),
(126,350,l),
(154,361,o),
(184,372,o),
(235,372,cs),
(308,372,o),
(363,327,o),
(363,236,cs),
(363,109,o),
(294,45,o),
(192,45,cs),
(106,45,o),
(84,101,o),
(83,152,c),
(31,152,o),
(8,127,o),
(8,90,cs),
(8,35,o),
(54,-10,o),
(183,-10,cs)
);
}
);
width = 559;
},
{
layerId = "EFE4222C-09E4-4728-8E05-7459D7542305";
shapes = (
{
closed = 1;
nodes = (
(420,-10,o),
(535,102,o),
(535,250,cs),
(535,372,o),
(440,439,o),
(295,439,cs),
(243,439,o),
(211,430,o),
(185,423,c),
(233,584,l),
(445,584,ls),
(485,584,o),
(496,574,o),
(496,558,cs),
(496,550,o),
(494,526,o),
(493,509,c),
(568,509,l),
(599,714,l),
(188,714,l),
(90,374,l),
(138,343,l),
(162,354,o),
(191,365,o),
(237,365,cs),
(303,365,o),
(352,325,o),
(352,243,cs),
(352,128,o),
(304,71,o),
(228,71,cs),
(139,71,o),
(120,151,o),
(119,213,c),
(46,213,o),
(13,169,o),
(13,120,cs),
(13,49,o),
(72,-10,o),
(218,-10,cs)
);
}
);
width = 569;
},
{
layerId = "081AFB27-5722-432A-9779-C9794386CEF1";
shapes = (
{
closed = 1;
nodes = (
(368,-10,o),
(467,107,o),
(467,258,cs),
(467,373,o),
(393,436,o),
(276,436,cs),
(234,436,o),
(207,427,o),
(185,420,c),
(229,595,l),
(404,595,ls),
(435,595,o),
(445,586,o),
(445,571,cs),
(445,564,o),
(442,539,o),
(440,521,c),
(504,521,l),
(538,714,l),
(196,714,l),
(103,370,l),
(143,345,l),
(162,356,o),
(187,367,o),
(223,367,cs),
(275,367,o),
(311,328,o),
(311,250,cs),
(311,131,o),
(271,65,o),
(207,65,cs),
(134,65,o),
(122,140,o),
(123,200,c),
(60,200,o),
(31,159,o),
(31,109,cs),
(31,44,o),
(79,-10,o),
(196,-10,cs)
);
}
);
width = 505;
},
{
layerId = "9563C917-11DF-412F-BB09-FC0C1CFFA48C";
shapes = (
{
closed = 1;
nodes = (
(260,-10,o),
(343,104,o),
(343,249,cs),
(343,358,o),
(292,418,o),
(205,418,cs),
(175,418,o),
(146,409,o),
(132,402,c),
(214,689,l),
(349,689,ls),
(375,689,o),
(381,680,o),
(381,668,cs),
(381,662,o),
(378,641,o),
(373,606,c),
(393,606,l),
(418,714,l),
(196,714,l),
(98,374,l),
(114,371,l),
(140,382,o),
(159,393,o),
(203,393,cs),
(268,393,o),
(315,351,o),
(315,249,cs),
(315,107,o),
(233,15,o),
(139,15,cs),
(67,15,o),
(42,60,o),
(43,133,c),
(22,133,o),
(16,119,o),
(16,100,cs),
(16,51,o),
(43,-10,o),
(133,-10,cs)
);
}
);
width = 424;
},
{
layerId = "A783126C-D342-49FA-8B69-0453AD03268C";
shapes = (
{
closed = 1;
nodes = (
(345,-10,o),
(428,97,o),
(428,237,cs),
(428,354,o),
(352,419,o),
(247,419,cs),
(208,419,o),
(176,410,o),
(156,403,c),
(244,689,l),
(415,689,ls),
(454,689,o),
(457,686,o),
(457,667,cs),
(457,659,o),
(455,639,o),
(451,604,c),
(471,604,l),
(496,714,l),
(225,714,l),
(123,383,l),
(133,372,l),
(165,383,o),
(190,394,o),
(245,394,cs),
(344,394,o),
(400,328,o),
(400,237,cs),
(400,95,o),
(311,15,o),
(197,15,cs),
(103,15,o),
(55,75,o),
(54,148,c),
(37,148,o),
(29,138,o),
(29,121,cs),
(29,69,o),
(80,-10,o),
(198,-10,cs)
);
}
);
width = 511;
},
{
layerId = "44BFC83C-08F8-422F-A73E-536514612562";
shapes = (
{
closed = 1;
nodes = (
(307,-10,o),
(397,106,o),
(397,253,cs),
(397,365,o),
(334,426,o),
(233,426,cs),
(197,426,o),
(173,418,o),
(156,411,c),
(216,637,l),
(372,637,ls),
(400,637,o),
(408,628,o),
(408,615,cs),
(408,609,o),
(405,586,o),
(403,567,c),
(441,567,l),
(470,714,l),
(193,714,l),
(95,364,l),
(122,351,l),
(144,362,o),
(169,373,o),
(209,373,cs),
(264,373,o),
(304,330,o),
(304,245,cs),
(304,113,o),
(248,43,o),
(168,43,cs),
(96,43,o),
(81,113,o),
(82,163,c),
(36,163,o),
(16,135,o),
(16,95,cs),
(16,43,o),
(55,-10,o),
(159,-10,cs)
);
}
);
width = 461;
}
);
script = "";
subCategory = "Decimal Digit";
unicode = 53;
}
{
category = Number;
glyphname = six;
layers = (
{
layerId = UUID0;
shapes = (
{
closed = 1;
nodes = (
(413,-10,o),
(492,120,o),
(492,259,cs),
(492,354,o),
(439,434,o),
(323,434,cs),
(259,434,o),
(206,403,o),
(176,382,c),
(224,575,o),
(300,676,o),
(400,676,cs),
(461,676,o),
(468,618,o),
(468,559,c),
(523,559,o),
(555,587,o),
(555,634,cs),
(555,682,o),
(503,724,o),
(402,724,cs),
(190,724,o),
(60,481,o),
(60,232,cs),
(60,70,o),
(144,-10,o),
(248,-10,cs)
);
},
{
closed = 1;
nodes = (
(191,45,o),
(151,91,o),
(151,195,cs),
(151,233,o),
(156,274,o),
(165,325,c),
(198,353,o),
(251,383,o),
(303,383,cs),
(362,383,o),
(393,337,o),
(393,253,cs),
(393,135,o),
(337,45,o),
(254,45,cs)
);
}
);
width = 559;
},
{
layerId = "EFE4222C-09E4-4728-8E05-7459D7542305";
shapes = (
{
closed = 1;
nodes = (
(463,-10,o),
(556,122,o),
(556,262,cs),
(556,359,o),
(503,441,o),
(387,441,cs),
(316,441,o),
(272,417,o),
(242,392,c),
(278,573,o),
(335,657,o),
(410,657,cs),
(457,657,o),
(463,588,o),
(463,519,c),
(559,519,o),
(616,554,o),
(616,611,cs),
(616,672,o),
(555,724,o),
(440,724,cs),
(195,724,o),
(46,481,o),
(46,232,cs),
(46,70,o),
(146,-10,o),
(269,-10,cs)
);
},
{
closed = 1;
nodes = (
(245,62,o),
(217,105,o),
(217,204,cs),
(217,238,o),
(220,277,o),
(228,325,c),
(250,348,o),
(286,373,o),
(322,373,cs),
(364,373,o),
(384,330,o),
(384,253,cs),
(384,145,o),
(346,62,o),
(289,62,cs)
);
}
);
width = 569;
},
{
layerId = "081AFB27-5722-432A-9779-C9794386CEF1";
shapes = (
{
closed = 1;
nodes = (
(407,-10,o),
(489,129,o),
(489,272,cs),
(489,363,o),
(448,439,o),
(358,439,cs),
(299,439,o),
(263,414,o),
(238,390,c),
(273,573,o),
(322,661,o),
(381,661,cs),
(418,661,o),
(420,595,o),
(417,528,c),
(501,528,o),
(552,563,o),
(552,620,cs),
(552,676,o),
(503,724,o),
(410,724,cs),
(199,724,o),
(64,465,o),
(64,217,cs),
(64,65,o),
(142,-10,o),
(241,-10,cs)
);
},
{
closed = 1;
nodes = (
(229,58,o),
(209,96,o),
(209,180,cs),
(209,234,o),
(215,274,o),
(224,325,c),
(241,349,o),
(270,375,o),
(298,375,cs),
(328,375,o),
(343,338,o),
(343,272,cs),
(343,155,o),
(308,58,o),
(261,58,cs)
);
}
);
width = 505;
},
{
layerId = "9563C917-11DF-412F-BB09-FC0C1CFFA48C";
shapes = (
{
closed = 1;
nodes = (
(295,-10,o),
(364,119,o),
(364,268,cs),
(364,356,o),
(326,428,o),
(237,428,cs),
(177,428,o),
(132,394,o),
(109,372,c),
(149,560,o),
(241,699,o),
(334,699,cs),
(390,699,o),
(407,652,o),
(407,591,c),
(426,591,o),
(433,603,o),
(433,621,cs),
(433,667,o),
(403,724,o),
(335,724,cs),
(188,724,o),
(62,460,o),
(62,199,cs),
(62,39,o),
(116,-10,o),
(182,-10,cs)
);
},
{
closed = 1;
nodes = (
(128,15,o),
(90,79,o),
(90,195,cs),
(90,231,o),
(92,277,o),
(102,335,c),
(135,371,o),
(183,403,o),
(237,403,cs),
(302,403,o),
(336,345,o),
(336,267,cs),
(336,131,o),
(271,15,o),
(183,15,cs)
);
}
);
width = 424;
},
{
layerId = "A783126C-D342-49FA-8B69-0453AD03268C";
shapes = (
{
closed = 1;
nodes = (
(378,-10,o),
(447,118,o),
(447,257,cs),
(447,350,o),
(390,428,o),
(282,428,cs),
(214,428,o),
(154,403,o),
(111,364,c),
(141,555,o),
(258,699,o),
(379,699,cs),
(455,699,o),
(480,653,o),
(480,592,c),
(500,592,o),
(507,608,o),
(507,620,cs),
(507,670,o),
(464,724,o),
(385,724,cs),
(215,724,o),
(70,521,o),
(70,224,cs),
(70,68,o),
(136,-10,o),
(239,-10,cs)
);
},
{
closed = 1;
nodes = (
(152,15,o),
(98,87,o),
(98,224,cs),
(98,254,o),
(99,289,o),
(107,332,c),
(162,381,o),
(222,403,o),
(282,403,cs),
(362,403,o),
(419,345,o),
(419,255,cs),
(419,133,o),
(354,15,o),
(240,15,cs)
);
}
);
width = 511;
},
{
layerId = "44BFC83C-08F8-422F-A73E-536514612562";
shapes = (
{
closed = 1;
nodes = (
(349,-10,o),
(419,130,o),
(419,270,cs),
(419,359,o),
(379,433,o),
(294,433,cs),
(238,433,o),
(196,402,o),
(171,381,c),
(216,575,o),
(279,677,o),
(356,677,cs),
(403,677,o),
(407,621,o),
(404,562,c),
(454,562,o),
(485,591,o),
(485,635,cs),
(485,685,o),
(445,724,o),
(367,724,cs),
(182,724,o),
(60,458,o),
(60,208,cs),
(60,51,o),
(125,-10,o),
(207,-10,cs)
);
},
{
closed = 1;
nodes = (
(171,41,o),
(145,92,o),
(145,188,cs),
(145,233,o),
(149,270,o),
(160,325,c),
(185,353,o),
(227,384,o),
(267,384,cs),
(308,384,o),
(331,343,o),
(331,269,cs),
(331,142,o),
(282,41,o),
(215,41,cs)
);
}
);
width = 461;
}
);
script = "";
subCategory = "Decimal Digit";
unicode = 54;
}
{
category = Number;
glyphname = seven;
layers = (
{
guides = (
{
angle = 340.3847;
pos = (327,271);
},
{
angle = 270;
pos = (264,679);
}
);
layerId = UUID0;
shapes = (
{
closed = 1;
nodes = (
(183,0,l),
(574,685,l),
(580,714,l),
(133,714,l),
(90,533,l),
(132,533,l),
(146,583,ls),
(155,616,o),
(179,634,o),
(215,634,cs),
(459,634,l),
(89,0,l)
);
}
);
width = 559;
},
{
guides = (
{
angle = 340.3847;
pos = (327,271);
},
{
angle = 270;
pos = (264,679);
}
);
layerId = "EFE4222C-09E4-4728-8E05-7459D7542305";
shapes = (
{
closed = 1;
nodes = (
(202,0,l),
(623,633,l),
(637,714,l),
(145,714,l),
(96,483,l),
(171,483,l),
(185,533,ls),
(194,566,o),
(218,584,o),
(254,584,cs),
(446,584,l),
(43,0,l)
);
}
);
width = 569;
},
{
guides = (
{
angle = 340.3847;
pos = (327,271);
},
{
angle = 270;
pos = (264,679);
}
);
layerId = "081AFB27-5722-432A-9779-C9794386CEF1";
shapes = (
{
closed = 1;
nodes = (
(187,0,l),
(558,644,l),
(573,714,l),
(168,714,l),
(118,494,l),
(182,494,l),
(196,544,ls),
(205,577,o),
(225,595,o),
(254,595,cs),
(400,595,l),
(46,0,l)
);
}
);
width = 505;
},
{
guides = (
{
angle = 340.3847;
pos = (327,271);
},
{
angle = 270;
pos = (264,679);
}
);
layerId = "9563C917-11DF-412F-BB09-FC0C1CFFA48C";
shapes = (
{
closed = 1;
nodes = (
(116,0,l),
(450,705,l),
(452,714,l),
(130,714,l),
(96,587,l),
(116,587,l),
(135,651,ls),
(145,684,o),
(151,689,o),
(187,689,cs),
(417,689,l),
(86,0,l)
);
}
);
width = 424;
},
{
guides = (
{
angle = 340.3847;
pos = (327,271);
},
{
angle = 270;
pos = (264,679);
}
);
layerId = "A783126C-D342-49FA-8B69-0453AD03268C";
shapes = (
{
closed = 1;
nodes = (
(173,0,l),
(526,692,l),
(531,714,l),
(141,714,l),
(102,569,l),
(122,569,l),
(142,636,ls),
(157,686,o),
(161,689,o),
(205,689,cs),
(499,689,l),
(144,0,l)
);
}
);
width = 511;
},
{
guides = (
{
angle = 340.3847;
pos = (327,371);
},
{
angle = 270;
pos = (264,679);
}
);
layerId = "44BFC83C-08F8-422F-A73E-536514612562";
shapes = (
{
closed = 1;
nodes = (
(156,0,l),
(500,689,l),
(505,714,l),
(145,714,l),
(102,536,l),
(140,536,l),
(153,586,ls),
(162,619,o),
(180,638,o),
(209,638,cs),
(394,638,l),
(66,0,l)
);
}
);
width = 461;
}
);
script = "";
subCategory = "Decimal Digit";
unicode = 55;
}
{
category = Number;
glyphname = eight;
layers = (
{
layerId = UUID0;
shapes = (
{
closed = 1;
nodes = (
(372,-10,o),
(486,56,o),
(486,202,cs),
(486,283,o),
(434,337,o),
(359,381,c),
(465,425,o),
(533,477,o),
(533,578,cs),
(533,662,o),
(467,724,o),
(349,724,cs),
(179,724,o),
(110,639,o),
(110,531,cs),
(110,468,o),
(147,408,o),
(208,365,c),
(92,322,o),
(10,274,o),
(10,162,cs),
(10,62,o),
(91,-10,o),
(232,-10,cs)
);
},
{
closed = 1;
nodes = (
(154,39,o),
(106,86,o),
(106,160,cs),
(106,251,o),
(163,305,o),
(254,339,cs),
(345,293,o),
(391,250,o),
(391,178,cs),
(391,85,o),
(320,39,o),
(235,39,cs)
);
},
{
closed = 1;
nodes = (
(240,443,o),
(206,485,o),
(206,542,cs),
(206,623,o),
(260,674,o),
(341,674,cs),
(411,674,o),
(444,630,o),
(444,571,cs),
(444,501,o),
(411,448,o),
(311,405,c)
);
}
);
width = 559;
},
{
layerId = "EFE4222C-09E4-4728-8E05-7459D7542305";
shapes = (
{
closed = 1;
nodes = (
(438,-10,o),
(550,56,o),
(550,202,cs),
(550,283,o),
(498,340,o),
(429,380,c),
(527,428,o),
(597,477,o),
(597,578,cs),
(597,662,o),
(517,724,o),
(385,724,cs),
(194,724,o),
(122,635,o),
(122,541,cs),
(122,464,o),
(162,403,o),
(216,360,c),
(107,317,o),
(20,274,o),
(20,162,cs),
(20,62,o),
(124,-10,o),
(275,-10,cs)
);
},
{
closed = 1;
nodes = (
(218,55,o),
(184,93,o),
(184,157,cs),
(184,232,o),
(222,284,o),
(287,313,cs),
(350,274,o),
(384,231,o),
(384,171,cs),
(384,94,o),
(334,55,o),
(275,55,cs)
);
},
{
closed = 1;
nodes = (
(316,452,o),
(291,497,o),
(291,545,cs),
(291,616,o),
(330,660,o),
(378,660,cs),
(420,660,o),
(444,621,o),
(444,571,cs),
(444,511,o),
(421,458,o),
(361,421,c)
);
}
);
width = 569;
},
{
layerId = "081AFB27-5722-432A-9779-C9794386CEF1";
shapes = (
{
closed = 1;
nodes = (
(383,-10,o),
(478,60,o),
(478,210,cs),
(478,287,o),
(439,341,o),
(387,380,c),
(471,429,o),
(531,480,o),
(531,583,cs),
(531,664,o),
(467,724,o),
(361,724,cs),
(199,724,o),
(137,631,o),
(137,530,cs),
(137,461,o),
(167,402,o),
(207,361,c),
(114,317,o),
(39,272,o),
(39,156,cs),
(39,60,o),
(122,-10,o),
(240,-10,cs)
);
},
{
closed = 1;
nodes = (
(203,51,o),
(178,89,o),
(178,149,cs),
(178,231,o),
(210,287,o),
(265,319,c),
(310,280,o),
(335,239,o),
(335,180,cs),
(335,95,o),
(293,51,o),
(245,51,cs)
);
},
{
closed = 1;
nodes = (
(299,448,o),
(282,490,o),
(282,537,cs),
(282,613,o),
(315,663,o),
(353,663,cs),
(384,663,o),
(400,627,o),
(400,579,cs),
(400,516,o),
(381,459,o),
(331,417,c)
);
}
);
width = 505;
},
{
layerId = "9563C917-11DF-412F-BB09-FC0C1CFFA48C";
shapes = (
{
closed = 1;
nodes = (
(282,-10,o),
(362,68,o),
(362,201,cs),
(362,276,o),
(326,328,o),
(247,374,c),
(342,419,o),
(417,480,o),
(417,586,cs),
(417,662,o),
(370,724,o),
(281,724,cs),
(170,724,o),
(108,632,o),
(108,538,cs),
(108,470,o),
(133,419,o),
(198,376,c),
(97,331,o),
(15,267,o),
(15,151,cs),
(15,59,o),
(73,-10,o),
(177,-10,cs)
);
},
{
closed = 1;
nodes = (
(91,15,o),
(43,74,o),
(43,151,cs),
(43,259,o),
(130,323,o),
(220,361,c),
(302,313,o),
(334,276,o),
(334,199,cs),
(334,85,o),
(263,15,o),
(177,15,cs)
);
},
{
closed = 1;
nodes = (
(152,435,o),
(136,479,o),
(136,538,cs),
(136,616,o),
(186,699,o),
(281,699,cs),
(351,699,o),
(389,647,o),
(389,586,cs),
(389,499,o),
(334,439,o),
(225,389,c)
);
}
);
width = 424;
},
{
layerId = "A783126C-D342-49FA-8B69-0453AD03268C";
shapes = (
{
closed = 1;
nodes = (
(344,-10,o),
(449,49,o),
(449,183,cs),
(449,273,o),
(402,329,o),
(296,378,c),
(423,417,o),
(500,477,o),
(500,578,cs),
(500,659,o),
(438,724,o),
(323,724,cs),
(189,724,o),
(118,638,o),
(118,550,cs),
(118,478,o),
(155,431,o),
(240,383,c),
(118,340,o),
(23,264,o),
(23,152,cs),
(23,59,o),
(94,-10,o),
(230,-10,cs)
);
},
{
closed = 1;
nodes = (
(111,15,o),
(51,71,o),
(51,153,cs),
(51,256,o),
(146,332,o),
(266,368,c),
(377,318,o),
(421,272,o),
(421,181,cs),
(421,71,o),
(343,15,o),
(230,15,cs)
);
},
{
closed = 1;
nodes = (
(179,440,o),
(146,483,o),
(146,550,cs),
(146,633,o),
(217,699,o),
(322,699,cs),
(428,699,o),
(472,643,o),
(472,578,cs),
(472,488,o),
(411,437,o),
(270,393,c)
);
}
);
width = 511;
},
{
layerId = "44BFC83C-08F8-422F-A73E-536514612562";
shapes = (
{
closed = 1;
nodes = (
(314,-10,o),
(410,60,o),
(410,211,cs),
(410,286,o),
(372,339,o),
(316,380,c),
(406,427,o),
(464,480,o),
(464,584,cs),
(464,665,o),
(411,724,o),
(316,724,cs),
(173,724,o),
(116,632,o),
(116,522,cs),
(116,463,o),
(144,407,o),
(188,365,c),
(91,321,o),
(21,267,o),
(21,151,cs),
(21,57,o),
(85,-10,o),
(198,-10,cs)
);
},
{
closed = 1;
nodes = (
(139,38,o),
(105,82,o),
(105,152,cs),
(105,248,o),
(152,305,o),
(226,341,c),
(291,297,o),
(325,255,o),
(325,187,cs),
(325,88,o),
(267,38,o),
(199,38,cs)
);
},
{
closed = 1;
nodes = (
(227,441,o),
(203,480,o),
(203,535,cs),
(203,620,o),
(246,675,o),
(311,675,cs),
(361,675,o),
(385,634,o),
(385,578,cs),
(385,506,o),
(359,450,o),
(277,404,c)
);
}
);
width = 461;
}
);
script = "";
subCategory = "Decimal Digit";
unicode = 56;
}
{
category = Number;
glyphname = nine;
layers = (
{
layerId = UUID0;
shapes = (
{
closed = 1;
nodes = (
(431,-10,o),
(520,342,o),
(520,527,cs),
(520,653,o),
(449,724,o),
(337,724,cs),
(194,724,o),
(73,608,o),
(73,441,cs),
(73,344,o),
(134,275,o),
(242,275,cs),
(312,275,o),
(361,308,o),
(395,343,c),
(342,148,o),
(284,39,o),
(183,39,cs),
(120,39,o),
(95,92,o),
(94,138,c),
(57,138,o),
(35,113,o),
(35,80,cs),
(35,36,o),
(67,-10,o),
(175,-10,cs)
);
},
{
closed = 1;
nodes = (
(210,330,o),
(173,367,o),
(173,438,cs),
(173,551,o),
(240,669,o),
(334,669,cs),
(388,669,o),
(427,630,o),
(427,533,cs),
(427,504,o),
(420,450,o),
(411,415,c),
(381,374,o),
(332,331,o),
(267,330,cs)
);
}
);
width = 559;
},
{
layerId = "EFE4222C-09E4-4728-8E05-7459D7542305";
shapes = (
{
closed = 1;
nodes = (
(473,-10,o),
(585,326,o),
(585,527,cs),
(585,653,o),
(505,724,o),
(379,724,cs),
(216,724,o),
(77,608,o),
(77,441,cs),
(77,344,o),
(139,275,o),
(249,275,cs),
(316,275,o),
(361,308,o),
(394,343,c),
(345,162,o),
(293,63,o),
(199,63,cs),
(141,63,o),
(118,125,o),
(117,180,c),
(59,180,o),
(25,152,o),
(25,103,cs),
(25,38,o),
(80,-10,o),
(186,-10,cs)
);
},
{
closed = 1;
nodes = (
(271,359,o),
(248,391,o),
(248,452,cs),
(248,548,o),
(292,648,o),
(353,648,cs),
(388,648,o),
(413,614,o),
(413,533,cs),
(413,507,o),
(407,462,o),
(399,432,c),
(380,397,o),
(350,361,o),
(307,360,cs)
);
}
);
width = 569;
},
{
layerId = "081AFB27-5722-432A-9779-C9794386CEF1";
shapes = (
{
closed = 1;
nodes = (
(411,-10,o),
(516,351,o),
(516,539,cs),
(516,657,o),
(454,724,o),
(353,724,cs),
(218,724,o),
(99,603,o),
(99,431,cs),
(99,340,o),
(144,275,o),
(227,275,cs),
(283,275,o),
(323,308,o),
(352,343,c),
(304,159,o),
(256,58,o),
(178,58,cs),
(131,58,o),
(115,118,o),
(116,171,c),
(66,171,o),
(36,142,o),
(36,94,cs),
(36,36,o),
(80,-10,o),
(165,-10,cs)
);
},
{
closed = 1;
nodes = (
(264,353,o),
(249,382,o),
(249,437,cs),
(249,538,o),
(289,653,o),
(338,653,cs),
(363,653,o),
(380,622,o),
(380,551,cs),
(380,513,o),
(373,462,o),
(364,428,c),
(348,392,o),
(324,354,o),
(291,353,cs)
);
}
);
width = 505;
},
{
layerId = "9563C917-11DF-412F-BB09-FC0C1CFFA48C";
shapes = (
{
closed = 1;
nodes = (
(289,-10,o),
(392,252,o),
(392,520,cs),
(392,675,o),
(333,724,o),
(267,724,cs),
(154,724,o),
(85,595,o),
(85,446,cs),
(85,358,o),
(120,280,o),
(209,280,cs),
(269,280,o),
(325,317,o),
(348,342,c),
(317,164,o),
(238,15,o),
(145,15,cs),
(79,15,o),
(67,62,o),
(67,123,c),
(48,123,o),
(41,111,o),
(41,93,cs),
(41,47,o),
(66,-10,o),
(144,-10,cs)
);
},
{
closed = 1;
nodes = (
(144,305,o),
(113,369,o),
(113,447,cs),
(113,583,o),
(174,699,o),
(266,699,cs),
(321,699,o),
(364,649,o),
(364,519,cs),
(364,483,o),
(361,437,o),
(354,379,c),
(321,343,o),
(263,305,o),
(209,305,cs)
);
}
);
width = 424;
},
{
layerId = "A783126C-D342-49FA-8B69-0453AD03268C";
shapes = (
{
closed = 1;
nodes = (
(369,-10,o),
(480,265,o),
(480,512,cs),
(480,645,o),
(408,724,o),
(306,724,cs),
(176,724,o),
(81,628,o),
(81,461,cs),
(81,364,o),
(144,290,o),
(254,290,cs),
(324,290,o),
(399,332,o),
(438,375,c),
(407,160,o),
(302,15,o),
(197,15,cs),
(110,15,o),
(86,52,o),
(86,121,c),
(67,121,o),
(59,109,o),
(59,90,cs),
(59,45,o),
(87,-10,o),
(197,-10,cs)
);
},
{
closed = 1;
nodes = (
(161,315,o),
(109,382,o),
(109,461,cs),
(109,611,o),
(191,699,o),
(306,699,cs),
(386,699,o),
(452,636,o),
(452,512,cs),
(452,492,o),
(451,454,o),
(445,415,c),
(407,370,o),
(336,315,o),
(254,315,cs)
);
}
);
width = 511;
},
{
layerId = "44BFC83C-08F8-422F-A73E-536514612562";
shapes = (
{
closed = 1;
nodes = (
(365,-10,o),
(452,377,o),
(452,548,cs),
(452,661,o),
(396,724,o),
(308,724,cs),
(188,724,o),
(83,602,o),
(83,430,cs),
(83,339,o),
(129,275,o),
(211,275,cs),
(267,275,o),
(308,308,o),
(336,343,c),
(290,163,o),
(238,38,o),
(158,38,cs),
(110,38,o),
(94,94,o),
(96,143,c),
(58,143,o),
(35,112,o),
(35,75,cs),
(35,33,o),
(64,-10,o),
(147,-10,cs)
);
},
{
closed = 1;
nodes = (
(198,327,o),
(172,362,o),
(172,427,cs),
(172,540,o),
(224,673,o),
(302,673,cs),
(341,673,o),
(369,637,o),
(369,550,cs),
(369,512,o),
(361,452,o),
(351,414,c),
(327,372,o),
(288,328,o),
(238,327,cs)
);
}
);
width = 461;
}
);
script = "";
subCategory = "Decimal Digit";
unicode = 57;
}
{
category = Punctuation;
glyphname = colon;
kernLeft = colon;
layers = (
{
layerId = UUID0;
shapes = (
{
closed = 1;
nodes = (
(215,403,o),
(250,428,o),
(250,487,cs),
(250,521,o),
(227,540,o),
(194,540,cs),
(161,540,o),
(122,515,o),
(122,458,cs),
(122,423,o),
(145,403,o),
(178,403,cs)
);
},
{
closed = 1;
nodes = (
(125,-8,o),
(160,17,o),
(160,76,cs),
(160,110,o),
(137,129,o),
(104,129,cs),
(71,129,o),
(32,104,o),
(32,47,cs),
(32,12,o),
(55,-8,o),
(88,-8,cs)
);
}
);
width = 286;
},
{
layerId = "EFE4222C-09E4-4728-8E05-7459D7542305";
shapes = (
{
closed = 1;
nodes = (
(283,361,o),
(336,387,o),
(336,461,c),
(336,516,o),
(296,541,o),
(241,541,cs),
(179,541,o),
(139,501,o),
(139,441,cs),
(139,387,o),
(178,361,o),
(234,361,cs)
);
},
{
closed = 1;
nodes = (
(197,-8,o),
(250,17,o),
(250,92,c),
(250,146,o),
(210,172,o),
(155,172,cs),
(93,172,o),
(53,132,o),
(53,72,cs),
(53,17,o),
(92,-8,o),
(148,-8,cs)
);
}
);
width = 411;
},
{
layerId = "081AFB27-5722-432A-9779-C9794386CEF1";
shapes = (
{
closed = 1;
nodes = (
(253,370,o),
(300,396,o),
(300,469,cs),
(300,518,o),
(268,541,o),
(223,541,cs),
(168,541,o),
(133,501,o),
(133,442,cs),
(133,394,o),
(164,370,o),
(210,370,cs)
);
},
{
closed = 1;
nodes = (
(168,-8,o),
(215,17,o),
(215,90,cs),
(215,139,o),
(183,163,o),
(138,163,cs),
(83,163,o),
(48,123,o),
(48,64,cs),
(48,15,o),
(80,-8,o),
(125,-8,cs)
);
}
);
width = 347;
},
{
layerId = "9563C917-11DF-412F-BB09-FC0C1CFFA48C";
shapes = (
{
closed = 1;
nodes = (
(139,464,o),
(155,480,o),
(155,511,cs),
(155,533,o),
(144,542,o),
(130,542,cs),
(111,542,o),
(96,524,o),
(96,496,cs),
(96,474,o),
(106,464,o),
(123,464,cs)
);
},
{
closed = 1;
nodes = (
(36,-6,o),
(52,10,o),
(52,41,cs),
(52,63,o),
(41,72,o),
(27,72,cs),
(8,72,o),
(-7,54,o),
(-7,26,cs),
(-7,4,o),
(3,-6,o),
(20,-6,cs)
);
}
);
width = 158;
},
{
layerId = "A783126C-D342-49FA-8B69-0453AD03268C";
shapes = (
{
closed = 1;
nodes = (
(157,463,o),
(174,477,o),
(174,514,cs),
(174,533,o),
(163,541,o),
(150,541,cs),
(131,541,o),
(115,523,o),
(115,492,cs),
(115,472,o),
(125,463,o),
(141,463,cs)
);
},
{
closed = 1;
nodes = (
(61,-5,o),
(78,9,o),
(78,46,cs),
(78,65,o),
(67,73,o),
(54,73,cs),
(35,73,o),
(19,55,o),
(19,24,cs),
(19,4,o),
(29,-5,o),
(45,-5,cs)
);
}
);
width = 195;
},
{
layerId = "44BFC83C-08F8-422F-A73E-536514612562";
shapes = (
{
closed = 1;
nodes = (
(200,406,o),
(231,427,o),
(231,485,cs),
(231,522,o),
(210,541,o),
(180,541,cs),
(144,541,o),
(120,508,o),
(120,461,cs),
(120,425,o),
(140,406,o),
(171,406,cs)
);
},
{
closed = 1;
nodes = (
(110,-8,o),
(142,13,o),
(142,71,cs),
(142,108,o),
(120,127,o),
(91,127,cs),
(54,127,o),
(30,95,o),
(30,48,cs),
(30,11,o),
(51,-8,o),
(81,-8,cs)
);
}
);
width = 245;
}
);
script = "";
subCategory = Other;
unicode = 58;
}
{
category = Symbol;
glyphname = less;
layers = (
{
layerId = "EFE4222C-09E4-4728-8E05-7459D7542305";
shapes = (
{
closed = 1;
nodes = (
(509,177,l),
(177,357,l),
(509,539,l),
(509,626,l),
(60,380,l),
(60,335,l),
(509,90,l)
);
}
);
width = 569;
},
{
layerId = UUID0;
shapes = (
{
closed = 1;
nodes = (
(494,177,l),
(158,357,l),
(494,539,l),
(494,606,l),
(65,375,l),
(65,340,l),
(494,110,l)
);
}
);
width = 559;
},
{
layerId = "081AFB27-5722-432A-9779-C9794386CEF1";
shapes = (
{
closed = 1;
nodes = (
(427,186,l),
(167,357,l),
(427,530,l),
(427,613,l),
(70,379,l),
(70,336,l),
(427,103,l)
);
}
);
width = 425;
},
{
layerId = "9563C917-11DF-412F-BB09-FC0C1CFFA48C";
shapes = (
{
closed = 1;
nodes = (
(391,153,l),
(97,357,l),
(391,563,l),
(391,599,l),
(66,371,l),
(66,344,l),
(391,117,l)
);
}
);
width = 425;
},
{
layerId = "A783126C-D342-49FA-8B69-0453AD03268C";
shapes = (
{
closed = 1;
nodes = (
(494,149,l),
(95,357,l),
(494,567,l),
(494,598,l),
(65,371,l),
(65,344,l),
(494,118,l)
);
}
);
width = 559;
},
{
layerId = "44BFC83C-08F8-422F-A73E-536514612562";
shapes = (
{
closed = 1;
nodes = (
(397,177,l),
(134,357,l),
(397,540,l),
(397,605,l),
(58,375,l),
(58,340,l),
(397,111,l)
);
}
);
width = 425;
}
);
script = "";
subCategory = Math;
unicode = 60;
}
{
category = Symbol;
glyphname = equal;
layers = (
{
layerId = "EFE4222C-09E4-4728-8E05-7459D7542305";
shapes = (
{
closed = 1;
nodes = (
(513,424,l),
(513,502,l),
(57,502,l),
(57,424,l)
);
},
{
closed = 1;
nodes = (
(513,212,l),
(513,290,l),
(57,290,l),
(57,212,l)
);
}
);
width = 569;
},
{
layerId = UUID0;
shapes = (
{
closed = 1;
nodes = (
(494,426,l),
(494,485,l),
(65,485,l),
(65,426,l)
);
},
{
closed = 1;
nodes = (
(494,229,l),
(494,288,l),
(65,288,l),
(65,229,l)
);
}
);
width = 559;
},
{
layerId = "081AFB27-5722-432A-9779-C9794386CEF1";
shapes = (
{
closed = 1;
nodes = (
(430,408,l),
(430,481,l),
(67,481,l),
(67,408,l)
);
},
{
closed = 1;
nodes = (
(430,233,l),
(430,306,l),
(67,306,l),
(67,233,l)
);
}
);
width = 425;
},
{
layerId = "9563C917-11DF-412F-BB09-FC0C1CFFA48C";
shapes = (
{
closed = 1;
nodes = (
(389,443,l),
(389,471,l),
(67,471,l),
(67,443,l)
);
},
{
closed = 1;
nodes = (
(389,244,l),
(389,272,l),
(67,272,l),
(67,244,l)
);
}
);
width = 425;
},
{
layerId = "A783126C-D342-49FA-8B69-0453AD03268C";
shapes = (
{
closed = 1;
nodes = (
(490,451,l),
(490,479,l),
(67,479,l),
(67,451,l)
);
},
{
closed = 1;
nodes = (
(490,235,l),
(490,263,l),
(67,263,l),
(67,235,l)
);
}
);
width = 559;
},
{
layerId = "44BFC83C-08F8-422F-A73E-536514612562";
shapes = (
{
closed = 1;
nodes = (
(398,423,l),
(398,481,l),
(58,481,l),
(58,423,l)
);
},
{
closed = 1;
nodes = (
(398,233,l),
(398,291,l),
(58,291,l),
(58,233,l)
);
}
);
width = 425;
}
);
script = "";
subCategory = Math;
unicode = 61;
}
{
category = Symbol;
glyphname = greater;
layers = (
{
layerId = "EFE4222C-09E4-4728-8E05-7459D7542305";
shapes = (
{
closed = 1;
nodes = (
(509,335,l),
(509,380,l),
(60,626,l),
(60,539,l),
(392,357,l),
(60,177,l),
(60,90,l)
);
}
);
width = 569;
},
{
layerId = UUID0;
shapes = (
{
closed = 1;
nodes = (
(494,340,l),
(494,375,l),
(65,606,l),
(65,539,l),
(401,357,l),
(65,177,l),
(65,110,l)
);
}
);
width = 559;
},
{
layerId = "0748FCBA-26BB-4096-A322-99C7EC440251";
shapes = (
{
closed = 1;
nodes = (
(494,337,l),
(494,378,l),
(65,612,l),
(65,533,l),
(387,357,l),
(65,183,l),
(65,104,l)
);
}
);
width = 559;
},
{
layerId = "081AFB27-5722-432A-9779-C9794386CEF1";
shapes = (
{
closed = 1;
nodes = (
(427,336,l),
(427,379,l),
(70,613,l),
(70,530,l),
(329,357,l),
(70,186,l),
(70,103,l)
);
}
);
width = 425;
},
{
layerId = "9563C917-11DF-412F-BB09-FC0C1CFFA48C";
shapes = (
{
closed = 1;
nodes = (
(391,344,l),
(391,371,l),
(66,599,l),
(66,563,l),
(360,357,l),
(66,153,l),
(66,117,l)
);
}
);
width = 425;
},
{
layerId = "A783126C-D342-49FA-8B69-0453AD03268C";
shapes = (
{
closed = 1;
nodes = (
(494,344,l),
(494,371,l),
(65,598,l),
(65,567,l),
(460,357,l),
(65,149,l),
(65,118,l)
);
}
);
width = 559;
},
{
layerId = "44BFC83C-08F8-422F-A73E-536514612562";
shapes = (
{
closed = 1;
nodes = (
(397,340,l),
(397,375,l),
(58,605,l),
(58,540,l),
(321,357,l),
(58,177,l),
(58,111,l)
);
}
);
width = 425;
},
{
layerId = "50C02CB6-129D-4BF7-ADB7-784B68302109";
shapes = (
{
closed = 1;
nodes = (
(414,338,l),
(414,377,l),
(65,610,l),
(65,534,l),
(326,357,l),
(65,182,l),
(65,106,l)
);
}
);
width = 425;
}
);
script = "";
subCategory = Math;
unicode = 62;
}
{
category = Punctuation;
glyphname = question;
layers = (
{
layerId = UUID0;
shapes = (
{
closed = 1;
nodes = (
(193,201,l),
(248,201,l),
(276,317,l),
(416,368,o),
(522,442,o),
(522,558,cs),
(522,673,o),
(449,724,o),
(333,724,cs),
(206,724,o),
(131,662,o),
(131,592,cs),
(131,554,o),
(156,532,o),
(203,532,c),
(215,608,o),
(243,674,o),
(327,674,cs),
(383,674,o),
(424,635,o),
(424,566,cs),
(424,460,o),
(343,394,o),
(221,349,c)
);
},
{
closed = 1;
nodes = (
(229,-8,o),
(264,17,o),
(264,76,cs),
(264,110,o),
(241,129,o),
(208,129,cs),
(175,129,o),
(136,104,o),
(136,47,cs),
(136,12,o),
(159,-8,o),
(192,-8,cs)
);
}
);
width = 500;
},
{
layerId = "EFE4222C-09E4-4728-8E05-7459D7542305";
shapes = (
{
closed = 1;
nodes = (
(195,238,l),
(281,238,l),
(316,317,l),
(460,368,o),
(567,442,o),
(567,558,cs),
(567,673,o),
(477,724,o),
(331,724,cs),
(178,724,o),
(79,669,o),
(79,595,cs),
(79,535,o),
(132,506,o),
(240,506,c),
(246,582,o),
(267,655,o),
(315,655,cs),
(345,655,o),
(369,619,o),
(369,556,cs),
(369,444,o),
(294,396,o),
(179,354,c)
);
},
{
closed = 1;
nodes = (
(263,-8,o),
(316,17,o),
(316,92,cs),
(316,146,o),
(276,172,o),
(221,172,cs),
(159,172,o),
(119,132,o),
(119,72,cs),
(119,17,o),
(158,-8,o),
(214,-8,cs)
);
}
);
width = 561;
},
{
layerId = "081AFB27-5722-432A-9779-C9794386CEF1";
shapes = (
{
closed = 1;
nodes = (
(174,238,l),
(238,238,l),
(274,317,l),
(396,369,o),
(488,445,o),
(488,567,cs),
(488,675,o),
(417,724,o),
(298,724,cs),
(170,724,o),
(83,666,o),
(83,592,cs),
(83,538,o),
(128,512,o),
(219,512,c),
(227,588,o),
(246,659,o),
(282,659,cs),
(303,659,o),
(319,627,o),
(319,571,cs),
(319,451,o),
(255,397,o),
(156,353,c)
);
},
{
closed = 1;
nodes = (
(219,-8,o),
(266,17,o),
(266,90,cs),
(266,139,o),
(234,163,o),
(189,163,cs),
(134,163,o),
(99,123,o),
(99,64,cs),
(99,15,o),
(130,-8,o),
(176,-8,cs)
);
}
);
width = 463;
},
{
layerId = "9563C917-11DF-412F-BB09-FC0C1CFFA48C";
shapes = (
{
closed = 1;
nodes = (
(107,167,l),
(131,167,l),
(165,318,l),
(279,377,o),
(368,447,o),
(368,583,cs),
(368,666,o),
(322,724,o),
(245,724,cs),
(160,724,o),
(109,653,o),
(109,588,cs),
(109,569,o),
(118,552,o),
(129,552,c),
(130,628,o),
(163,699,o),
(243,699,cs),
(303,699,o),
(340,652,o),
(340,581,cs),
(340,456,o),
(251,385,o),
(142,336,c)
);
},
{
closed = 1;
nodes = (
(110,-6,o),
(126,10,o),
(126,41,cs),
(126,63,o),
(115,72,o),
(101,72,cs),
(82,72,o),
(67,54,o),
(67,26,cs),
(67,4,o),
(77,-6,o),
(94,-6,cs)
);
}
);
width = 355;
},
{
layerId = "A783126C-D342-49FA-8B69-0453AD03268C";
shapes = (
{
closed = 1;
nodes = (
(148,166,l),
(172,166,l),
(204,322,l),
(351,381,o),
(441,452,o),
(441,576,cs),
(441,665,o),
(378,724,o),
(287,724,cs),
(167,724,o),
(113,651,o),
(113,579,cs),
(113,563,o),
(119,553,o),
(132,553,c),
(140,633,o),
(176,699,o),
(287,699,cs),
(359,699,o),
(413,651,o),
(413,576,cs),
(413,469,o),
(334,398,o),
(179,339,c)
);
},
{
closed = 1;
nodes = (
(152,-5,o),
(169,9,o),
(169,46,cs),
(169,65,o),
(158,73,o),
(145,73,cs),
(126,73,o),
(110,55,o),
(110,24,cs),
(110,4,o),
(120,-5,o),
(136,-5,cs)
);
}
);
width = 437;
},
{
layerId = "44BFC83C-08F8-422F-A73E-536514612562";
shapes = (
{
closed = 1;
nodes = (
(162,206,l),
(208,206,l),
(237,317,l),
(354,373,o),
(445,449,o),
(445,579,cs),
(445,674,o),
(387,724,o),
(294,724,cs),
(186,724,o),
(119,659,o),
(119,590,cs),
(119,555,o),
(142,534,o),
(186,534,c),
(199,610,o),
(223,675,o),
(286,675,cs),
(325,675,o),
(353,639,o),
(353,576,cs),
(353,465,o),
(284,396,o),
(179,349,c)
);
},
{
closed = 1;
nodes = (
(186,-8,o),
(217,13,o),
(217,71,cs),
(217,108,o),
(196,127,o),
(166,127,cs),
(130,127,o),
(106,95,o),
(106,48,cs),
(106,11,o),
(126,-8,o),
(156,-8,cs)
);
}
);
width = 405;
}
);
script = "";
subCategory = Other;
unicode = 63;
}
{
category = Symbol;
glyphname = at;
layers = (
{
layerId = UUID0;
shapes = (
{
closed = 1;
nodes = (
(555,-142,o),
(653,-93,o),
(719,-43,c),
(696,-7,l),
(638,-49,o),
(551,-90,o),
(442,-90,cs),
(281,-90,o),
(144,-2,o),
(144,220,cs),
(144,494,o),
(329,663,o),
(524,663,cs),
(690,663,o),
(807,570,o),
(807,395,cs),
(807,226,o),
(737,130,o),
(678,130,cs),
(646,130,o),
(617,151,o),
(617,198,cs),
(617,225,o),
(622,256,o),
(624,265,cs),
(675,520,l),
(651,520,l),
(611,499,l),
(591,515,o),
(560,529,o),
(517,529,cs),
(333,529,o),
(262,355,o),
(262,248,cs),
(262,131,o),
(333,77,o),
(414,77,cs),
(482,77,o),
(521,116,o),
(549,168,c),
(554,168,l),
(573,111,o),
(613,77,o),
(672,77,cs),
(775,77,o),
(868,199,o),
(868,392,c),
(868,573,o),
(754,714,o),
(530,714,cs),
(257,714,o),
(65,501,o),
(65,218,cs),
(65,-24,o),
(218,-142,o),
(432,-142,cs)
);
},
{
closed = 1;
nodes = (
(386,130,o),
(355,164,o),
(355,234,cs),
(355,319,o),
(401,488,o),
(521,488,cs),
(545,488,o),
(569,477,o),
(577,458,c),
(539,255,ls),
(528,194,o),
(499,130,o),
(431,130,cs)
);
}
);
width = 921;
},
{
layerId = "EFE4222C-09E4-4728-8E05-7459D7542305";
shapes = (
{
closed = 1;
nodes = (
(559,-142,o),
(672,-102,o),
(741,-46,c),
(716,-7,l),
(651,-53,o),
(554,-92,o),
(454,-92,cs),
(280,-92,o),
(139,5,o),
(139,251,cs),
(139,506,o),
(322,663,o),
(509,663,cs),
(666,663,o),
(783,572,o),
(783,383,cs),
(783,223,o),
(727,139,o),
(678,139,cs),
(664,139,o),
(640,144,o),
(640,205,cs),
(640,213,o),
(643,253,o),
(647,274,cs),
(682,520,l),
(658,520,l),
(615,499,l),
(593,515,o),
(558,529,o),
(510,529,cs),
(309,529,o),
(231,355,o),
(231,248,cs),
(231,131,o),
(305,77,o),
(392,77,cs),
(463,77,o),
(504,121,o),
(532,173,c),
(539,173,l),
(563,99,o),
(606,77,o),
(665,77,cs),
(775,77,o),
(879,189,o),
(879,392,cs),
(879,573,o),
(752,714,o),
(516,714,cs),
(236,714,o),
(27,520,o),
(27,263,cs),
(27,-8,o),
(219,-142,o),
(437,-142,cs)
);
},
{
closed = 1;
nodes = (
(398,139,o),
(376,178,o),
(376,241,cs),
(376,317,o),
(413,483,o),
(500,483,cs),
(519,483,o),
(543,474,o),
(551,456,c),
(510,252,ls),
(499,196,o),
(480,139,o),
(431,139,cs)
);
}
);
width = 921;
},
{
layerId = "081AFB27-5722-432A-9779-C9794386CEF1";
shapes = (
{
closed = 1;
nodes = (
(451,-142,o),
(546,-100,o),
(605,-45,c),
(586,-7,l),
(530,-52,o),
(449,-92,o),
(368,-92,cs),
(231,-92,o),
(122,-2,o),
(122,220,cs),
(122,494,o),
(283,663,o),
(440,663,cs),
(563,663,o),
(653,577,o),
(653,404,cs),
(653,235,o),
(601,137,o),
(559,137,cs),
(549,137,o),
(532,145,o),
(532,195,cs),
(532,212,o),
(536,252,o),
(540,272,cs),
(588,520,l),
(568,520,l),
(522,499,l),
(504,515,o),
(476,529,o),
(436,529,cs),
(266,529,o),
(195,346,o),
(195,237,cs),
(195,128,o),
(252,77,o),
(321,77,cs),
(379,77,o),
(415,120,o),
(440,172,c),
(445,172,l),
(463,102,o),
(497,77,o),
(545,77,cs),
(640,77,o),
(734,200,o),
(734,408,cs),
(734,581,o),
(635,714,o),
(448,714,cs),
(212,714,o),
(28,506,o),
(28,232,cs),
(28,-18,o),
(179,-142,o),
(352,-142,cs)
);
},
{
closed = 1;
nodes = (
(333,137,o),
(318,170,o),
(318,227,cs),
(318,304,o),
(354,484,o),
(425,484,cs),
(440,484,o),
(460,475,o),
(466,456,c),
(424,253,ls),
(413,196,o),
(395,137,o),
(357,137,cs)
);
}
);
width = 752;
},
{
layerId = "9563C917-11DF-412F-BB09-FC0C1CFFA48C";
shapes = (
{
closed = 1;
nodes = (
(403,-132,o),
(471,-80,o),
(519,-33,c),
(504,-12,l),
(461,-55,o),
(397,-107,o),
(306,-107,cs),
(183,-107,o),
(97,-15,o),
(97,207,cs),
(97,489,o),
(231,699,o),
(408,699,cs),
(565,699,o),
(631,568,o),
(631,402,cs),
(631,226,o),
(566,112,o),
(509,112,cs),
(471,112,o),
(456,147,o),
(456,204,cs),
(456,229,o),
(458,255,o),
(464,289,cs),
(506,530,l),
(496,530,l),
(476,505,l),
(463,518,o),
(439,539,o),
(401,539,cs),
(275,539,o),
(217,383,o),
(217,258,cs),
(217,139,o),
(258,87,o),
(320,87,cs),
(373,87,o),
(407,130,o),
(428,178,c),
(431,178,l),
(437,125,o),
(458,87,o),
(509,87,cs),
(583,87,o),
(659,218,o),
(659,404,cs),
(659,592,o),
(576,724,o),
(412,724,cs),
(214,724,o),
(69,505,o),
(69,201,cs),
(69,-22,o),
(161,-132,o),
(299,-132,cs)
);
},
{
closed = 1;
nodes = (
(275,112,o),
(245,150,o),
(245,256,cs),
(245,351,o),
(289,514,o),
(397,514,cs),
(434,514,o),
(457,496,o),
(468,477,c),
(430,255,ls),
(421,200,o),
(382,112,o),
(326,112,cs)
);
}
);
width = 697;
},
{
layerId = "A783126C-D342-49FA-8B69-0453AD03268C";
shapes = (
{
closed = 1;
nodes = (
(483,-140,o),
(581,-94,o),
(649,-39,c),
(633,-18,l),
(573,-65,o),
(485,-115,o),
(354,-115,cs),
(199,-115,o),
(82,6,o),
(82,203,cs),
(82,470,o),
(241,700,o),
(487,700,cs),
(691,700,o),
(783,558,o),
(783,398,cs),
(783,214,o),
(702,107,o),
(613,107,cs),
(575,107,o),
(544,131,o),
(544,197,cs),
(544,220,o),
(546,240,o),
(551,265,cs),
(601,525,l),
(585,525,l),
(569,500,l),
(544,522,o),
(513,534,o),
(474,534,cs),
(331,534,o),
(245,373,o),
(245,234,cs),
(245,131,o),
(298,82,o),
(375,82,cs),
(441,82,o),
(493,123,o),
(516,178,c),
(521,178,l),
(527,121,o),
(558,82,o),
(613,82,cs),
(720,82,o),
(811,212,o),
(811,397,cs),
(811,578,o),
(707,725,o),
(491,725,cs),
(221,725,o),
(54,487,o),
(54,201,cs),
(54,-1,o),
(175,-140,o),
(350,-140,cs)
);
},
{
closed = 1;
nodes = (
(311,107,o),
(273,150,o),
(273,234,cs),
(273,355,o),
(344,509,o),
(474,509,cs),
(512,509,o),
(546,491,o),
(563,470,c),
(523,265,ls),
(505,173,o),
(460,107,o),
(376,107,cs)
);
}
);
width = 845;
},
{
layerId = "44BFC83C-08F8-422F-A73E-536514612562";
shapes = (
{
closed = 1;
nodes = (
(436,-142,o),
(520,-93,o),
(577,-43,c),
(559,-11,l),
(508,-53,o),
(434,-93,o),
(345,-93,cs),
(222,-93,o),
(123,-9,o),
(123,194,cs),
(123,482,o),
(284,668,o),
(446,668,cs),
(573,668,o),
(650,576,o),
(650,413,cs),
(650,238,o),
(598,130,o),
(549,130,cs),
(526,130,o),
(506,151,o),
(506,192,cs),
(506,213,o),
(510,245,o),
(514,265,cs),
(564,520,l),
(546,520,l),
(511,499,l),
(495,515,o),
(471,529,o),
(436,529,cs),
(281,529,o),
(216,344,o),
(216,225,cs),
(216,127,o),
(270,77,o),
(332,77,cs),
(387,77,o),
(420,116,o),
(445,168,c),
(449,168,l),
(462,112,o),
(493,77,o),
(541,77,cs),
(628,77,o),
(714,212,o),
(714,411,cs),
(714,582,o),
(627,714,o),
(453,714,cs),
(225,714,o),
(57,486,o),
(57,193,cs),
(57,-25,o),
(176,-142,o),
(336,-142,cs)
);
},
{
closed = 1;
nodes = (
(317,130,o),
(295,160,o),
(295,223,cs),
(295,306,o),
(338,488,o),
(435,488,cs),
(454,488,o),
(473,477,o),
(478,458,c),
(439,255,ls),
(428,194,o),
(402,130,o),
(350,130,cs)
);
}
);
width = 737;
}
);
script = "";
subCategory = Other;
unicode = 64;
}
{
category = Letter;
glyphname = A;
kernLeft = A;
kernRight = A;
layers = (
{
anchors = (
{
name = bottom;
pos = (296,0);
},
{
name = center;
pos = (300,357);
},
{
name = top;
pos = (448,714);
},
{
name = topright;
pos = (780,714);
}
);
layerId = UUID0;
shapes = (
{
closed = 1;
nodes = (
(191,0,l),
(199,42,l),
(176,42,ls),
(138,42,o),
(120,53,o),
(120,78,cs),
(120,92,o),
(126,110,o),
(139,134,cs),
(336,473,ls),
(372,535,o),
(393,574,o),
(414,622,c),
(415,574,o),
(422,523,o),
(430,464,cs),
(478,127,ls),
(479,118,o),
(480,104,o),
(480,93,cs),
(480,61,o),
(451,42,o),
(408,42,cs),
(385,42,l),
(377,0,l),
(649,0,l),
(657,42,l),
(644,42,ls),
(605,42,o),
(591,53,o),
(585,95,cs),
(490,714,l),
(412,714,l),
(64,120,ls),
(26,56,o),
(10,42,o),
(-29,42,cs),
(-48,42,l),
(-56,0,l)
);
},
{
closed = 1;
nodes = (
(504,239,l),
(504,289,l),
(178,289,l),
(178,239,l)
);
}
);
width = 705;
},
{
anchors = (
{
name = bottom;
pos = (337,0);
},
{
name = center;
pos = (353,357);
},
{
name = top;
pos = (489,714);
},
{
name = topright;
pos = (863,714);
}
);
layerId = "EFE4222C-09E4-4728-8E05-7459D7542305";
shapes = (
{
closed = 1;
nodes = (
(226,0,l),
(239,61,l),
(221,61,ls),
(183,61,o),
(165,72,o),
(165,97,cs),
(165,111,o),
(171,129,o),
(184,153,cs),
(355,473,ls),
(390,535,o),
(404,558,o),
(423,606,c),
(424,558,o),
(429,523,o),
(434,464,cs),
(468,127,ls),
(469,116,o),
(470,107,o),
(470,96,cs),
(470,70,o),
(444,61,o),
(401,61,cs),
(378,61,l),
(365,0,l),
(738,0,l),
(751,61,l),
(729,61,ls),
(687,61,o),
(673,105,o),
(667,147,cs),
(591,714,l),
(410,714,l),
(78,139,ls),
(42,77,o),
(28,61,o),
(-8,61,cs),
(-30,61,l),
(-44,0,l)
);
},
{
closed = 1;
nodes = (
(562,232,l),
(562,301,l),
(194,301,l),
(194,232,l)
);
}
);
width = 788;
},
{
anchors = (
{
name = bottom;
pos = (268,0);
},
{
name = center;
pos = (294,357);
},
{
name = top;
pos = (420,714);
},
{
name = topright;
pos = (725,714);
}
);
layerId = "081AFB27-5722-432A-9779-C9794386CEF1";
shapes = (
{
closed = 1;
nodes = (
(187,0,l),
(200,57,l),
(187,57,ls),
(157,57,o),
(142,67,o),
(142,91,cs),
(142,105,o),
(148,123,o),
(160,149,cs),
(311,473,ls),
(340,536,o),
(353,562,o),
(370,610,c),
(369,562,o),
(371,523,o),
(373,464,cs),
(386,127,ls),
(386,120,o),
(387,112,o),
(387,105,cs),
(387,69,o),
(365,57,o),
(329,57,cs),
(310,57,l),
(297,0,l),
(609,0,l),
(623,57,l),
(604,57,ls),
(569,57,o),
(559,99,o),
(557,147,c),
(519,714,l),
(363,714,l),
(70,135,ls),
(39,72,o),
(27,57,o),
(-2,57,cs),
(-21,57,l),
(-35,0,l)
);
},
{
closed = 1;
nodes = (
(473,234,l),
(475,298,l),
(171,298,l),
(169,234,l)
);
}
);
width = 650;
},
{
anchors = (
{
name = bottom;
pos = (199,0);
},
{
name = center;
pos = (197,357);
},
{
name = top;
pos = (351,714);
},
{
name = topright;
pos = (586,714);
}
);
layerId = "9563C917-11DF-412F-BB09-FC0C1CFFA48C";
shapes = (
{
closed = 1;
nodes = (
(106,0,l),
(111,20,l),
(85,20,ls),
(44,20,o),
(39,21,o),
(39,36,cs),
(39,48,o),
(45,64,o),
(64,103,cs),
(258,493,ls),
(290,557,o),
(312,604,o),
(333,653,c),
(334,605,o),
(338,552,o),
(343,493,cs),
(371,137,ls),
(373,116,o),
(375,79,o),
(375,66,cs),
(375,23,o),
(371,20,o),
(336,20,cs),
(300,20,l),
(295,0,l),
(448,0,l),
(453,20,l),
(438,20,ls),
(409,20,o),
(407,23,o),
(402,86,cs),
(350,714,l),
(341,714,l),
(34,98,ls),
(-3,23,o),
(-8,20,o),
(-41,20,cs),
(-53,20,l),
(-58,0,l)
);
},
{
closed = 1;
nodes = (
(368,245,l),
(370,270,l),
(129,270,l),
(127,245,l)
);
}
);
width = 511;
},
{
anchors = (
{
name = bottom;
pos = (266,0);
},
{
name = center;
pos = (268,357);
},
{
name = top;
pos = (406,714);
},
{
name = topright;
pos = (719,714);
}
);
layerId = "A783126C-D342-49FA-8B69-0453AD03268C";
shapes = (
{
closed = 1;
nodes = (
(157,0,l),
(162,20,l),
(120,20,ls),
(78,20,o),
(69,22,o),
(69,42,cs),
(69,56,o),
(84,87,o),
(98,112,cs),
(318,493,ls),
(356,558,o),
(391,622,o),
(414,670,c),
(417,622,o),
(430,543,o),
(439,484,cs),
(498,108,ls),
(499,101,o),
(503,75,o),
(503,60,cs),
(503,27,o),
(495,20,o),
(449,20,cs),
(416,20,l),
(411,0,l),
(592,0,l),
(597,20,l),
(579,20,ls),
(543,20,o),
(539,26,o),
(525,109,cs),
(427,714,l),
(418,714,l),
(60,98,ls),
(17,24,o),
(13,20,o),
(-39,20,cs),
(-56,20,l),
(-61,0,l)
);
},
{
closed = 1;
nodes = (
(492,250,l),
(492,275,l),
(172,275,l),
(172,250,l)
);
}
);
width = 644;
},
{
anchors = (
{
name = bottom;
pos = (231,0);
},
{
name = center;
pos = (248,357);
},
{
name = top;
pos = (383,714);
},
{
name = topright;
pos = (650,714);
}
);
layerId = "44BFC83C-08F8-422F-A73E-536514612562";
shapes = (
{
closed = 1;
nodes = (
(157,0,l),
(166,41,l),
(148,41,ls),
(119,41,o),
(105,51,o),
(105,74,cs),
(105,88,o),
(109,107,o),
(122,133,cs),
(292,481,ls),
(323,544,o),
(341,583,o),
(360,631,c),
(358,583,o),
(361,531,o),
(364,472,cs),
(387,127,ls),
(387,122,o),
(387,113,o),
(387,107,cs),
(387,62,o),
(363,41,o),
(328,41,cs),
(309,41,l),
(301,0,l),
(530,0,l),
(539,41,l),
(527,41,ls),
(496,41,o),
(485,63,o),
(481,118,cs),
(436,714,l),
(359,714,l),
(58,119,ls),
(26,54,o),
(12,41,o),
(-19,41,cs),
(-35,41,l),
(-43,0,l)
);
},
{
closed = 1;
nodes = (
(424,240,l),
(426,289,l),
(156,289,l),
(154,240,l)
);
}
);
width = 575;
}
);
script = latin;
subCategory = Uppercase;
unicode = 65;
}
{
category = Letter;
color = 10;
glyphname = B;
kernLeft = B;
kernRight = B;
layers = (
{
anchors = (
{
name = bottom;
pos = (270,0);
},
{
name = center;
pos = (301,357);
},
{
name = top;
pos = (422,714);
},
{
name = topright;
pos = (729,714);
}
);
layerId = UUID0;
shapes = (
{
closed = 1;
nodes = (
(293,0,ls),
(482,0,o),
(581,82,o),
(581,228,cs),
(581,312,o),
(531,361,o),
(459,374,c),
(460,378,l),
(552,399,o),
(623,454,o),
(623,564,cs),
(623,662,o),
(543,714,o),
(389,714,cs),
(130,714,l),
(121,672,l),
(134,672,ls),
(173,672,o),
(206,667,o),
(206,632,cs),
(206,626,o),
(204,612,o),
(202,604,cs),
(98,114,ls),
(85,51,o),
(45,42,o),
(0,42,cs),
(-13,42,l),
(-21,0,l)
);
},
{
closed = 1;
nodes = (
(185,50,l),
(249,349,l),
(333,349,ls),
(428,349,o),
(473,311,o),
(473,235,cs),
(473,115,o),
(419,50,o),
(282,50,cs)
);
},
{
closed = 1;
nodes = (
(259,399,l),
(316,664,l),
(376,664,ls),
(466,664,o),
(514,626,o),
(514,551,cs),
(514,453,o),
(462,399,o),
(336,399,cs)
);
}
);
width = 654;
},
{
anchors = (
{
name = bottom;
pos = (279,0);
},
{
name = center;
pos = (324,357);
},
{
name = top;
pos = (431,714);
},
{
name = topright;
pos = (747,714);
}
);
associatedMasterId = UUID0;
attr = {
coordinates = (
152,
100
);
};
background = {
shapes = (
{
closed = 1;
nodes = (
(341.14,0,ls),
(530.14,0,o),
(629.14,79.68,o),
(629.14,225.68,cs),
(629.14,309.68,o),
(579.14,361,o),
(507.14,374,c),
(508.14,378,l),
(600.14,399,o),
(671.14,454,o),
(671.14,561.1,cs),
(671.14,662,o),
(591.14,714,o),
(437.14,714,cs),
(126.52,714,l),
(115.78,660.98,l),
(128.78,660.98,ls),
(170.68,660.98,o),
(200.2,655.98,o),
(200.2,626.78,cs),
(200.2,621.94,o),
(197.62,606.78,o),
(194.46,594.14,cs),
(92.78,112.84,ls),
(81.52,60.86,o),
(42.68,53.02,o),
(0.58,53.02,cs),
(-12.42,53.02,l),
(-23.32,0,l)
);
},
{
closed = 1;
nodes = (
(239.52,61.02,l),
(299.46,343.2,l),
(362.58,343.2,ls),
(430.9,343.2,o),
(464.3,306.94,o),
(464.3,235,cs),
(464.3,121.96,o),
(421.32,61.02,o),
(308.1,61.02,cs)
);
},
{
closed = 1;
nodes = (
(312.36,404.8,l),
(364.14,652.98,l),
(408.48,652.98,ls),
(468.9,652.98,o),
(501.82,620.78,o),
(501.82,553.9,cs),
(501.82,459.96,o),
(463.16,404.8,o),
(368.48,404.8,cs)
);
}
);
};
layerId = "f91273aa-1dd7-4d4d-b98e-48257ab9d441";
name = "SemiBold Italic (intermediate)";
shapes = (
{
closed = 1;
nodes = (
(341,0,ls),
(530,0,o),
(629,82,o),
(629,228,cs),
(629,312,o),
(579,361,o),
(507,374,c),
(508,378,l),
(600,399,o),
(671,454,o),
(671,564,cs),
(671,662,o),
(591,714,o),
(437,714,cs),
(127,714,l),
(116,661,l),
(129,661,ls),
(170,661,o),
(199,653,o),
(199,624,cs),
(199,609,o),
(195,594,o),
(190,569,cs),
(93,113,ls),
(82,61,o),
(43,53,o),
(1,53,cs),
(-12,53,l),
(-23,0,l)
);
},
{
closed = 1;
nodes = (
(239,61,l),
(299,343,l),
(362,343,ls),
(431,343,o),
(464,307,o),
(464,235,cs),
(464,122,o),
(421,61,o),
(308,61,cs)
);
},
{
closed = 1;
nodes = (
(312,405,l),
(364,653,l),
(408,653,ls),
(469,653,o),
(502,617,o),
(502,547,cs),
(502,456,o),
(463,405,o),
(368,405,cs)
);
}
);
width = 672;
},
{
anchors = (
{
name = bottom;
pos = (293,0);
},
{
name = center;
pos = (340,357);
},
{
name = top;
pos = (445,714);
},
{
name = topright;
pos = (775,714);
}
);
layerId = "EFE4222C-09E4-4728-8E05-7459D7542305";
shapes = (
{
closed = 1;
nodes = (
(376,0,ls),
(565,0,o),
(664,78,o),
(664,224,cs),
(664,308,o),
(614,361,o),
(542,374,c),
(543,378,l),
(635,399,o),
(706,454,o),
(706,559,cs),
(706,662,o),
(626,714,o),
(472,714,cs),
(124,714,l),
(112,653,l),
(125,653,ls),
(169,653,o),
(196,648,o),
(196,623,cs),
(196,619,o),
(193,603,o),
(189,587,cs),
(89,112,ls),
(79,68,o),
(41,61,o),
(1,61,cs),
(-12,61,l),
(-25,0,l)
);
},
{
closed = 1;
nodes = (
(279,69,l),
(336,339,l),
(384,339,ls),
(433,339,o),
(458,304,o),
(458,235,cs),
(458,127,o),
(423,69,o),
(327,69,cs)
);
},
{
closed = 1;
nodes = (
(351,409,l),
(399,645,l),
(432,645,ls),
(471,645,o),
(493,617,o),
(493,556,cs),
(493,465,o),
(464,409,o),
(392,409,cs)
);
}
);
width = 700;
},
{
anchors = (
{
name = bottom;
pos = (231,0);
},
{
name = center;
pos = (292,357);
},
{
name = top;
pos = (383,714);
},
{
name = topright;
pos = (650,714);
}
);
layerId = "081AFB27-5722-432A-9779-C9794386CEF1";
shapes = (
{
closed = 1;
nodes = (
(253,0,ls),
(453,0,o),
(558,60,o),
(558,234,cs),
(558,312,o),
(520,362,o),
(464,374,c),
(465,378,l),
(544,400,o),
(605,458,o),
(605,568,cs),
(605,664,o),
(542,714,o),
(420,714,cs),
(129,714,l),
(117,657,l),
(127,657,ls),
(163,657,o),
(184,652,o),
(184,627,cs),
(184,621,o),
(180,606,o),
(177,591,cs),
(77,112,ls),
(67,64,o),
(36,57,o),
(3,57,cs),
(-7,57,l),
(-21,0,l)
);
},
{
closed = 1;
nodes = (
(238,65,l),
(295,341,l),
(331,341,ls),
(365,341,o),
(382,310,o),
(382,250,cs),
(382,137,o),
(356,65,o),
(273,65,cs)
);
},
{
closed = 1;
nodes = (
(310,407,l),
(358,649,l),
(382,649,ls),
(409,649,o),
(423,624,o),
(423,573,cs),
(423,477,o),
(401,407,o),
(341,407,cs)
);
}
);
width = 575;
},
{
anchors = (
{
name = bottom;
pos = (184,0);
},
{
name = center;
pos = (221,357);
},
{
name = top;
pos = (336,714);
},
{
name = topright;
pos = (562,714);
}
);
layerId = "9563C917-11DF-412F-BB09-FC0C1CFFA48C";
shapes = (
{
closed = 1;
nodes = (
(200,0,ls),
(342,0,o),
(417,93,o),
(417,234,cs),
(417,307,o),
(378,360,o),
(324,374,c),
(324,376,l),
(407,398,o),
(464,454,o),
(464,569,cs),
(464,660,o),
(411,714,o),
(293,714,cs),
(130,714,l),
(125,694,l),
(161,694,ls),
(187,694,o),
(194,691,o),
(194,666,cs),
(194,658,o),
(192,639,o),
(184,600,cs),
(81,116,ls),
(61,23,o),
(54,20,o),
(4,20,cs),
(-17,20,l),
(-22,0,l)
);
},
{
closed = 1;
nodes = (
(90,25,l),
(162,366,l),
(244,366,ls),
(339,366,o),
(389,314,o),
(389,234,cs),
(389,106,o),
(330,25,o),
(191,25,cs)
);
},
{
closed = 1;
nodes = (
(168,391,l),
(230,689,l),
(290,689,ls),
(387,689,o),
(436,649,o),
(436,568,cs),
(436,459,o),
(380,391,o),
(245,391,cs)
);
}
);
width = 487;
},
{
anchors = (
{
name = bottom;
pos = (260,0);
},
{
name = center;
pos = (278,357);
},
{
name = top;
pos = (412,714);
},
{
name = topright;
pos = (707,714);
}
);
layerId = "A783126C-D342-49FA-8B69-0453AD03268C";
shapes = (
{
closed = 1;
nodes = (
(259,0,ls),
(448,0,o),
(526,88,o),
(526,228,cs),
(526,307,o),
(476,360,o),
(404,373,c),
(405,377,l),
(511,394,o),
(568,451,o),
(568,564,cs),
(568,662,o),
(492,714,o),
(341,714,cs),
(139,714,l),
(134,694,l),
(161,694,ls),
(218,694,o),
(223,689,o),
(223,663,cs),
(223,652,o),
(218,620,o),
(212,594,cs),
(106,92,ls),
(91,23,o),
(86,20,o),
(30,20,cs),
(-7,20,l),
(-12,0,l)
);
},
{
closed = 1;
nodes = (
(119,25,l),
(191,364,l),
(302,364,ls),
(430,364,o),
(498,317,o),
(498,231,cs),
(498,107,o),
(429,25,o),
(256,25,cs)
);
},
{
closed = 1;
nodes = (
(196,389,l),
(260,689,l),
(341,689,ls),
(478,689,o),
(540,640,o),
(540,564,cs),
(540,460,o),
(490,389,o),
(301,389,cs)
);
}
);
width = 626;
},
{
anchors = (
{
name = bottom;
pos = (209,0);
},
{
name = center;
pos = (258,357);
},
{
name = top;
pos = (361,714);
},
{
name = topright;
pos = (606,714);
}
);
layerId = "44BFC83C-08F8-422F-A73E-536514612562";
shapes = (
{
closed = 1;
nodes = (
(228,0,ls),
(397,0,o),
(486,80,o),
(486,237,cs),
(486,314,o),
(448,362,o),
(394,374,c),
(395,378,l),
(472,400,o),
(533,458,o),
(533,571,cs),
(533,664,o),
(471,714,o),
(351,714,cs),
(133,714,l),
(124,673,l),
(135,673,ls),
(166,673,o),
(191,668,o),
(191,635,cs),
(191,628,o),
(189,620,o),
(184,596,cs),
(83,114,l),
(70,51,o),
(39,41,o),
(2,41,cs),
(-8,41,l),
(-17,0,l)
);
},
{
closed = 1;
nodes = (
(161,49,l),
(225,350,l),
(288,350,ls),
(355,350,o),
(387,315,o),
(387,244,cs),
(387,123,o),
(346,49,o),
(233,49,cs)
);
},
{
closed = 1;
nodes = (
(235,398,l),
(291,665,l),
(336,665,ls),
(400,665,o),
(433,632,o),
(433,565,cs),
(433,462,o),
(394,398,o),
(293,398,cs)
);
}
);
width = 531;
}
);
script = latin;
subCategory = Uppercase;
unicode = 66;
}
{
category = Letter;
glyphname = C;
kernLeft = O;
kernRight = C;
layers = (
{
anchors = (
{
name = bottom;
pos = (307,0);
},
{
name = center;
pos = (350,357);
},
{
name = top;
pos = (461,714);
},
{
name = topright;
pos = (702,714);
}
);
layerId = UUID0;
shapes = (
{
closed = 1;
nodes = (
(475,-10,o),
(537,60,o),
(537,113,cs),
(537,128,o),
(532,140,o),
(524,146,c),
(490,101,o),
(433,55,o),
(339,55,cs),
(221,55,o),
(161,123,o),
(161,242,cs),
(161,427,o),
(267,671,o),
(451,671,cs),
(538,671,o),
(551,590,o),
(551,535,c),
(609,535,o),
(649,565,o),
(649,613,cs),
(649,680,o),
(582,724,o),
(464,724,cs),
(215,724,o),
(52,496,o),
(52,258,cs),
(52,87,o),
(154,-10,o),
(328,-10,cs)
);
}
);
width = 627;
},
{
anchors = (
{
name = bottom;
pos = (372,0);
},
{
name = center;
pos = (407,360);
},
{
name = top;
pos = (523,714);
},
{
name = topright;
pos = (773,714);
}
);
layerId = "EFE4222C-09E4-4728-8E05-7459D7542305";
shapes = (
{
closed = 1;
nodes = (
(548,-10,o),
(645,67,o),
(645,144,cs),
(645,159,o),
(633,173,o),
(625,179,c),
(592,134,o),
(539,88,o),
(448,88,cs),
(336,88,o),
(279,151,o),
(279,276,cs),
(279,432,o),
(359,659,o),
(496,659,cs),
(560,659,o),
(570,564,o),
(570,507,c),
(668,507,o),
(743,541,o),
(743,615,cs),
(743,682,o),
(679,731,o),
(535,731,cs),
(255,731,o),
(71,501,o),
(71,260,cs),
(71,89,o),
(190,-10,o),
(394,-10,cs)
);
}
);
width = 698;
},
{
anchors = (
{
name = bottom;
pos = (301,0);
},
{
name = center;
pos = (353,359);
},
{
name = top;
pos = (453,714);
},
{
name = topright;
pos = (650,714);
}
);
layerId = "081AFB27-5722-432A-9779-C9794386CEF1";
shapes = (
{
closed = 1;
nodes = (
(454,-10,o),
(541,67,o),
(541,138,cs),
(541,153,o),
(531,166,o),
(525,172,c),
(497,127,o),
(452,81,o),
(378,81,cs),
(292,81,o),
(248,140,o),
(248,253,cs),
(248,411,o),
(322,662,o),
(435,662,cs),
(485,662,o),
(489,570,o),
(487,513,c),
(572,513,o),
(638,548,o),
(638,619,cs),
(638,684,o),
(588,729,o),
(471,729,cs),
(233,729,o),
(69,488,o),
(69,245,cs),
(69,83,o),
(164,-10,o),
(327,-10,cs)
);
}
);
width = 575;
},
{
anchors = (
{
name = bottom;
pos = (202,0);
},
{
name = center;
pos = (265,356);
},
{
name = top;
pos = (344,714);
},
{
name = topright;
pos = (531,714);
}
);
layerId = "9563C917-11DF-412F-BB09-FC0C1CFFA48C";
shapes = (
{
closed = 1;
nodes = (
(345,-10,o),
(383,56,o),
(383,93,cs),
(383,106,o),
(378,115,o),
(373,119,c),
(350,51,o),
(309,15,o),
(223,15,cs),
(132,15,o),
(75,95,o),
(75,234,cs),
(75,483,o),
(200,697,o),
(352,697,cs),
(428,697,o),
(456,642,o),
(456,557,c),
(472,557,o),
(483,570,o),
(483,590,cs),
(483,669,o),
(432,722,o),
(354,722,cs),
(184,722,o),
(47,505,o),
(47,234,cs),
(47,82,o),
(108,-10,o),
(221,-10,cs)
);
}
);
width = 456;
},
{
anchors = (
{
name = bottom;
pos = (261,0);
},
{
name = center;
pos = (321,357);
},
{
name = top;
pos = (404,714);
},
{
name = topright;
pos = (649,714);
}
);
layerId = "A783126C-D342-49FA-8B69-0453AD03268C";
shapes = (
{
closed = 1;
nodes = (
(412,-10,o),
(485,43,o),
(485,92,cs),
(485,101,o),
(482,104,o),
(477,106,c),
(438,44,o),
(383,14,o),
(287,14,cs),
(159,14,o),
(85,126,o),
(85,256,cs),
(85,466,o),
(203,699,o),
(407,699,cs),
(514,699,o),
(559,655,o),
(559,555,c),
(577,555,o),
(586,567,o),
(586,585,cs),
(586,670,o),
(524,724,o),
(407,724,cs),
(194,724,o),
(57,492,o),
(57,256,cs),
(57,112,o),
(137,-10,o),
(289,-10,cs)
);
}
);
width = 574;
},
{
anchors = (
{
name = bottom;
pos = (247,0);
},
{
name = center;
pos = (305,357);
},
{
name = top;
pos = (392,714);
},
{
name = topright;
pos = (586,714);
}
);
layerId = "44BFC83C-08F8-422F-A73E-536514612562";
shapes = (
{
closed = 1;
nodes = (
(390,-10,o),
(447,61,o),
(447,114,cs),
(447,127,o),
(443,138,o),
(438,144,c),
(409,99,o),
(361,53,o),
(287,53,cs),
(198,53,o),
(152,116,o),
(152,227,cs),
(152,408,o),
(247,674,o),
(396,674,cs),
(462,674,o),
(469,593,o),
(466,537,c),
(519,537,o),
(557,568,o),
(557,620,cs),
(557,683,o),
(506,725,o),
(410,725,cs),
(200,725,o),
(54,482,o),
(54,239,cs),
(54,80,o),
(133,-10,o),
(271,-10,cs)
);
}
);
width = 511;
}
);
script = latin;
subCategory = Uppercase;
unicode = 67;
}
{
category = Letter;
glyphname = D;
kernLeft = B;
kernRight = O;
layers = (
{
anchors = (
{
name = bottom;
pos = (306,0);
},
{
name = center;
pos = (401,357);
},
{
name = top;
pos = (458,714);
},
{
name = topright;
pos = (800,714);
}
);
layerId = UUID0;
shapes = (
{
closed = 1;
nodes = (
(294,0,ls),
(553,0,o),
(694,204,o),
(694,442,cs),
(694,619,o),
(590,714,o),
(410,714,cs),
(130,714,l),
(121,672,l),
(134,672,ls),
(170,672,o),
(206,668,o),
(206,632,cs),
(206,624,o),
(204,613,o),
(202,604,cs),
(98,114,ls),
(85,51,o),
(45,42,o),
(0,42,cs),
(-13,42,l),
(-21,0,l)
);
},
{
closed = 1;
nodes = (
(185,51,l),
(316,664,l),
(395,664,ls),
(511,664,o),
(585,599,o),
(585,453,cs),
(585,217,o),
(469,51,o),
(272,51,c)
);
}
);
width = 725;
},
{
anchors = (
{
name = bottom;
pos = (327,0);
},
{
name = center;
pos = (422,357);
},
{
name = top;
pos = (479,714);
},
{
name = topright;
pos = (843,714);
}
);
layerId = "0748FCBA-26BB-4096-A322-99C7EC440251";
shapes = (
{
closed = 1;
nodes = (
(328,0,ls),
(600,0,o),
(750,204,o),
(750,442,cs),
(750,619,o),
(638,714,o),
(447,714,cs),
(127,714,l),
(116,661,l),
(129,661,ls),
(171,661,o),
(201,656,o),
(201,627,cs),
(201,622,o),
(199,611,o),
(197,604,cs),
(93,113,ls),
(82,61,o),
(43,53,o),
(1,53,cs),
(-13,53,l),
(-24,0,l)
);
},
{
closed = 1;
nodes = (
(240,62,l),
(365,653,l),
(407,653,ls),
(514,653,o),
(582,590,o),
(582,450,cs),
(582,222,o),
(472,62,o),
(285,62,c)
);
}
);
width = 768;
},
{
anchors = (
{
name = bottom;
pos = (343,0);
},
{
name = center;
pos = (438,357);
},
{
name = top;
pos = (495,714);
},
{
name = topright;
pos = (875,714);
}
);
layerId = "EFE4222C-09E4-4728-8E05-7459D7542305";
shapes = (
{
closed = 1;
nodes = (
(353,0,ls),
(634,0,o),
(791,204,o),
(791,442,cs),
(791,619,o),
(673,714,o),
(474,714,cs),
(125,714,l),
(112,653,l),
(125,653,ls),
(171,653,o),
(196,647,o),
(196,623,cs),
(196,615,o),
(192,599,o),
(187,578,cs),
(89,112,ls),
(80,68,o),
(41,61,o),
(2,61,cs),
(-13,61,l),
(-26,0,l)
);
},
{
closed = 1;
nodes = (
(279,70,l),
(399,645,l),
(416,645,ls),
(517,645,o),
(580,583,o),
(580,448,cs),
(580,226,o),
(475,70,o),
(295,70,cs)
);
}
);
width = 800;
},
{
anchors = (
{
name = bottom;
pos = (273,0);
},
{
name = center;
pos = (368,357);
},
{
name = top;
pos = (425,714);
},
{
name = topright;
pos = (734,714);
}
);
layerId = "081AFB27-5722-432A-9779-C9794386CEF1";
shapes = (
{
closed = 1;
nodes = (
(293,0,ls),
(533,0,o),
(672,216,o),
(672,458,cs),
(672,624,o),
(579,714,o),
(420,714,cs),
(130,714,l),
(117,657,l),
(127,657,ls),
(164,657,o),
(184,652,o),
(184,627,cs),
(184,618,o),
(179,603,o),
(175,584,cs),
(77,112,ls),
(67,64,o),
(36,57,o),
(4,57,cs),
(-8,57,l),
(-21,0,l)
);
},
{
closed = 1;
nodes = (
(238,66,l),
(358,649,l),
(367,649,ls),
(444,649,o),
(491,592,o),
(491,467,cs),
(491,239,o),
(399,66,o),
(245,66,cs)
);
}
);
width = 659;
},
{
anchors = (
{
name = bottom;
pos = (208,0);
},
{
name = center;
pos = (303,357);
},
{
name = top;
pos = (360,714);
},
{
name = topright;
pos = (606,714);
}
);
layerId = "9563C917-11DF-412F-BB09-FC0C1CFFA48C";
shapes = (
{
closed = 1;
nodes = (
(193,0,ls),
(396,0,o),
(515,221,o),
(515,465,cs),
(515,627,o),
(440,714,o),
(320,714,cs),
(130,714,l),
(125,694,l),
(173,694,ls),
(191,694,o),
(195,691,o),
(195,675,cs),
(195,658,o),
(188,620,o),
(186,610,cs),
(78,102,ls),
(61,24,o),
(60,20,o),
(22,20,cs),
(-18,20,l),
(-23,0,l)
);
},
{
closed = 1;
nodes = (
(89,25,l),
(230,689,l),
(315,689,ls),
(422,689,o),
(487,609,o),
(487,468,cs),
(487,229,o),
(375,25,o),
(189,25,cs)
);
}
);
width = 531;
},
{
anchors = (
{
name = bottom;
pos = (278,0);
},
{
name = center;
pos = (373,357);
},
{
name = top;
pos = (430,714);
},
{
name = topright;
pos = (745,714);
}
);
layerId = "A783126C-D342-49FA-8B69-0453AD03268C";
shapes = (
{
closed = 1;
nodes = (
(257,0,ls),
(500,0,o),
(631,204,o),
(631,442,cs),
(631,619,o),
(537,714,o),
(371,714,cs),
(140,714,l),
(135,694,l),
(168,694,ls),
(216,694,o),
(225,687,o),
(225,660,cs),
(225,646,o),
(221,628,o),
(216,604,cs),
(107,89,ls),
(94,26,o),
(85,20,o),
(36,20,cs),
(-5,20,l),
(-10,0,l)
);
},
{
closed = 1;
nodes = (
(121,25,l),
(262,689,l),
(368,689,ls),
(509,689,o),
(603,611,o),
(603,441,cs),
(603,211,o),
(471,25,o),
(257,25,cs)
);
}
);
width = 664;
},
{
anchors = (
{
name = bottom;
pos = (238,0);
},
{
name = center;
pos = (333,357);
},
{
name = top;
pos = (390,714);
},
{
name = topright;
pos = (665,714);
}
);
layerId = "44BFC83C-08F8-422F-A73E-536514612562";
shapes = (
{
closed = 1;
nodes = (
(242,0,ls),
(461,0,o),
(587,219,o),
(587,462,cs),
(587,625,o),
(507,714,o),
(367,714,cs),
(134,714,l),
(124,673,l),
(135,673,ls),
(164,673,o),
(191,670,o),
(191,635,cs),
(191,625,o),
(188,613,o),
(185,599,cs),
(83,114,l),
(70,50,o),
(37,41,o),
(2,41,cs),
(-9,41,l),
(-17,0,l)
);
},
{
closed = 1;
nodes = (
(161,50,l),
(291,665,l),
(347,665,ls),
(433,665,o),
(486,605,o),
(486,473,cs),
(486,232,o),
(387,50,o),
(222,50,cs)
);
}
);
width = 590;
},
{
anchors = (
{
name = bottom;
pos = (258,0);
},
{
name = center;
pos = (353,357);
},
{
name = top;
pos = (410,714);
},
{
name = topright;
pos = (704,714);
}
);
layerId = "50C02CB6-129D-4BF7-ADB7-784B68302109";
shapes = (
{
closed = 1;
nodes = (
(271,0,ls),
(502,0,o),
(635,217,o),
(635,460,cs),
(635,625,o),
(548,714,o),
(397,714,cs),
(132,714,l),
(120,664,l),
(130,664,ls),
(164,664,o),
(187,660,o),
(187,630,cs),
(187,621,o),
(183,607,o),
(179,590,cs),
(80,113,l),
(68,58,o),
(37,50,o),
(3,50,cs),
(-8,50,l),
(-19,0,l)
);
},
{
closed = 1;
nodes = (
(205,59,l),
(329,656,l),
(358,656,ls),
(439,656,o),
(489,598,o),
(489,470,cs),
(489,236,o),
(394,59,o),
(235,59,cs)
);
}
);
width = 629;
}
);
script = latin;
subCategory = Uppercase;
unicode = 68;
}
{
category = Letter;
glyphname = E;
kernLeft = B;
kernRight = E;
layers = (
{
anchors = (
{
name = bottom;
pos = (255,0);
},
{
name = center;
pos = (306,357);
},
{
name = top;
pos = (407,714);
},
{
name = topright;
pos = (698,714);
}
);
layerId = UUID0;
shapes = (
{
closed = 1;
nodes = (
(515,0,l),
(559,175,l),
(507,175,l),
(491,132,ls),
(475,88,o),
(441,50,o),
(378,50,cs),
(185,50,l),
(249,349,l),
(490,349,l),
(500,398,l),
(259,398,l),
(316,664,l),
(484,664,ls),
(536,664,o),
(555,634,o),
(555,597,cs),
(555,592,o),
(551,548,o),
(550,539,c),
(602,539,l),
(634,714,l),
(130,714,l),
(121,672,l),
(134,672,ls),
(173,672,o),
(204,666,o),
(204,624,cs),
(204,617,o),
(203,609,o),
(201,600,cs),
(97,109,ls),
(84,49,o),
(44,42,o),
(0,42,cs),
(-13,42,l),
(-21,0,l)
);
}
);
width = 623;
},
{
anchors = (
{
name = bottom;
pos = (274,0);
},
{
name = center;
pos = (335,357);
},
{
name = top;
pos = (426,714);
},
{
name = topright;
pos = (736,714);
}
);
layerId = "EFE4222C-09E4-4728-8E05-7459D7542305";
shapes = (
{
closed = 1;
nodes = (
(577,0,l),
(625,194,l),
(540,194,l),
(524,151,ls),
(508,107,o),
(474,69,o),
(411,69,cs),
(278,69,l),
(335,339,l),
(552,339,l),
(567,407,l),
(351,407,l),
(401,645,l),
(508,645,ls),
(560,645,o),
(579,615,o),
(579,578,cs),
(579,573,o),
(575,529,o),
(574,520,c),
(659,520,l),
(696,714,l),
(124,714,l),
(112,653,l),
(125,653,ls),
(168,653,o),
(197,647,o),
(197,624,cs),
(197,616,o),
(194,605,o),
(192,594,cs),
(90,116,ls),
(80,70,o),
(42,61,o),
(1,61,cs),
(-12,61,l),
(-25,0,l)
);
}
);
width = 661;
},
{
anchors = (
{
name = bottom;
pos = (214,0);
},
{
name = center;
pos = (290,357);
},
{
name = top;
pos = (366,714);
},
{
name = topright;
pos = (617,714);
}
);
layerId = "081AFB27-5722-432A-9779-C9794386CEF1";
shapes = (
{
closed = 1;
nodes = (
(476,0,l),
(523,190,l),
(451,190,l),
(436,147,ls),
(421,103,o),
(392,65,o),
(341,65,cs),
(237,65,l),
(294,341,l),
(469,341,l),
(484,405,l),
(310,405,l),
(360,649,l),
(442,649,ls),
(482,649,o),
(498,621,o),
(498,587,cs),
(498,579,o),
(492,533,o),
(491,524,c),
(563,524,l),
(601,714,l),
(129,714,l),
(117,657,l),
(127,657,ls),
(162,657,o),
(185,651,o),
(185,626,cs),
(185,617,o),
(182,602,o),
(179,590,cs),
(77,114,ls),
(67,65,o),
(36,57,o),
(3,57,cs),
(-7,57,l),
(-21,0,l)
);
}
);
width = 542;
},
{
anchors = (
{
name = bottom;
pos = (180,0);
},
{
name = center;
pos = (236,357);
},
{
name = top;
pos = (332,714);
},
{
name = topright;
pos = (550,714);
}
);
layerId = "9563C917-11DF-412F-BB09-FC0C1CFFA48C";
shapes = (
{
closed = 1;
nodes = (
(368,0,l),
(405,150,l),
(383,150,l),
(370,105,ls),
(347,27,o),
(343,25,o),
(273,25,cs),
(89,25,l),
(161,362,l),
(365,362,l),
(370,387,l),
(166,387,l),
(230,689,l),
(397,689,ls),
(449,689,o),
(454,686,o),
(454,656,cs),
(454,636,o),
(448,586,o),
(444,564,c),
(466,564,l),
(494,714,l),
(130,714,l),
(125,694,l),
(137,694,ls),
(188,694,o),
(192,692,o),
(192,656,cs),
(192,646,o),
(188,620,o),
(182,591,cs),
(76,96,ls),
(61,24,o),
(57,20,o),
(-7,20,cs),
(-17,20,l),
(-22,0,l)
);
}
);
width = 475;
},
{
anchors = (
{
name = bottom;
pos = (249,0);
},
{
name = center;
pos = (290,357);
},
{
name = top;
pos = (401,714);
},
{
name = topright;
pos = (686,714);
}
);
layerId = "A783126C-D342-49FA-8B69-0453AD03268C";
shapes = (
{
closed = 1;
nodes = (
(475,0,l),
(515,161,l),
(490,161,l),
(476,113,ls),
(452,31,o),
(444,25,o),
(381,25,cs),
(119,25,l),
(190,362,l),
(451,362,l),
(455,387,l),
(196,387,l),
(260,689,l),
(492,689,ls),
(544,689,o),
(552,686,o),
(552,645,cs),
(552,627,o),
(542,573,o),
(539,553,c),
(564,553,l),
(594,714,l),
(140,714,l),
(135,694,l),
(170,694,ls),
(216,694,o),
(223,690,o),
(223,665,cs),
(223,650,o),
(217,618,o),
(208,576,cs),
(106,95,ls),
(91,25,o),
(84,20,o),
(25,20,cs),
(-8,20,l),
(-13,0,l)
);
}
);
width = 604;
},
{
anchors = (
{
name = bottom;
pos = (196,0);
},
{
name = center;
pos = (264,357);
},
{
name = top;
pos = (348,714);
},
{
name = topright;
pos = (580,714);
}
);
layerId = "44BFC83C-08F8-422F-A73E-536514612562";
shapes = (
{
closed = 1;
nodes = (
(420,0,l),
(462,174,l),
(417,174,l),
(403,131,ls),
(388,87,o),
(359,49,o),
(309,49,cs),
(161,49,l),
(225,350,l),
(415,350,l),
(425,398,l),
(235,398,l),
(291,665,l),
(419,665,ls),
(458,665,o),
(473,638,o),
(473,603,cs),
(473,595,o),
(467,549,o),
(466,540,c),
(512,540,l),
(545,714,l),
(133,714,l),
(124,673,l),
(135,673,ls),
(166,673,o),
(189,667,o),
(189,627,cs),
(189,617,o),
(188,606,o),
(183,585,cs),
(81,108,ls),
(70,55,o),
(46,41,o),
(2,41,cs),
(-8,41,l),
(-17,0,l)
);
}
);
width = 505;
}
);
script = latin;
subCategory = Uppercase;
unicode = 69;
}
{
category = Letter;
glyphname = F;
kernLeft = B;
kernRight = F;
layers = (
{
anchors = (
{
name = bottom;
pos = (128,0);
},
{
name = center;
pos = (306,357);
},
{
name = top;
pos = (390,714);
},
{
name = topright;
pos = (665,714);
}
);
layerId = UUID0;
shapes = (
{
closed = 1;
nodes = (
(290,0,l),
(298,42,l),
(265,42,ls),
(227,42,o),
(196,48,o),
(196,89,cs),
(196,96,o),
(197,105,o),
(199,114,cs),
(244,326,l),
(485,326,l),
(495,375,l),
(254,375,l),
(316,664,l),
(480,664,ls),
(536,664,o),
(555,635,o),
(555,597,cs),
(555,592,o),
(552,561,o),
(550,539,c),
(602,539,l),
(634,714,l),
(130,714,l),
(121,672,l),
(134,672,ls),
(176,672,o),
(206,666,o),
(206,632,cs),
(206,626,o),
(204,612,o),
(202,604,cs),
(97,109,l),
(82,50,o),
(44,42,o),
(0,42,cs),
(-13,42,l),
(-21,0,l)
);
}
);
width = 590;
},
{
anchors = (
{
name = bottom;
pos = (163,0);
},
{
name = center;
pos = (341,357);
},
{
name = top;
pos = (417,714);
},
{
name = topright;
pos = (719,714);
}
);
layerId = "EFE4222C-09E4-4728-8E05-7459D7542305";
shapes = (
{
closed = 1;
nodes = (
(343,0,l),
(357,61,l),
(343,61,ls),
(309,61,o),
(282,65,o),
(282,86,cs),
(282,95,o),
(285,102,o),
(289,121,cs),
(332,317,l),
(566,317,l),
(580,384,l),
(346,384,l),
(401,645,l),
(516,645,ls),
(572,645,o),
(591,616,o),
(591,578,cs),
(591,573,o),
(588,542,o),
(586,520,c),
(671,520,l),
(708,714,l),
(124,714,l),
(112,653,l),
(125,653,ls),
(166,653,o),
(196,649,o),
(196,622,cs),
(196,606,o),
(189,581,o),
(184,558,cs),
(90,116,l),
(82,69,o),
(42,61,o),
(1,61,cs),
(-12,61,l),
(-25,0,l)
);
}
);
width = 644;
},
{
anchors = (
{
name = bottom;
pos = (142,0);
},
{
name = center;
pos = (295,357);
},
{
name = top;
pos = (360,714);
},
{
name = topright;
pos = (605,714);
}
);
layerId = "081AFB27-5722-432A-9779-C9794386CEF1";
shapes = (
{
closed = 1;
nodes = (
(294,0,l),
(308,57,l),
(289,57,ls),
(262,57,o),
(243,61,o),
(243,85,cs),
(243,94,o),
(244,101,o),
(248,119,cs),
(291,319,l),
(481,319,l),
(496,382,l),
(305,382,l),
(360,649,l),
(450,649,ls),
(493,649,o),
(508,622,o),
(508,587,cs),
(508,579,o),
(504,547,o),
(502,524,c),
(574,524,l),
(612,714,l),
(129,714,l),
(117,657,l),
(127,657,ls),
(160,657,o),
(184,653,o),
(184,626,cs),
(184,612,o),
(176,578,o),
(172,557,cs),
(77,114,l),
(69,65,o),
(36,57,o),
(3,57,cs),
(-7,57,l),
(-21,0,l)
);
}
);
width = 530;
},
{
anchors = (
{
name = bottom;
pos = (74,0);
},
{
name = center;
pos = (231,357);
},
{
name = top;
pos = (313,714);
},
{
name = topright;
pos = (511,714);
}
);
layerId = "9563C917-11DF-412F-BB09-FC0C1CFFA48C";
shapes = (
{
closed = 1;
nodes = (
(192,0,l),
(197,20,l),
(155,20,ls),
(104,20,o),
(100,22,o),
(100,58,cs),
(100,68,o),
(104,94,o),
(110,123,cs),
(156,338,l),
(351,338,l),
(356,363,l),
(162,363,l),
(230,689,l),
(387,689,ls),
(439,689,o),
(444,686,o),
(444,656,cs),
(444,636,o),
(437,586,o),
(432,554,c),
(454,554,l),
(484,714,l),
(130,714,l),
(125,694,l),
(137,694,ls),
(188,694,o),
(192,692,o),
(192,656,cs),
(192,646,o),
(188,620,o),
(182,591,cs),
(76,96,ls),
(61,24,o),
(57,20,o),
(-7,20,cs),
(-17,20,l),
(-22,0,l)
);
}
);
width = 436;
},
{
anchors = (
{
name = bottom;
pos = (101,0);
},
{
name = center;
pos = (285,357);
},
{
name = top;
pos = (370,714);
},
{
name = topright;
pos = (624,714);
}
);
layerId = "A783126C-D342-49FA-8B69-0453AD03268C";
shapes = (
{
closed = 1;
nodes = (
(213,0,l),
(217,20,l),
(173,20,ls),
(140,20,o),
(127,25,o),
(127,51,cs),
(127,64,o),
(130,82,o),
(136,108,cs),
(186,342,l),
(447,342,l),
(451,367,l),
(192,367,l),
(260,689,l),
(481,689,ls),
(533,689,o),
(541,686,o),
(541,645,cs),
(541,627,o),
(531,573,o),
(528,553,c),
(553,553,l),
(583,714,l),
(140,714,l),
(135,694,l),
(170,694,ls),
(216,694,o),
(223,690,o),
(223,665,cs),
(223,650,o),
(217,618,o),
(208,576,cs),
(108,108,ls),
(91,31,o),
(83,20,o),
(33,20,cs),
(-9,20,l),
(-13,0,l)
);
}
);
width = 549;
},
{
anchors = (
{
name = bottom;
pos = (113,0);
},
{
name = center;
pos = (265,357);
},
{
name = top;
pos = (334,714);
},
{
name = topright;
pos = (554,714);
}
);
layerId = "44BFC83C-08F8-422F-A73E-536514612562";
shapes = (
{
closed = 1;
nodes = (
(241,0,l),
(250,41,l),
(221,41,ls),
(194,41,o),
(171,46,o),
(171,85,cs),
(171,98,o),
(172,105,o),
(177,128,cs),
(219,326,l),
(412,326,l),
(422,375,l),
(230,375,l),
(291,665,l),
(417,665,ls),
(459,665,o),
(474,639,o),
(474,603,cs),
(474,595,o),
(470,563,o),
(468,540,c),
(513,540,l),
(547,714,l),
(133,714,l),
(124,673,l),
(135,673,ls),
(167,673,o),
(191,667,o),
(191,635,cs),
(191,626,o),
(188,609,o),
(184,589,cs),
(82,108,l),
(68,49,o),
(37,41,o),
(2,41,cs),
(-8,41,l),
(-17,0,l)
);
}
);
width = 479;
}
);
script = latin;
subCategory = Uppercase;
unicode = 70;
}
{
category = Letter;
glyphname = H;
kernLeft = B;
kernRight = H;
layers = (
{
anchors = (
{
name = bottom;
pos = (340,0);
},
{
name = center;
pos = (435,357);
},
{
name = top;
pos = (492,714);
},
{
name = topright;
pos = (868,714);
}
);
layerId = UUID0;
shapes = (
{
closed = 1;
nodes = (
(270,0,l),
(279,42,l),
(266,42,ls),
(224,42,o),
(194,48,o),
(194,82,cs),
(194,88,o),
(196,102,o),
(198,110,cs),
(248,348,l),
(573,348,l),
(524,114,ls),
(511,51,o),
(471,42,o),
(426,42,cs),
(413,42,l),
(405,0,l),
(696,0,l),
(705,42,l),
(692,42,ls),
(650,42,o),
(620,48,o),
(620,82,cs),
(620,88,o),
(622,102,o),
(624,110,cs),
(728,600,ls),
(741,663,o),
(780,672,o),
(825,672,cs),
(838,672,l),
(847,714,l),
(556,714,l),
(547,672,l),
(560,672,ls),
(602,672,o),
(632,666,o),
(632,632,cs),
(632,626,o),
(630,612,o),
(628,604,cs),
(584,398,l),
(259,398,l),
(302,600,ls),
(315,663,o),
(354,672,o),
(399,672,cs),
(412,672,l),
(421,714,l),
(130,714,l),
(121,672,l),
(134,672,ls),
(176,672,o),
(206,666,o),
(206,632,cs),
(206,626,o),
(204,612,o),
(202,604,cs),
(98,114,ls),
(85,51,o),
(45,42,o),
(0,42,cs),
(-13,42,l),
(-21,0,l)
);
}
);
width = 793;
},
{
anchors = (
{
name = bottom;
pos = (353,0);
},
{
name = center;
pos = (448,357);
},
{
name = top;
pos = (505,714);
},
{
name = topright;
pos = (894,714);
}
);
layerId = "0748FCBA-26BB-4096-A322-99C7EC440251";
shapes = (
{
closed = 1;
nodes = (
(321,0,l),
(332,53,l),
(319,53,ls),
(265,53,o),
(246,61,o),
(246,87,cs),
(246,92,o),
(248,103,o),
(250,110,cs),
(299,342,l),
(560,342,l),
(512,114,ls),
(501,61,o),
(461,53,o),
(418,53,cs),
(405,53,l),
(394,0,l),
(739,0,l),
(750,53,l),
(737,53,ls),
(681,53,o),
(665,65,o),
(665,87,cs),
(665,92,o),
(667,103,o),
(669,110,cs),
(772,600,ls),
(783,653,o),
(823,661,o),
(866,661,cs),
(879,661,l),
(890,714,l),
(545,714,l),
(534,661,l),
(547,661,ls),
(604,661,o),
(620,650,o),
(620,627,cs),
(620,622,o),
(618,611,o),
(615,597,cs),
(573,403,l),
(312,403,l),
(353,600,ls),
(364,653,o),
(404,661,o),
(448,661,cs),
(461,661,l),
(472,714,l),
(127,714,l),
(116,661,l),
(129,661,ls),
(187,661,o),
(201,651,o),
(201,627,cs),
(201,622,o),
(199,611,o),
(195,593,cs),
(93,113,ls),
(82,61,o),
(43,53,o),
(1,53,cs),
(-12,53,l),
(-23,0,l)
);
}
);
width = 819;
},
{
anchors = (
{
name = bottom;
pos = (362,0);
},
{
name = center;
pos = (457,357);
},
{
name = top;
pos = (514,714);
},
{
name = topright;
pos = (913,714);
}
);
layerId = "EFE4222C-09E4-4728-8E05-7459D7542305";
shapes = (
{
closed = 1;
nodes = (
(348,0,l),
(361,61,l),
(348,61,ls),
(294,61,o),
(284,71,o),
(284,91,cs),
(284,95,o),
(286,104,o),
(289,118,cs),
(336,338,l),
(550,338,l),
(503,114,ls),
(494,68,o),
(458,61,o),
(422,61,cs),
(409,61,l),
(395,0,l),
(770,0,l),
(783,61,l),
(770,61,ls),
(703,61,o),
(698,78,o),
(698,91,cs),
(698,95,o),
(700,104,o),
(703,121,cs),
(804,600,ls),
(813,646,o),
(854,653,o),
(896,653,cs),
(909,653,l),
(921,714,l),
(546,714,l),
(534,653,l),
(547,653,ls),
(606,653,o),
(611,638,o),
(611,625,cs),
(611,620,o),
(609,610,o),
(605,592,cs),
(564,407,l),
(351,407,l),
(390,600,ls),
(399,646,o),
(435,653,o),
(474,653,cs),
(487,653,l),
(499,714,l),
(124,714,l),
(112,653,l),
(125,653,ls),
(195,653,o),
(197,640,o),
(197,625,cs),
(197,622,o),
(195,610,o),
(189,585,cs),
(89,112,ls),
(79,68,o),
(41,61,o),
(1,61,cs),
(-12,61,l),
(-25,0,l)
);
}
);
width = 838;
},
{
anchors = (
{
name = bottom;
pos = (287,0);
},
{
name = center;
pos = (363,357);
},
{
name = top;
pos = (439,714);
},
{
name = topright;
pos = (763,714);
}
);
layerId = "081AFB27-5722-432A-9779-C9794386CEF1";
shapes = (
{
closed = 1;
nodes = (
(291,0,l),
(304,57,l),
(293,57,ls),
(252,57,o),
(243,65,o),
(243,84,cs),
(243,93,o),
(245,103,o),
(248,116,cs),
(295,340,l),
(460,340,l),
(414,114,ls),
(404,64,o),
(375,57,o),
(346,57,cs),
(336,57,l),
(322,0,l),
(635,0,l),
(648,57,l),
(637,57,ls),
(588,57,o),
(579,69,o),
(579,84,cs),
(579,93,o),
(582,103,o),
(585,119,cs),
(685,600,ls),
(695,650,o),
(729,657,o),
(763,657,cs),
(773,657,l),
(786,714,l),
(473,714,l),
(460,657,l),
(471,657,ls),
(513,657,o),
(522,647,o),
(522,632,cs),
(522,622,o),
(519,612,o),
(515,595,cs),
(474,405,l),
(310,405,l),
(349,600,ls),
(359,650,o),
(388,657,o),
(419,657,cs),
(429,657,l),
(442,714,l),
(129,714,l),
(117,657,l),
(127,657,ls),
(177,657,o),
(185,648,o),
(185,632,cs),
(185,624,o),
(182,611,o),
(178,589,cs),
(77,112,ls),
(67,64,o),
(36,57,o),
(3,57,cs),
(-7,57,l),
(-21,0,l)
);
}
);
width = 688;
},
{
anchors = (
{
name = bottom;
pos = (244,0);
},
{
name = center;
pos = (339,357);
},
{
name = top;
pos = (396,714);
},
{
name = topright;
pos = (677,714);
}
);
layerId = "9563C917-11DF-412F-BB09-FC0C1CFFA48C";
shapes = (
{
closed = 1;
nodes = (
(165,0,l),
(169,20,l),
(144,20,ls),
(111,20,o),
(98,25,o),
(98,51,cs),
(98,64,o),
(102,82,o),
(107,108,cs),
(161,361,l),
(471,361,l),
(417,108,ls),
(401,31,o),
(392,20,o),
(342,20,cs),
(317,20,l),
(313,0,l),
(501,0,l),
(505,20,l),
(482,20,ls),
(449,20,o),
(436,25,o),
(436,51,cs),
(436,64,o),
(440,82,o),
(445,108,cs),
(551,606,ls),
(567,683,o),
(576,694,o),
(626,694,cs),
(649,694,l),
(653,714,l),
(465,714,l),
(461,694,l),
(486,694,ls),
(519,694,o),
(532,689,o),
(532,663,cs),
(532,650,o),
(528,632,o),
(523,606,cs),
(476,386,l),
(166,386,l),
(213,606,ls),
(229,683,o),
(238,694,o),
(288,694,cs),
(313,694,l),
(317,714,l),
(129,714,l),
(125,694,l),
(148,694,ls),
(181,694,o),
(194,689,o),
(194,663,cs),
(194,650,o),
(190,632,o),
(185,606,cs),
(79,108,ls),
(63,31,o),
(54,20,o),
(4,20,cs),
(-19,20,l),
(-23,0,l)
);
}
);
width = 602;
},
{
anchors = (
{
name = bottom;
pos = (324,0);
},
{
name = center;
pos = (419,357);
},
{
name = top;
pos = (476,714);
},
{
name = topright;
pos = (836,714);
}
);
layerId = "A783126C-D342-49FA-8B69-0453AD03268C";
shapes = (
{
closed = 1;
nodes = (
(215,0,l),
(219,20,l),
(174,20,ls),
(141,20,o),
(128,25,o),
(128,51,cs),
(128,64,o),
(132,82,o),
(137,108,cs),
(191,361,l),
(598,361,l),
(544,108,ls),
(528,31,o),
(519,20,o),
(469,20,cs),
(424,20,l),
(420,0,l),
(648,0,l),
(652,20,l),
(609,20,ls),
(576,20,o),
(563,25,o),
(563,51,cs),
(563,64,o),
(567,82,o),
(572,108,cs),
(678,606,ls),
(694,683,o),
(703,694,o),
(753,694,cs),
(796,694,l),
(800,714,l),
(572,714,l),
(568,694,l),
(613,694,ls),
(646,694,o),
(659,689,o),
(659,663,cs),
(659,650,o),
(655,632,o),
(650,606,cs),
(603,386,l),
(196,386,l),
(243,606,ls),
(259,683,o),
(268,694,o),
(318,694,cs),
(363,694,l),
(367,714,l),
(139,714,l),
(135,694,l),
(178,694,ls),
(211,694,o),
(224,689,o),
(224,663,cs),
(224,650,o),
(220,632,o),
(215,606,cs),
(109,108,ls),
(93,31,o),
(84,20,o),
(34,20,cs),
(-9,20,l),
(-13,0,l)
);
}
);
width = 759;
},
{
anchors = (
{
name = bottom;
pos = (264,0);
},
{
name = center;
pos = (354,357);
},
{
name = top;
pos = (416,714);
},
{
name = topright;
pos = (716,714);
}
);
layerId = "44BFC83C-08F8-422F-A73E-536514612562";
shapes = (
{
closed = 1;
nodes = (
(224,0,l),
(234,41,l),
(224,41,ls),
(191,41,o),
(169,47,o),
(169,78,cs),
(169,86,o),
(172,101,o),
(174,112,cs),
(224,349,l),
(471,349,l),
(423,114,ls),
(410,50,o),
(378,41,o),
(344,41,cs),
(333,41,l),
(324,0,l),
(566,0,l),
(576,41,l),
(565,41,ls),
(531,41,o),
(509,45,o),
(509,78,cs),
(509,86,o),
(512,101,o),
(514,112,cs),
(617,600,ls),
(630,664,o),
(663,673,o),
(698,673,cs),
(708,673,l),
(717,714,l),
(475,714,l),
(467,673,l),
(477,673,ls),
(509,673,o),
(531,669,o),
(531,636,cs),
(531,629,o),
(529,616,o),
(526,605,cs),
(482,398,l),
(235,398,l),
(277,600,l),
(290,664,o),
(322,673,o),
(356,673,cs),
(366,673,l),
(376,714,l),
(133,714,l),
(124,673,l),
(135,673,ls),
(168,673,o),
(191,668,o),
(191,636,cs),
(191,629,o),
(189,618,o),
(185,598,cs),
(83,114,l),
(70,50,o),
(37,41,o),
(2,41,cs),
(-8,41,l),
(-17,0,l)
);
}
);
width = 641;
},
{
anchors = (
{
name = bottom;
pos = (277,0);
},
{
name = center;
pos = (359,357);
},
{
name = top;
pos = (429,714);
},
{
name = topright;
pos = (743,714);
}
);
layerId = "50C02CB6-129D-4BF7-ADB7-784B68302109";
shapes = (
{
closed = 1;
nodes = (
(262,0,l),
(274,50,l),
(263,50,ls),
(226,50,o),
(211,57,o),
(211,81,cs),
(211,90,o),
(213,102,o),
(216,114,cs),
(264,344,l),
(465,344,l),
(418,114,ls),
(407,58,o),
(376,50,o),
(345,50,cs),
(335,50,l),
(323,0,l),
(605,0,l),
(617,50,l),
(606,50,ls),
(563,50,o),
(549,59,o),
(549,81,cs),
(549,90,o),
(552,102,o),
(554,116,cs),
(655,600,ls),
(667,656,o),
(700,664,o),
(735,664,cs),
(745,664,l),
(756,714,l),
(474,714,l),
(463,664,l),
(474,664,ls),
(511,664,o),
(526,657,o),
(526,634,cs),
(526,625,o),
(523,614,o),
(520,599,cs),
(477,402,l),
(278,402,l),
(318,600,l),
(329,656,o),
(359,664,o),
(392,664,cs),
(402,664,l),
(413,714,l),
(131,714,l),
(120,664,l),
(130,664,ls),
(173,664,o),
(188,657,o),
(188,634,cs),
(188,626,o),
(185,614,o),
(181,593,cs),
(80,113,l),
(68,58,o),
(37,50,o),
(3,50,cs),
(-8,50,l),
(-19,0,l)
);
}
);
width = 668;
}
);
script = latin;
subCategory = Uppercase;
unicode = 72;
}
{
category = Letter;
glyphname = I;
kernLeft = B;
kernRight = H;
layers = (
{
anchors = (
{
name = bottom;
pos = (127,0);
},
{
name = center;
pos = (200,357);
},
{
name = ogonek;
pos = (183,1);
},
{
name = top;
pos = (279,714);
},
{
name = topright;
pos = (442,714);
}
);
layerId = UUID0;
shapes = (
{
closed = 1;
nodes = (
(270,0,l),
(279,42,l),
(266,42,ls),
(224,42,o),
(194,48,o),
(194,82,cs),
(194,88,o),
(196,102,o),
(198,110,c),
(302,600,l),
(315,663,o),
(354,672,o),
(399,672,cs),
(412,672,l),
(421,714,l),
(130,714,l),
(121,672,l),
(134,672,ls),
(176,672,o),
(206,666,o),
(206,632,cs),
(206,626,o),
(204,612,o),
(202,604,c),
(98,114,ls),
(85,51,o),
(45,42,o),
(0,42,cs),
(-13,42,l),
(-21,0,l)
);
}
);
width = 367;
},
{
anchors = (
{
name = bottom;
pos = (156,0);
},
{
name = center;
pos = (242,357);
},
{
name = ogonek;
pos = (266,1);
},
{
name = top;
pos = (308,714);
},
{
name = topright;
pos = (501,714);
}
);
layerId = "EFE4222C-09E4-4728-8E05-7459D7542305";
shapes = (
{
closed = 1;
nodes = (
(358,0,l),
(371,61,l),
(358,61,ls),
(316,61,o),
(284,65,o),
(284,91,cs),
(284,103,o),
(289,118,o),
(294,143,cs),
(392,600,ls),
(402,646,o),
(440,653,o),
(484,653,cs),
(497,653,l),
(509,714,l),
(124,714,l),
(112,653,l),
(125,653,ls),
(168,653,o),
(197,649,o),
(197,623,cs),
(197,619,o),
(197,609,o),
(192,585,cs),
(89,112,ls),
(79,68,o),
(41,61,o),
(1,61,cs),
(-12,61,l),
(-25,0,l)
);
}
);
width = 426;
},
{
anchors = (
{
name = bottom;
pos = (120,0);
},
{
name = center;
pos = (215,357);
},
{
name = ogonek;
pos = (233,1);
},
{
name = top;
pos = (272,714);
},
{
name = topright;
pos = (428,714);
}
);
layerId = "081AFB27-5722-432A-9779-C9794386CEF1";
shapes = (
{
closed = 1;
nodes = (
(300,0,l),
(313,57,l),
(302,57,ls),
(268,57,o),
(243,61,o),
(243,87,cs),
(243,99,o),
(248,113,o),
(253,136,cs),
(351,600,ls),
(361,650,o),
(392,657,o),
(428,657,cs),
(439,657,l),
(451,714,l),
(129,714,l),
(117,657,l),
(127,657,ls),
(162,657,o),
(185,653,o),
(185,627,cs),
(185,621,o),
(184,610,o),
(179,589,cs),
(77,112,ls),
(67,64,o),
(36,57,o),
(3,57,cs),
(-7,57,l),
(-21,0,l)
);
}
);
width = 353;
},
{
anchors = (
{
name = bottom;
pos = (73,0);
},
{
name = center;
pos = (146,357);
},
{
name = ogonek;
pos = (93,1);
},
{
name = top;
pos = (225,714);
},
{
name = topright;
pos = (334,714);
}
);
layerId = "9563C917-11DF-412F-BB09-FC0C1CFFA48C";
shapes = (
{
closed = 1;
nodes = (
(163,0,l),
(167,20,l),
(144,20,ls),
(111,20,o),
(98,25,o),
(98,51,cs),
(98,64,o),
(101,82,o),
(107,108,cs),
(213,606,ls),
(229,683,o),
(238,694,o),
(288,694,cs),
(311,694,l),
(315,714,l),
(129,714,l),
(125,694,l),
(148,694,ls),
(181,694,o),
(194,689,o),
(194,663,cs),
(194,650,o),
(190,632,o),
(185,606,cs),
(79,108,ls),
(63,31,o),
(54,20,o),
(4,20,cs),
(-19,20,l),
(-23,0,l)
);
}
);
width = 264;
},
{
anchors = (
{
name = bottom;
pos = (105,0);
},
{
name = center;
pos = (176,357);
},
{
name = ogonek;
pos = (120,1);
},
{
name = top;
pos = (258,714);
},
{
name = topright;
pos = (399,714);
}
);
layerId = "A783126C-D342-49FA-8B69-0453AD03268C";
shapes = (
{
closed = 1;
nodes = (
(213,0,l),
(217,20,l),
(174,20,ls),
(141,20,o),
(128,25,o),
(128,51,cs),
(128,64,o),
(131,82,o),
(137,108,cs),
(243,606,ls),
(259,683,o),
(268,694,o),
(318,694,cs),
(361,694,l),
(365,714,l),
(139,714,l),
(135,694,l),
(178,694,ls),
(211,694,o),
(224,689,o),
(224,663,cs),
(224,650,o),
(220,632,o),
(215,606,cs),
(109,108,ls),
(93,31,o),
(84,20,o),
(34,20,cs),
(-9,20,l),
(-13,0,l)
);
}
);
width = 324;
},
{
anchors = (
{
name = bottom;
pos = (94,0);
},
{
name = center;
pos = (180,357);
},
{
name = ogonek;
pos = (159,1);
},
{
name = top;
pos = (246,714);
},
{
name = topright;
pos = (377,714);
}
);
layerId = "44BFC83C-08F8-422F-A73E-536514612562";
shapes = (
{
closed = 1;
nodes = (
(227,0,l),
(236,41,l),
(226,41,ls),
(193,41,o),
(169,47,o),
(169,79,cs),
(169,87,o),
(173,103,o),
(176,117,cs),
(279,600,l),
(291,664,o),
(323,673,o),
(359,673,cs),
(369,673,l),
(378,714,l),
(133,714,l),
(124,673,l),
(135,673,ls),
(168,673,o),
(191,667,o),
(191,635,cs),
(191,628,o),
(189,617,o),
(186,603,cs),
(83,114,l),
(70,50,o),
(37,41,o),
(2,41,cs),
(-8,41,l),
(-17,0,l)
);
}
);
width = 302;
}
);
script = latin;
subCategory = Uppercase;
unicode = 73;
}
{
category = Letter;
glyphname = J;
kernLeft = J;
kernRight = J;
layers = (
{
anchors = (
{
name = bottom;
pos = (-73,-240);
},
{
name = center;
pos = (130,237);
},
{
name = top;
pos = (274,714);
},
{
name = topright;
pos = (432,714);
}
);
layerId = UUID0;
shapes = (
{
closed = 1;
nodes = (
(63,-240,o),
(133,-166,o),
(167,-8,cs),
(297,600,ls),
(310,663,o),
(349,672,o),
(394,672,cs),
(407,672,l),
(416,714,l),
(125,714,l),
(116,672,l),
(129,672,ls),
(171,672,o),
(201,666,o),
(201,632,cs),
(201,626,o),
(199,612,o),
(197,604,cs),
(67,-9,ls),
(37,-151,o),
(-7,-193,o),
(-76,-193,cs),
(-96,-193,o),
(-124,-190,o),
(-141,-184,c),
(-155,-229,l),
(-131,-236,o),
(-109,-240,o),
(-73,-240,cs)
);
}
);
width = 357;
},
{
anchors = (
{
name = bottom;
pos = (-68,-240);
},
{
name = center;
pos = (176,237);
},
{
name = top;
pos = (312,714);
},
{
name = topright;
pos = (508,714);
}
);
layerId = "EFE4222C-09E4-4728-8E05-7459D7542305";
shapes = (
{
closed = 1;
nodes = (
(85,-240,o),
(232,-182,o),
(269,1,cs),
(394,600,ls),
(404,646,o),
(444,653,o),
(488,653,cs),
(501,653,l),
(513,714,l),
(128,714,l),
(116,653,l),
(129,653,ls),
(171,653,o),
(201,649,o),
(201,623,cs),
(201,619,o),
(199,610,o),
(197,604,cs),
(69,1,ls),
(38,-143,o),
(-12,-176,o),
(-81,-176,cs),
(-101,-176,o),
(-128,-172,o),
(-146,-167,c),
(-160,-229,l),
(-133,-236,o),
(-108,-240,o),
(-68,-240,cs)
);
}
);
width = 433;
},
{
anchors = (
{
name = bottom;
pos = (-65,-240);
},
{
name = center;
pos = (157,237);
},
{
name = top;
pos = (275,714);
},
{
name = topright;
pos = (435,714);
}
);
layerId = "081AFB27-5722-432A-9779-C9794386CEF1";
shapes = (
{
closed = 1;
nodes = (
(64,-240,o),
(189,-179,o),
(226,-1,cs),
(353,600,ls),
(363,650,o),
(396,657,o),
(432,657,cs),
(442,657,l),
(454,714,l),
(132,714,l),
(120,657,l),
(131,657,ls),
(164,657,o),
(188,653,o),
(188,627,cs),
(188,621,o),
(186,611,o),
(184,604,cs),
(57,-1,ls),
(26,-144,o),
(-17,-180,o),
(-74,-180,cs),
(-90,-180,o),
(-112,-176,o),
(-126,-171,c),
(-140,-229,l),
(-118,-236,o),
(-97,-240,o),
(-65,-240,cs)
);
}
);
width = 360;
},
{
anchors = (
{
name = bottom;
pos = (-66,-240);
},
{
name = center;
pos = (90,237);
},
{
name = top;
pos = (216,714);
},
{
name = topright;
pos = (315,714);
}
);
layerId = "9563C917-11DF-412F-BB09-FC0C1CFFA48C";
shapes = (
{
closed = 1;
nodes = (
(12,-240,o),
(41,-195,o),
(71,-50,cs),
(210,604,ls),
(228,689,o),
(235,694,o),
(285,694,cs),
(302,694,l),
(306,714,l),
(126,714,l),
(122,694,l),
(145,694,ls),
(185,694,o),
(191,689,o),
(191,663,cs),
(191,650,o),
(187,630,o),
(182,604,cs),
(43,-50,ls),
(16,-179,o),
(-9,-215,o),
(-63,-215,cs),
(-79,-215,o),
(-104,-211,o),
(-117,-205,c),
(-126,-229,l),
(-108,-236,o),
(-89,-240,o),
(-66,-240,cs)
);
}
);
width = 245;
},
{
anchors = (
{
name = bottom;
pos = (-65,-240);
},
{
name = center;
pos = (111,237);
},
{
name = top;
pos = (239,714);
},
{
name = topright;
pos = (368,714);
}
);
layerId = "A783126C-D342-49FA-8B69-0453AD03268C";
shapes = (
{
closed = 1;
nodes = (
(27,-240,o),
(65,-188,o),
(102,-16,cs),
(236,606,ls),
(253,683,o),
(261,694,o),
(311,694,cs),
(360,694,l),
(364,714,l),
(122,714,l),
(118,694,l),
(171,694,ls),
(204,694,o),
(217,689,o),
(217,663,cs),
(217,650,o),
(214,632,o),
(208,606,cs),
(74,-16,ls),
(41,-167,o),
(6,-215,o),
(-63,-215,cs),
(-83,-215,o),
(-117,-211,o),
(-134,-205,c),
(-142,-229,l),
(-118,-236,o),
(-96,-240,o),
(-65,-240,cs)
);
}
);
width = 309;
},
{
anchors = (
{
name = bottom;
pos = (-67,-240);
},
{
name = center;
pos = (120,237);
},
{
name = top;
pos = (243,714);
},
{
name = topright;
pos = (370,714);
}
);
layerId = "44BFC83C-08F8-422F-A73E-536514612562";
shapes = (
{
closed = 1;
nodes = (
(47,-240,o),
(111,-170,o),
(145,-8,cs),
(275,600,l),
(288,664,o),
(319,673,o),
(355,673,cs),
(365,673,l),
(375,714,l),
(131,714,l),
(121,673,l),
(132,673,ls),
(164,673,o),
(187,667,o),
(187,635,cs),
(187,628,o),
(185,613,o),
(183,604,cs),
(53,-10,l),
(23,-156,o),
(-14,-194,o),
(-70,-194,cs),
(-86,-194,o),
(-108,-191,o),
(-121,-185,c),
(-134,-229,l),
(-114,-236,o),
(-96,-240,o),
(-67,-240,cs)
);
}
);
width = 295;
}
);
script = latin;
subCategory = Uppercase;
unicode = 74;
}
{
category = Letter;
glyphname = K;
kernLeft = B;
kernRight = K;
layers = (
{
anchors = (
{
name = bottom;
pos = (293,0);
},
{
name = center;
pos = (369,357);
},
{
name = top;
pos = (445,714);
},
{
name = topright;
pos = (775,714);
}
);
layerId = UUID0;
shapes = (
{
closed = 1;
nodes = (
(270,0,l),
(279,42,l),
(266,42,ls),
(224,42,o),
(194,48,o),
(194,82,cs),
(194,88,o),
(196,102,o),
(198,110,cs),
(231,268,l),
(371,366,l),
(317,382,l),
(431,93,ls),
(458,23,o),
(491,0,o),
(611,0,cs),
(625,0,l),
(634,42,l),
(631,42,ls),
(586,42,o),
(558,68,o),
(536,122,cs),
(398,456,l),
(381,383,l),
(597,579,ls),
(661,637,o),
(705,673,o),
(751,673,c),
(759,714,l),
(538,714,l),
(530,673,l),
(563,673,o),
(574,668,o),
(574,651,cs),
(574,633,o),
(552,610,o),
(499,561,cs),
(241,324,l),
(302,600,ls),
(315,663,o),
(354,672,o),
(399,672,cs),
(412,672,l),
(421,714,l),
(130,714,l),
(121,672,l),
(134,672,ls),
(176,672,o),
(206,666,o),
(206,632,cs),
(206,626,o),
(204,612,o),
(202,604,cs),
(98,114,ls),
(84,51,o),
(45,42,o),
(0,42,cs),
(-13,42,l),
(-21,0,l)
);
}
);
width = 700;
},
{
anchors = (
{
name = bottom;
pos = (314,0);
},
{
name = center;
pos = (393,357);
},
{
name = top;
pos = (466,714);
},
{
name = topright;
pos = (816,714);
}
);
layerId = "0748FCBA-26BB-4096-A322-99C7EC440251";
shapes = (
{
closed = 1;
nodes = (
(321,0,l),
(332,53,l),
(319,53,ls),
(277,53,o),
(246,58,o),
(246,87,cs),
(246,92,o),
(249,103,o),
(250,110,c),
(287,287,l),
(404,370,l),
(330,370,l),
(420,138,ls),
(463,28,o),
(496,0,o),
(629,0,cs),
(681,0,l),
(691,53,l),
(688,53,ls),
(643,53,o),
(624,80,o),
(593,155,cs),
(462,470,l),
(423,389,l),
(638,579,ls),
(702,636,o),
(746,662,o),
(799,662,c),
(810,714,l),
(540,714,l),
(529,662,l),
(562,662,o),
(573,653,o),
(573,636,cs),
(573,618,o),
(560,590,o),
(506,542,cs),
(303,363,l),
(353,600,ls),
(364,653,o),
(404,661,o),
(448,661,cs),
(461,661,l),
(472,714,l),
(127,714,l),
(116,661,l),
(129,661,ls),
(171,661,o),
(201,656,o),
(201,627,cs),
(201,622,o),
(199,611,o),
(195,593,cs),
(93,113,ls),
(82,61,o),
(43,53,o),
(1,53,cs),
(-12,53,l),
(-23,0,l)
);
}
);
width = 741;
},
{
anchors = (
{
name = bottom;
pos = (329,0);
},
{
name = center;
pos = (411,357);
},
{
name = top;
pos = (481,714);
},
{
name = topright;
pos = (846,714);
}
);
layerId = "EFE4222C-09E4-4728-8E05-7459D7542305";
shapes = (
{
closed = 1;
nodes = (
(358,0,l),
(371,61,l),
(358,61,ls),
(316,61,o),
(284,65,o),
(284,91,cs),
(284,95,o),
(286,103,o),
(289,117,cs),
(328,301,l),
(428,373,l),
(339,361,l),
(411,171,ls),
(466,32,o),
(499,0,o),
(642,0,cs),
(722,0,l),
(733,61,l),
(730,61,ls),
(685,61,o),
(672,89,o),
(635,179,cs),
(509,480,l),
(453,393,l),
(668,579,ls),
(732,635,o),
(776,654,o),
(834,654,c),
(847,714,l),
(541,714,l),
(528,654,l),
(561,654,o),
(572,642,o),
(572,625,cs),
(572,607,o),
(565,575,o),
(511,528,cs),
(348,392,l),
(390,600,ls),
(399,646,o),
(435,653,o),
(474,653,cs),
(487,653,l),
(499,714,l),
(124,714,l),
(112,653,l),
(125,653,ls),
(167,653,o),
(197,649,o),
(197,623,cs),
(197,619,o),
(195,610,o),
(189,585,cs),
(89,112,ls),
(80,68,o),
(41,61,o),
(1,61,cs),
(-12,61,l),
(-25,0,l)
);
}
);
width = 771;
},
{
anchors = (
{
name = bottom;
pos = (261,0);
},
{
name = center;
pos = (353,357);
},
{
name = top;
pos = (413,714);
},
{
name = topright;
pos = (710,714);
}
);
layerId = "081AFB27-5722-432A-9779-C9794386CEF1";
shapes = (
{
closed = 1;
nodes = (
(300,0,l),
(313,57,l),
(302,57,ls),
(268,57,o),
(243,61,o),
(243,87,cs),
(243,93,o),
(245,102,o),
(248,115,cs),
(287,294,l),
(369,371,l),
(293,366,l),
(345,172,ls),
(382,34,o),
(412,0,o),
(527,0,cs),
(597,0,l),
(609,57,l),
(606,57,ls),
(570,57,o),
(559,85,o),
(535,166,cs),
(443,475,l),
(391,391,l),
(574,579,ls),
(628,635,o),
(665,658,o),
(713,658,c),
(727,714,l),
(470,714,l),
(456,658,l),
(483,658,o),
(491,648,o),
(491,632,cs),
(491,611,o),
(487,581,o),
(441,529,cs),
(308,377,l),
(349,600,ls),
(359,650,o),
(388,657,o),
(419,657,cs),
(429,657,l),
(442,714,l),
(129,714,l),
(117,657,l),
(127,657,ls),
(161,657,o),
(185,653,o),
(185,627,cs),
(185,621,o),
(182,612,o),
(178,589,cs),
(77,112,ls),
(67,64,o),
(35,57,o),
(3,57,cs),
(-7,57,l),
(-21,0,l)
);
}
);
width = 635;
},
{
anchors = (
{
name = bottom;
pos = (200,0);
},
{
name = center;
pos = (279,357);
},
{
name = top;
pos = (352,714);
},
{
name = topright;
pos = (589,714);
}
);
layerId = "9563C917-11DF-412F-BB09-FC0C1CFFA48C";
shapes = (
{
closed = 1;
nodes = (
(163,0,l),
(167,20,l),
(144,20,ls),
(111,20,o),
(98,25,o),
(98,51,cs),
(98,64,o),
(101,82,o),
(107,108,cs),
(139,259,l),
(262,387,l),
(251,384,l),
(337,82,ls),
(354,21,o),
(378,0,o),
(440,0,cs),
(450,0,l),
(455,20,l),
(443,20,ls),
(397,20,o),
(377,44,o),
(364,90,cs),
(271,408,l),
(267,391,l),
(485,622,ls),
(550,691,o),
(555,694,o),
(577,694,c),
(581,714,l),
(448,714,l),
(444,694,l),
(482,694,o),
(488,691,o),
(488,679,cs),
(488,666,o),
(479,651,o),
(452,622,cs),
(148,303,l),
(213,606,ls),
(229,683,o),
(238,694,o),
(288,694,cs),
(311,694,l),
(315,714,l),
(129,714,l),
(125,694,l),
(148,694,ls),
(181,694,o),
(194,689,o),
(194,663,cs),
(194,650,o),
(190,632,o),
(185,606,cs),
(79,108,ls),
(63,31,o),
(54,20,o),
(4,20,cs),
(-19,20,l),
(-23,0,l)
);
}
);
width = 514;
},
{
anchors = (
{
name = bottom;
pos = (267,0);
},
{
name = center;
pos = (349,357);
},
{
name = top;
pos = (419,714);
},
{
name = topright;
pos = (722,714);
}
);
layerId = "A783126C-D342-49FA-8B69-0453AD03268C";
shapes = (
{
closed = 1;
nodes = (
(213,0,l),
(217,20,l),
(174,20,ls),
(141,20,o),
(128,25,o),
(128,51,cs),
(128,64,o),
(131,82,o),
(137,108,cs),
(168,251,l),
(324,387,l),
(316,387,l),
(450,70,ls),
(471,22,o),
(499,0,o),
(548,0,cs),
(576,0,l),
(582,25,l),
(556,25,ls),
(519,25,o),
(495,39,o),
(477,79,cs),
(337,407,l),
(329,392,l),
(560,596,ls),
(668,691,o),
(672,694,o),
(706,694,c),
(711,714,l),
(548,714,l),
(543,694,l),
(598,694,o),
(605,693,o),
(605,683,cs),
(605,673,o),
(602,667,o),
(542,614,cs),
(176,291,l),
(243,606,ls),
(259,683,o),
(268,694,o),
(318,694,cs),
(361,694,l),
(365,714,l),
(139,714,l),
(135,694,l),
(178,694,ls),
(211,694,o),
(224,689,o),
(224,663,cs),
(224,650,o),
(220,632,o),
(215,606,cs),
(109,108,ls),
(93,31,o),
(84,20,o),
(34,20,cs),
(-9,20,l),
(-13,0,l)
);
}
);
width = 647;
},
{
anchors = (
{
name = bottom;
pos = (228,0);
},
{
name = center;
pos = (316,357);
},
{
name = top;
pos = (380,714);
},
{
name = topright;
pos = (644,714);
}
);
layerId = "44BFC83C-08F8-422F-A73E-536514612562";
shapes = (
{
closed = 1;
nodes = (
(227,0,l),
(236,41,l),
(226,41,ls),
(193,41,o),
(169,47,o),
(169,79,cs),
(169,86,o),
(172,101,o),
(174,111,cs),
(206,258,l),
(319,371,l),
(274,376,l),
(346,123,l),
(369,35,o),
(389,0,o),
(485,0,cs),
(514,0,l),
(524,41,l),
(521,41,ls),
(484,41,o),
(464,65,o),
(448,118,cs),
(352,438,l),
(330,383,l),
(511,579,ls),
(564,637,o),
(602,674,o),
(640,674,c),
(649,714,l),
(461,714,l),
(453,674,l),
(479,674,o),
(487,670,o),
(487,654,cs),
(487,634,o),
(471,610,o),
(426,558,c),
(220,319,l),
(277,600,l),
(291,664,o),
(321,673,o),
(356,673,cs),
(366,673,l),
(376,714,l),
(133,714,l),
(124,673,l),
(135,673,ls),
(168,673,o),
(191,667,o),
(191,635,cs),
(191,628,o),
(190,620,o),
(186,601,cs),
(83,114,ls),
(69,50,o),
(37,41,o),
(2,41,cs),
(-8,41,l),
(-17,0,l)
);
}
);
width = 569;
},
{
anchors = (
{
name = bottom;
pos = (247,0);
},
{
name = center;
pos = (337,357);
},
{
name = top;
pos = (399,714);
},
{
name = topright;
pos = (681,714);
}
);
layerId = "50C02CB6-129D-4BF7-ADB7-784B68302109";
shapes = (
{
closed = 1;
nodes = (
(268,0,l),
(280,50,l),
(269,50,ls),
(236,50,o),
(211,55,o),
(211,84,cs),
(211,90,o),
(213,101,o),
(216,113,cs),
(252,278,l),
(347,371,l),
(285,370,l),
(345,151,l),
(376,35,o),
(402,0,o),
(509,0,cs),
(561,0,l),
(572,50,l),
(569,50,ls),
(533,50,o),
(518,76,o),
(497,145,cs),
(404,459,l),
(365,388,l),
(547,579,ls),
(600,636,o),
(638,665,o),
(681,665,c),
(693,714,l),
(466,714,l),
(455,665,l),
(481,665,o),
(489,658,o),
(489,642,cs),
(489,621,o),
(480,593,o),
(434,542,c),
(270,352,l),
(318,600,l),
(329,656,o),
(359,664,o),
(392,664,cs),
(402,664,l),
(413,714,l),
(131,714,l),
(120,664,l),
(130,664,ls),
(164,664,o),
(188,659,o),
(188,630,cs),
(188,624,o),
(185,615,o),
(181,594,cs),
(80,113,ls),
(68,58,o),
(36,50,o),
(3,50,cs),
(-8,50,l),
(-19,0,l)
);
}
);
width = 606;
}
);
script = latin;
subCategory = Uppercase;
unicode = 75;
}
{
category = Letter;
glyphname = N;
kernLeft = B;
kernRight = N;
layers = (
{
anchors = (
{
name = bottom;
pos = (325,0);
},
{
name = center;
pos = (403,357);
},
{
name = top;
pos = (477,714);
},
{
name = topright;
pos = (838,714);
}
);
layerId = UUID0;
shapes = (
{
closed = 1;
nodes = (
(230,0,l),
(239,42,l),
(226,42,ls),
(184,42,o),
(154,48,o),
(154,82,cs),
(154,88,o),
(156,102,o),
(158,110,cs),
(259,586,l),
(516,0,l),
(581,0,l),
(708,600,ls),
(722,663,o),
(760,672,o),
(805,672,cs),
(818,672,l),
(827,714,l),
(576,714,l),
(567,672,l),
(580,672,ls),
(622,672,o),
(652,666,o),
(652,632,cs),
(652,626,o),
(650,612,o),
(648,604,c),
(554,162,l),
(312,714,l),
(130,714,l),
(121,672,l),
(134,672,ls),
(176,672,o),
(206,666,o),
(206,632,cs),
(206,626,o),
(204,612,o),
(202,604,c),
(98,114,l),
(84,51,o),
(46,42,o),
(2,42,cs),
(-11,42,l),
(-20,0,l)
);
}
);
width = 763;
},
{
anchors = (
{
name = bottom;
pos = (346,0);
},
{
name = center;
pos = (437,357);
},
{
name = top;
pos = (498,714);
},
{
name = topright;
pos = (881,714);
}
);
layerId = "EFE4222C-09E4-4728-8E05-7459D7542305";
shapes = (
{
closed = 1;
nodes = (
(228,0,l),
(241,61,l),
(235,61,ls),
(203,61,o),
(171,65,o),
(171,91,cs),
(171,95,o),
(173,104,o),
(177,124,cs),
(266,551,l),
(547,0,l),
(659,0,l),
(786,602,ls),
(795,646,o),
(834,653,o),
(874,653,cs),
(887,653,l),
(900,714,l),
(647,714,l),
(635,653,l),
(641,653,ls),
(673,653,o),
(704,649,o),
(704,623,cs),
(704,616,o),
(701,602,o),
(698,590,cs),
(622,230,l),
(376,714,l),
(125,714,l),
(112,653,l),
(125,653,ls),
(167,653,o),
(197,649,o),
(197,623,cs),
(197,616,o),
(194,605,o),
(190,585,cs),
(89,112,ls),
(80,68,o),
(41,61,o),
(0,61,cs),
(-13,61,l),
(-25,0,l)
);
}
);
width = 806;
},
{
anchors = (
{
name = bottom;
pos = (274,0);
},
{
name = center;
pos = (373,357);
},
{
name = top;
pos = (426,714);
},
{
name = topright;
pos = (736,714);
}
);
layerId = "081AFB27-5722-432A-9779-C9794386CEF1";
shapes = (
{
closed = 1;
nodes = (
(186,0,l),
(199,57,l),
(195,57,ls),
(170,57,o),
(144,61,o),
(144,87,cs),
(144,93,o),
(146,103,o),
(150,121,cs),
(239,559,l),
(449,0,l),
(545,0,l),
(671,602,ls),
(681,650,o),
(712,657,o),
(745,657,cs),
(755,657,l),
(768,714,l),
(561,714,l),
(549,657,l),
(554,657,ls),
(578,657,o),
(603,653,o),
(603,627,cs),
(603,619,o),
(600,605,o),
(597,593,cs),
(521,215,l),
(340,714,l),
(129,714,l),
(116,657,l),
(127,657,ls),
(161,657,o),
(184,653,o),
(184,627,cs),
(184,619,o),
(181,607,o),
(177,589,cs),
(77,112,ls),
(67,64,o),
(35,57,o),
(2,57,cs),
(-9,57,l),
(-21,0,l)
);
}
);
width = 661;
},
{
anchors = (
{
name = bottom;
pos = (232,0);
},
{
name = center;
pos = (310,357);
},
{
name = top;
pos = (384,714);
},
{
name = topright;
pos = (652,714);
}
);
layerId = "9563C917-11DF-412F-BB09-FC0C1CFFA48C";
shapes = (
{
closed = 1;
nodes = (
(163,0,l),
(167,20,l),
(144,20,ls),
(111,20,o),
(98,25,o),
(98,51,cs),
(98,64,o),
(101,82,o),
(107,108,cs),
(225,661,l),
(392,0,l),
(413,0,l),
(542,606,ls),
(558,683,o),
(567,694,o),
(617,694,cs),
(640,694,l),
(644,714,l),
(458,714,l),
(454,694,l),
(477,694,ls),
(510,694,o),
(523,689,o),
(523,663,cs),
(523,650,o),
(520,632,o),
(514,606,cs),
(402,80,l),
(241,714,l),
(129,714,l),
(125,694,l),
(148,694,ls),
(186,694,o),
(194,689,o),
(194,663,cs),
(194,650,o),
(190,632,o),
(185,606,cs),
(79,108,ls),
(63,31,o),
(54,20,o),
(4,20,cs),
(-19,20,l),
(-23,0,l)
);
}
);
width = 583;
},
{
anchors = (
{
name = bottom;
pos = (309,0);
},
{
name = center;
pos = (378,357);
},
{
name = top;
pos = (461,714);
},
{
name = topright;
pos = (806,714);
}
);
layerId = "A783126C-D342-49FA-8B69-0453AD03268C";
shapes = (
{
closed = 1;
nodes = (
(215,0,l),
(219,20,l),
(174,20,ls),
(141,20,o),
(128,25,o),
(128,51,cs),
(128,64,o),
(131,82,o),
(137,108,cs),
(255,664,l),
(492,0,l),
(519,0,l),
(648,606,ls),
(664,683,o),
(673,694,o),
(723,694,cs),
(766,694,l),
(770,714,l),
(542,714,l),
(538,694,l),
(583,694,ls),
(616,694,o),
(629,689,o),
(629,663,cs),
(629,650,o),
(626,632,o),
(620,606,cs),
(502,53,l),
(265,714,l),
(139,714,l),
(135,694,l),
(178,694,ls),
(211,694,o),
(224,689,o),
(224,663,cs),
(224,650,o),
(220,632,o),
(215,606,cs),
(109,108,ls),
(93,31,o),
(84,20,o),
(34,20,cs),
(-9,20,l),
(-13,0,l)
);
}
);
width = 721;
},
{
anchors = (
{
name = bottom;
pos = (251,0);
},
{
name = center;
pos = (342,357);
},
{
name = top;
pos = (403,714);
},
{
name = topright;
pos = (691,714);
}
);
layerId = "44BFC83C-08F8-422F-A73E-536514612562";
shapes = (
{
closed = 1;
nodes = (
(183,0,l),
(192,41,l),
(183,41,ls),
(152,41,o),
(129,47,o),
(129,79,cs),
(129,86,o),
(131,96,o),
(134,114,cs),
(235,601,l),
(418,0,l),
(475,0,l),
(602,600,l),
(615,664,o),
(646,673,o),
(681,673,cs),
(692,673,l),
(702,714,l),
(500,714,l),
(491,673,l),
(501,673,ls),
(532,673,o),
(556,667,o),
(556,635,cs),
(556,628,o),
(553,615,o),
(551,605,cs),
(457,145,l),
(287,714,l),
(133,714,l),
(124,673,l),
(135,673,ls),
(168,673,o),
(191,667,o),
(191,635,cs),
(191,627,o),
(189,618,o),
(187,605,cs),
(83,114,l),
(68,50,o),
(38,41,o),
(3,41,cs),
(-8,41,l),
(-17,0,l)
);
}
);
width = 616;
}
);
script = latin;
subCategory = Uppercase;
unicode = 78;
}
{
category = Letter;
glyphname = O;
kernLeft = O;
kernRight = O;
layers = (
{
anchors = (
{
name = bottom;
pos = (314,0);
},
{
name = center;
pos = (409,357);
},
{
name = top;
pos = (466,714);
},
{
name = topright;
pos = (817,714);
}
);
layerId = UUID0;
shapes = (
{
closed = 1;
nodes = (
(582,-11,o),
(711,266,o),
(711,450,cs),
(711,641,o),
(590,725,o),
(452,725,cs),
(187,725,o),
(52,458,o),
(52,266,cs),
(52,85,o),
(166,-11,o),
(314,-11,cs)
);
},
{
closed = 1;
nodes = (
(231,44,o),
(161,102,o),
(161,238,cs),
(161,400,o),
(250,671,o),
(444,671,cs),
(535,671,o),
(601,612,o),
(601,477,cs),
(601,315,o),
(514,44,o),
(320,44,cs)
);
}
);
width = 742;
},
{
anchors = (
{
name = bottom;
pos = (358,0);
},
{
name = center;
pos = (453,357);
},
{
name = top;
pos = (510,714);
},
{
name = topright;
pos = (904,714);
}
);
layerId = "EFE4222C-09E4-4728-8E05-7459D7542305";
shapes = (
{
closed = 1;
nodes = (
(662,-11,o),
(805,266,o),
(805,450,cs),
(805,641,o),
(670,725,o),
(516,725,cs),
(222,725,o),
(71,458,o),
(71,266,cs),
(71,85,o),
(197,-11,o),
(363,-11,cs)
);
},
{
closed = 1;
nodes = (
(327,63,o),
(274,118,o),
(274,245,cs),
(274,398,o),
(340,652,o),
(486,652,cs),
(554,652,o),
(605,596,o),
(605,470,cs),
(605,317,o),
(538,63,o),
(393,63,cs)
);
}
);
width = 829;
},
{
anchors = (
{
name = bottom;
pos = (285,0);
},
{
name = center;
pos = (380,357);
},
{
name = top;
pos = (437,714);
},
{
name = topright;
pos = (759,714);
}
);
layerId = "081AFB27-5722-432A-9779-C9794386CEF1";
shapes = (
{
closed = 1;
nodes = (
(557,-11,o),
(686,280,o),
(686,466,cs),
(686,645,o),
(580,725,o),
(454,725,cs),
(205,725,o),
(69,445,o),
(69,250,cs),
(69,80,o),
(168,-11,o),
(300,-11,cs)
);
},
{
closed = 1;
nodes = (
(280,59,o),
(242,109,o),
(242,224,cs),
(242,374,o),
(305,656,o),
(425,656,cs),
(479,656,o),
(513,605,o),
(513,491,cs),
(513,341,o),
(452,59,o),
(329,59,cs)
);
}
);
width = 684;
},
{
anchors = (
{
name = bottom;
pos = (212,0);
},
{
name = center;
pos = (307,357);
},
{
name = top;
pos = (364,714);
},
{
name = topright;
pos = (612,714);
}
);
layerId = "9563C917-11DF-412F-BB09-FC0C1CFFA48C";
shapes = (
{
closed = 1;
nodes = (
(439,-11,o),
(526,303,o),
(526,486,cs),
(526,661,o),
(438,724,o),
(344,724,cs),
(144,724,o),
(45,426,o),
(45,230,cs),
(45,62,o),
(128,-11,o),
(229,-11,cs)
);
},
{
closed = 1;
nodes = (
(148,14,o),
(73,80,o),
(73,230,cs),
(73,408,o),
(164,699,o),
(344,699,cs),
(425,699,o),
(498,638,o),
(498,486,cs),
(498,318,o),
(414,14,o),
(228,14,cs)
);
}
);
width = 537;
},
{
anchors = (
{
name = bottom;
pos = (295,0);
},
{
name = center;
pos = (390,357);
},
{
name = top;
pos = (447,714);
},
{
name = topright;
pos = (765,714);
}
);
layerId = "A783126C-D342-49FA-8B69-0453AD03268C";
shapes = (
{
closed = 1;
nodes = (
(542,-11,o),
(661,266,o),
(661,450,cs),
(661,641,o),
(550,725,o),
(424,725,cs),
(180,725,o),
(57,458,o),
(57,266,cs),
(57,85,o),
(162,-11,o),
(297,-11,cs)
);
},
{
closed = 1;
nodes = (
(185,14,o),
(85,88,o),
(85,266,cs),
(85,444,o),
(202,700,o),
(417,700,cs),
(537,700,o),
(633,628,o),
(633,449,cs),
(633,274,o),
(518,14,o),
(300,14,cs)
);
}
);
width = 689;
},
{
anchors = (
{
name = bottom;
pos = (246,0);
},
{
name = center;
pos = (341,357);
},
{
name = top;
pos = (398,714);
},
{
name = topright;
pos = (679,714);
}
);
layerId = "44BFC83C-08F8-422F-A73E-536514612562";
shapes = (
{
closed = 1;
nodes = (
(483,-11,o),
(601,282,o),
(601,470,cs),
(601,646,o),
(508,725,o),
(400,725,cs),
(177,725,o),
(54,443,o),
(54,247,cs),
(54,79,o),
(141,-11,o),
(256,-11,cs)
);
},
{
closed = 1;
nodes = (
(201,43,o),
(152,96,o),
(152,220,cs),
(152,379,o),
(233,672,o),
(388,672,cs),
(456,672,o),
(502,617,o),
(502,495,cs),
(502,335,o),
(423,43,o),
(266,43,cs)
);
}
);
width = 604;
}
);
script = latin;
subCategory = Uppercase;
unicode = 79;
}
{
category = Letter;
glyphname = P;
kernLeft = B;
kernRight = P;
layers = (
{
anchors = (
{
name = bottom;
pos = (128,0);
},
{
name = center;
pos = (297,357);
},
{
name = top;
pos = (405,714);
},
{
name = topright;
pos = (695,714);
}
);
layerId = UUID0;
shapes = (
{
closed = 1;
nodes = (
(290,0,l),
(299,42,l),
(266,42,ls),
(224,42,o),
(194,48,o),
(194,82,cs),
(194,88,o),
(196,102,o),
(198,110,cs),
(234,278,l),
(308,278,ls),
(565,278,o),
(614,420,o),
(614,521,cs),
(614,648,o),
(526,714,o),
(386,714,c),
(130,714,l),
(121,672,l),
(134,672,ls),
(176,672,o),
(206,666,o),
(206,632,cs),
(206,626,o),
(204,612,o),
(202,604,cs),
(98,114,ls),
(85,51,o),
(46,42,o),
(2,42,cs),
(-11,42,l),
(-20,0,l)
);
},
{
closed = 1;
nodes = (
(244,325,l),
(316,666,l),
(362,666,ls),
(457,666,o),
(508,625,o),
(508,520,cs),
(508,406,o),
(452,325,o),
(297,325,cs)
);
}
);
width = 620;
},
{
anchors = (
{
name = bottom;
pos = (152,0);
},
{
name = center;
pos = (322,357);
},
{
name = top;
pos = (427,714);
},
{
name = topright;
pos = (738,714);
}
);
layerId = "0748FCBA-26BB-4096-A322-99C7EC440251";
shapes = (
{
closed = 1;
nodes = (
(341,0,l),
(352,53,l),
(319,53,ls),
(277,53,o),
(246,58,o),
(246,87,cs),
(246,92,o),
(248,103,o),
(250,110,cs),
(286,273,l),
(362,273,ls),
(619,273,o),
(668,417,o),
(668,519,cs),
(668,647,o),
(570,714,o),
(413,714,cs),
(127,714,l),
(116,661,l),
(129,661,ls),
(171,661,o),
(201,656,o),
(201,627,cs),
(201,622,o),
(199,611,o),
(195,593,cs),
(93,113,ls),
(82,61,o),
(43,53,o),
(1,53,cs),
(-12,53,l),
(-23,0,l)
);
},
{
closed = 1;
nodes = (
(298,331,l),
(368,655,l),
(390,655,ls),
(457,655,o),
(505,616,o),
(505,516,cs),
(505,408,o),
(461,331,o),
(340,331,cs)
);
}
);
width = 663;
},
{
anchors = (
{
name = bottom;
pos = (163,0);
},
{
name = center;
pos = (341,357);
},
{
name = top;
pos = (443,714);
},
{
name = topright;
pos = (770,714);
}
);
layerId = "EFE4222C-09E4-4728-8E05-7459D7542305";
shapes = (
{
closed = 1;
nodes = (
(378,0,l),
(391,61,l),
(358,61,ls),
(316,61,o),
(284,65,o),
(284,91,cs),
(284,98,o),
(287,109,o),
(291,127,cs),
(324,269,l),
(402,269,ls),
(659,269,o),
(708,415,o),
(708,518,cs),
(708,646,o),
(602,714,o),
(433,714,cs),
(125,714,l),
(112,653,l),
(125,653,ls),
(167,653,o),
(197,649,o),
(197,623,cs),
(197,616,o),
(195,607,o),
(190,585,cs),
(89,112,ls),
(80,68,o),
(41,61,o),
(0,61,cs),
(-13,61,l),
(-25,0,l)
);
},
{
closed = 1;
nodes = (
(338,335,l),
(407,647,l),
(421,647,ls),
(462,647,o),
(503,609,o),
(503,513,cs),
(503,409,o),
(468,335,o),
(372,335,cs)
);
}
);
width = 695;
},
{
anchors = (
{
name = bottom;
pos = (142,0);
},
{
name = center;
pos = (292,357);
},
{
name = top;
pos = (382,714);
},
{
name = topright;
pos = (648,714);
}
);
layerId = "081AFB27-5722-432A-9779-C9794386CEF1";
shapes = (
{
closed = 1;
nodes = (
(315,0,l),
(329,57,l),
(302,57,ls),
(268,57,o),
(242,61,o),
(242,87,cs),
(242,95,o),
(246,107,o),
(250,123,cs),
(283,271,l),
(346,271,ls),
(512,271,o),
(606,384,o),
(606,528,cs),
(606,650,o),
(521,714,o),
(385,714,cs),
(129,714,l),
(116,657,l),
(127,657,ls),
(161,657,o),
(184,653,o),
(184,627,cs),
(184,620,o),
(182,610,o),
(177,589,cs),
(77,112,ls),
(67,64,o),
(35,57,o),
(2,57,cs),
(-9,57,l),
(-21,0,l)
);
},
{
closed = 1;
nodes = (
(296,333,l),
(365,651,l),
(374,651,ls),
(402,651,o),
(430,629,o),
(430,542,cs),
(430,433,o),
(392,333,o),
(323,333,cs)
);
}
);
width = 573;
},
{
anchors = (
{
name = bottom;
pos = (74,0);
},
{
name = center;
pos = (218,357);
},
{
name = top;
pos = (320,714);
},
{
name = topright;
pos = (524,714);
}
);
layerId = "9563C917-11DF-412F-BB09-FC0C1CFFA48C";
shapes = (
{
closed = 1;
nodes = (
(177,0,l),
(181,20,l),
(144,20,ls),
(111,20,o),
(98,25,o),
(98,51,cs),
(98,64,o),
(102,82,o),
(107,108,cs),
(144,284,l),
(196,284,ls),
(382,284,o),
(459,408,o),
(459,551,cs),
(459,669,o),
(388,714,o),
(287,714,cs),
(129,714,l),
(125,694,l),
(148,694,ls),
(186,694,o),
(194,689,o),
(194,663,cs),
(194,650,o),
(190,632,o),
(185,606,cs),
(79,108,ls),
(63,31,o),
(54,20,o),
(4,20,cs),
(-19,20,l),
(-23,0,l)
);
},
{
closed = 1;
nodes = (
(150,309,l),
(231,689,l),
(283,689,ls),
(379,689,o),
(431,649,o),
(431,550,cs),
(431,421,o),
(364,309,o),
(198,309,cs)
);
}
);
width = 449;
},
{
anchors = (
{
name = bottom;
pos = (101,0);
},
{
name = center;
pos = (267,357);
},
{
name = top;
pos = (379,714);
},
{
name = topright;
pos = (640,714);
}
);
layerId = "A783126C-D342-49FA-8B69-0453AD03268C";
shapes = (
{
closed = 1;
nodes = (
(228,0,l),
(232,20,l),
(173,20,ls),
(140,20,o),
(127,25,o),
(127,51,cs),
(127,64,o),
(130,82,o),
(136,108,cs),
(174,287,l),
(239,287,ls),
(498,287,o),
(547,424,o),
(547,523,cs),
(547,650,o),
(471,714,o),
(345,714,cs),
(140,714,l),
(135,694,l),
(170,694,ls),
(216,694,o),
(223,690,o),
(223,665,cs),
(223,650,o),
(217,618,o),
(208,576,cs),
(108,108,ls),
(91,31,o),
(83,20,o),
(33,20,cs),
(-9,20,l),
(-13,0,l)
);
},
{
closed = 1;
nodes = (
(180,312,l),
(260,689,l),
(341,689,ls),
(459,689,o),
(519,630,o),
(519,523,cs),
(519,405,o),
(442,312,o),
(242,312,cs)
);
}
);
width = 555;
},
{
anchors = (
{
name = bottom;
pos = (113,0);
},
{
name = center;
pos = (254,357);
},
{
name = top;
pos = (348,714);
},
{
name = topright;
pos = (581,714);
}
);
layerId = "44BFC83C-08F8-422F-A73E-536514612562";
shapes = (
{
closed = 1;
nodes = (
(240,0,l),
(250,41,l),
(225,41,ls),
(193,41,o),
(170,47,o),
(170,79,cs),
(170,86,o),
(172,102,o),
(175,114,cs),
(210,278,l),
(270,278,ls),
(446,278,o),
(526,392,o),
(526,532,cs),
(526,652,o),
(457,714,o),
(345,714,cs),
(133,714,l),
(124,673,l),
(135,673,ls),
(168,673,o),
(191,667,o),
(191,635,cs),
(191,628,o),
(189,617,o),
(187,605,cs),
(83,114,ls),
(69,50,o),
(38,41,o),
(3,41,cs),
(-8,41,l),
(-17,0,l)
);
},
{
closed = 1;
nodes = (
(221,324,l),
(293,667,l),
(327,667,ls),
(393,667,o),
(429,632,o),
(429,538,cs),
(429,420,o),
(383,324,o),
(261,324,cs)
);
}
);
width = 506;
},
{
anchors = (
{
name = bottom;
pos = (130,0);
},
{
name = center;
pos = (276,357);
},
{
name = top;
pos = (367,714);
},
{
name = topright;
pos = (619,714);
}
);
layerId = "50C02CB6-129D-4BF7-ADB7-784B68302109";
shapes = (
{
closed = 1;
nodes = (
(283,0,l),
(295,50,l),
(269,50,ls),
(235,50,o),
(211,55,o),
(211,84,cs),
(211,91,o),
(214,105,o),
(217,119,cs),
(251,274,l),
(313,274,ls),
(483,274,o),
(571,387,o),
(571,530,cs),
(571,651,o),
(493,714,o),
(368,714,cs),
(131,714,l),
(119,664,l),
(130,664,ls),
(164,664,o),
(187,659,o),
(187,630,cs),
(187,623,o),
(185,613,o),
(181,596,cs),
(80,113,ls),
(68,58,o),
(36,50,o),
(3,50,cs),
(-8,50,l),
(-19,0,l)
);
},
{
closed = 1;
nodes = (
(263,329,l),
(334,658,l),
(354,658,ls),
(398,658,o),
(430,630,o),
(430,540,cs),
(430,427,o),
(388,329,o),
(296,329,cs)
);
}
);
width = 544;
}
);
script = latin;
subCategory = Uppercase;
unicode = 80;
}
{
category = Letter;
glyphname = Q;
kernLeft = O;
kernRight = O;
layers = (
{
anchors = (
{
name = bottom;
pos = (266,-226);
},
{
name = center;
pos = (381,249);
},
{
name = top;
pos = (466,714);
},
{
name = topright;
pos = (817,714);
}
);
layerId = UUID0;
shapes = (
{
closed = 1;
nodes = (
(498,-226,o),
(525,-218,o),
(550,-210,c),
(543,-168,l),
(524,-173,o),
(503,-177,o),
(475,-177,cs),
(408,-177,o),
(373,-130,o),
(367,-7,c),
(599,27,o),
(711,278,o),
(711,450,cs),
(711,641,o),
(590,725,o),
(452,725,cs),
(187,725,o),
(52,458,o),
(52,266,cs),
(52,108,o),
(139,14,o),
(259,-6,c),
(264,-130,o),
(307,-226,o),
(451,-226,cs)
);
},
{
closed = 1;
nodes = (
(231,44,o),
(161,102,o),
(161,238,cs),
(161,400,o),
(250,671,o),
(444,671,cs),
(535,671,o),
(601,612,o),
(601,477,cs),
(601,315,o),
(514,44,o),
(320,44,cs)
);
}
);
width = 742;
},
{
anchors = (
{
name = bottom;
pos = (302,-240);
},
{
name = center;
pos = (436,242);
},
{
name = top;
pos = (505,714);
},
{
name = topright;
pos = (895,714);
}
);
layerId = "EFE4222C-09E4-4728-8E05-7459D7542305";
shapes = (
{
closed = 1;
nodes = (
(538,-240,o),
(563,-238,o),
(605,-222,c),
(595,-174,l),
(589,-175,o),
(584,-176,o),
(578,-176,cs),
(540,-176,o),
(494,-151,o),
(486,5,c),
(699,72,o),
(803,294,o),
(803,450,cs),
(803,641,o),
(668,725,o),
(514,725,cs),
(220,725,o),
(69,458,o),
(69,266,cs),
(69,118,o),
(153,28,o),
(274,-1,c),
(283,-195,o),
(402,-240,o),
(504,-240,cs)
);
},
{
closed = 1;
nodes = (
(325,63,o),
(272,118,o),
(272,245,cs),
(272,398,o),
(338,652,o),
(484,652,cs),
(552,652,o),
(603,596,o),
(603,470,cs),
(603,317,o),
(536,63,o),
(391,63,cs)
);
}
);
width = 820;
},
{
anchors = (
{
name = bottom;
pos = (231,-237);
},
{
name = center;
pos = (376,244);
},
{
name = top;
pos = (433,714);
},
{
name = topright;
pos = (751,714);
}
);
layerId = "081AFB27-5722-432A-9779-C9794386CEF1";
shapes = (
{
closed = 1;
nodes = (
(433,-237,o),
(454,-234,o),
(490,-219,c),
(483,-173,l),
(479,-175,o),
(476,-176,o),
(473,-176,cs),
(445,-176,o),
(408,-146,o),
(407,2,c),
(590,65,o),
(684,304,o),
(684,466,cs),
(684,645,o),
(579,725,o),
(453,725,cs),
(204,725,o),
(68,445,o),
(68,249,cs),
(68,110,o),
(131,24,o),
(225,-2,c),
(226,-181,o),
(327,-237,o),
(407,-237,cs)
);
},
{
closed = 1;
nodes = (
(278,59,o),
(240,109,o),
(240,224,cs),
(240,374,o),
(303,656,o),
(424,656,cs),
(477,656,o),
(511,605,o),
(511,491,cs),
(511,341,o),
(450,59,o),
(327,59,cs)
);
}
);
width = 676;
},
{
anchors = (
{
name = bottom;
pos = (157,-209);
},
{
name = center;
pos = (285,258);
},
{
name = top;
pos = (353,714);
},
{
name = topright;
pos = (571,714);
}
);
layerId = "9563C917-11DF-412F-BB09-FC0C1CFFA48C";
shapes = (
{
closed = 1;
nodes = (
(351,-209,o),
(379,-201,o),
(397,-193,c),
(394,-168,l),
(369,-178,o),
(343,-184,o),
(309,-184,cs),
(246,-184,o),
(226,-133,o),
(223,-11,c),
(430,-7,o),
(529,304,o),
(529,486,cs),
(529,661,o),
(448,725,o),
(354,725,cs),
(154,725,o),
(42,426,o),
(42,230,cs),
(42,76,o),
(106,1,o),
(195,-10,c),
(198,-162,o),
(227,-209,o),
(309,-209,cs)
);
},
{
closed = 1;
nodes = (
(139,14,o),
(70,80,o),
(70,230,cs),
(70,408,o),
(173,700,o),
(353,700,cs),
(434,700,o),
(501,638,o),
(501,486,cs),
(501,318,o),
(405,14,o),
(219,14,cs)
);
}
);
width = 537;
},
{
anchors = (
{
name = bottom;
pos = (242,-208);
},
{
name = center;
pos = (359,258);
},
{
name = top;
pos = (438,714);
},
{
name = topright;
pos = (760,714);
}
);
layerId = "A783126C-D342-49FA-8B69-0453AD03268C";
shapes = (
{
closed = 1;
nodes = (
(479,-208,o),
(511,-202,o),
(549,-192,c),
(543,-167,l),
(506,-178,o),
(471,-183,o),
(427,-183,cs),
(344,-183,o),
(315,-101,o),
(307,-11,c),
(545,-4,o),
(661,268,o),
(661,450,cs),
(661,641,o),
(550,725,o),
(424,725,cs),
(180,725,o),
(57,458,o),
(57,266,cs),
(57,93,o),
(153,-2,o),
(279,-10,c),
(289,-118,o),
(322,-208,o),
(427,-208,cs)
);
},
{
closed = 1;
nodes = (
(185,14,o),
(85,88,o),
(85,266,cs),
(85,444,o),
(202,700,o),
(417,700,cs),
(537,700,o),
(633,628,o),
(633,449,cs),
(633,274,o),
(518,14,o),
(300,14,cs)
);
}
);
width = 689;
},
{
anchors = (
{
name = bottom;
pos = (197,-222);
},
{
name = center;
pos = (327,251);
},
{
name = top;
pos = (396,714);
},
{
name = topright;
pos = (678,714);
}
);
layerId = "44BFC83C-08F8-422F-A73E-536514612562";
shapes = (
{
closed = 1;
nodes = (
(394,-222,o),
(415,-214,o),
(440,-205,c),
(435,-164,l),
(420,-171,o),
(404,-175,o),
(385,-175,cs),
(335,-175,o),
(309,-126,o),
(308,-8,c),
(501,26,o),
(601,294,o),
(601,470,cs),
(601,646,o),
(509,725,o),
(400,725,cs),
(176,725,o),
(54,443,o),
(54,246,cs),
(54,100,o),
(118,12,o),
(209,-6,c),
(209,-123,o),
(248,-222,o),
(358,-222,cs)
);
},
{
closed = 1;
nodes = (
(201,43,o),
(152,96,o),
(152,220,cs),
(152,379,o),
(232,672,o),
(389,672,cs),
(456,672,o),
(502,617,o),
(502,495,cs),
(502,335,o),
(423,43,o),
(266,43,cs)
);
}
);
width = 603;
}
);
script = latin;
subCategory = Uppercase;
unicode = 81;
}
{
category = Letter;
glyphname = R;
kernLeft = B;
kernRight = R;
layers = (
{
anchors = (
{
name = bottom;
pos = (275,0);
},
{
name = center;
pos = (300,357);
},
{
name = top;
pos = (427,714);
},
{
name = topright;
pos = (739,714);
}
);
layerId = UUID0;
shapes = (
{
closed = 1;
nodes = (
(290,0,l),
(299,42,l),
(266,42,ls),
(224,42,o),
(194,48,o),
(194,82,cs),
(194,88,o),
(196,102,o),
(198,110,cs),
(242,315,l),
(341,315,l),
(399,117,ls),
(426,24,o),
(462,0,o),
(577,0,cs),
(590,0,l),
(598,42,l),
(590,42,ls),
(545,42,o),
(526,67,o),
(508,121,c),
(436,335,l),
(521,354,o),
(621,407,o),
(621,544,cs),
(621,658,o),
(546,714,o),
(392,714,cs),
(130,714,l),
(121,672,l),
(134,672,ls),
(176,672,o),
(206,666,o),
(206,632,cs),
(206,626,o),
(204,612,o),
(202,604,cs),
(97,109,ls),
(84,49,o),
(45,42,o),
(2,42,cs),
(-11,42,l),
(-20,0,l)
);
},
{
closed = 1;
nodes = (
(252,362,l),
(316,666,l),
(384,666,ls),
(473,666,o),
(515,633,o),
(515,538,cs),
(515,412,o),
(434,362,o),
(329,362,cs)
);
}
);
width = 664;
},
{
anchors = (
{
name = bottom;
pos = (313,0);
},
{
name = center;
pos = (354,357);
},
{
name = top;
pos = (465,714);
},
{
name = topright;
pos = (814,714);
}
);
layerId = "EFE4222C-09E4-4728-8E05-7459D7542305";
shapes = (
{
closed = 1;
nodes = (
(378,0,l),
(391,61,l),
(358,61,ls),
(316,61,o),
(284,65,o),
(284,91,cs),
(284,98,o),
(286,110,o),
(293,140,cs),
(329,306,l),
(376,306,l),
(442,112,ls),
(473,15,o),
(552,0,o),
(702,0,cs),
(720,0,l),
(733,61,l),
(727,61,ls),
(687,61,o),
(663,88,o),
(628,180,cs),
(561,345,l),
(641,364,o),
(734,416,o),
(734,549,cs),
(734,660,o),
(653,714,o),
(489,714,cs),
(125,714,l),
(112,653,l),
(125,653,ls),
(167,653,o),
(197,649,o),
(197,623,cs),
(197,619,o),
(195,610,o),
(190,585,cs),
(90,116,ls),
(80,70,o),
(41,61,o),
(0,61,cs),
(-13,61,l),
(-25,0,l)
);
},
{
closed = 1;
nodes = (
(341,372,l),
(405,647,l),
(443,647,ls),
(494,647,o),
(517,617,o),
(517,531,cs),
(517,417,o),
(462,372,o),
(392,372,cs)
);
}
);
width = 739;
},
{
anchors = (
{
name = bottom;
pos = (248,0);
},
{
name = center;
pos = (304,357);
},
{
name = top;
pos = (400,714);
},
{
name = topright;
pos = (684,714);
}
);
layerId = "081AFB27-5722-432A-9779-C9794386CEF1";
shapes = (
{
closed = 1;
nodes = (
(315,0,l),
(329,57,l),
(302,57,ls),
(268,57,o),
(242,61,o),
(242,87,cs),
(242,94,o),
(245,106,o),
(251,133,cs),
(288,308,l),
(322,308,l),
(368,113,ls),
(391,17,o),
(458,0,o),
(583,0,cs),
(598,0,l),
(611,57,l),
(606,57,ls),
(576,57,o),
(556,88,o),
(530,176,c),
(481,343,l),
(550,363,o),
(630,417,o),
(630,557,cs),
(630,663,o),
(565,714,o),
(435,714,cs),
(129,714,l),
(116,657,l),
(127,657,ls),
(161,657,o),
(184,653,o),
(184,627,cs),
(184,621,o),
(182,612,o),
(177,589,cs),
(77,114,ls),
(67,65,o),
(35,57,o),
(2,57,cs),
(-9,57,l),
(-21,0,l)
);
},
{
closed = 1;
nodes = (
(300,370,l),
(363,651,l),
(392,651,ls),
(427,651,o),
(444,625,o),
(444,555,cs),
(444,421,o),
(397,370,o),
(339,370,cs)
);
}
);
width = 609;
},
{
anchors = (
{
name = bottom;
pos = (185,0);
},
{
name = center;
pos = (218,357);
},
{
name = top;
pos = (337,714);
},
{
name = topright;
pos = (557,714);
}
);
layerId = "9563C917-11DF-412F-BB09-FC0C1CFFA48C";
shapes = (
{
closed = 1;
nodes = (
(177,0,l),
(181,20,l),
(144,20,ls),
(111,20,o),
(98,25,o),
(98,51,cs),
(98,64,o),
(101,82,o),
(107,108,cs),
(154,327,l),
(258,327,l),
(303,82,ls),
(314,21,o),
(326,0,o),
(391,0,cs),
(396,0,l),
(401,20,l),
(394,20,ls),
(352,20,o),
(341,34,o),
(330,90,cs),
(285,328,l),
(385,337,o),
(459,431,o),
(459,551,cs),
(459,669,o),
(388,714,o),
(287,714,cs),
(129,714,l),
(125,694,l),
(148,694,ls),
(186,694,o),
(194,689,o),
(194,663,cs),
(194,650,o),
(190,632,o),
(185,606,cs),
(79,108,ls),
(63,31,o),
(54,20,o),
(4,20,cs),
(-19,20,l),
(-23,0,l)
);
},
{
closed = 1;
nodes = (
(160,352,l),
(231,689,l),
(283,689,ls),
(370,689,o),
(431,649,o),
(431,550,cs),
(431,437,o),
(357,352,o),
(264,352,cs)
);
}
);
width = 482;
},
{
anchors = (
{
name = bottom;
pos = (249,0);
},
{
name = center;
pos = (264,357);
},
{
name = top;
pos = (401,714);
},
{
name = topright;
pos = (684,714);
}
);
layerId = "A783126C-D342-49FA-8B69-0453AD03268C";
shapes = (
{
closed = 1;
nodes = (
(228,0,l),
(232,20,l),
(173,20,ls),
(140,20,o),
(127,25,o),
(127,51,cs),
(127,64,o),
(131,82,o),
(136,108,cs),
(182,327,l),
(297,327,l),
(370,90,ls),
(393,13,o),
(418,0,o),
(468,0,cs),
(496,0,l),
(502,25,l),
(476,25,ls),
(432,25,o),
(416,36,o),
(397,96,cs),
(324,327,l),
(497,336,o),
(541,465,o),
(541,541,cs),
(541,656,o),
(471,714,o),
(345,714,cs),
(140,714,l),
(135,694,l),
(170,694,ls),
(216,694,o),
(223,690,o),
(223,665,cs),
(223,650,o),
(217,618,o),
(208,576,cs),
(108,108,ls),
(91,31,o),
(83,20,o),
(33,20,cs),
(-9,20,l),
(-13,0,l)
);
},
{
closed = 1;
nodes = (
(188,352,l),
(260,689,l),
(341,689,ls),
(459,689,o),
(513,636,o),
(513,541,cs),
(513,439,o),
(444,352,o),
(304,352,cs)
);
}
);
width = 609;
},
{
anchors = (
{
name = bottom;
pos = (214,0);
},
{
name = center;
pos = (259,357);
},
{
name = top;
pos = (366,714);
},
{
name = topright;
pos = (615,714);
}
);
layerId = "44BFC83C-08F8-422F-A73E-536514612562";
shapes = (
{
closed = 1;
nodes = (
(240,0,l),
(250,41,l),
(225,41,ls),
(193,41,o),
(170,47,o),
(170,79,cs),
(170,87,o),
(172,96,o),
(174,107,cs),
(218,315,l),
(288,315,l),
(328,117,ls),
(346,24,o),
(381,0,o),
(473,0,cs),
(488,0,l),
(497,41,l),
(490,41,ls),
(455,41,o),
(438,67,o),
(425,120,cs),
(377,331,l),
(449,354,o),
(535,410,o),
(535,554,cs),
(535,661,o),
(476,714,o),
(356,714,cs),
(133,714,l),
(124,673,l),
(135,673,ls),
(168,673,o),
(191,667,o),
(191,635,cs),
(191,628,o),
(189,619,o),
(187,605,cs),
(81,108,ls),
(68,47,o),
(37,41,o),
(3,41,cs),
(-8,41,l),
(-17,0,l)
);
},
{
closed = 1;
nodes = (
(228,361,l),
(292,667,l),
(343,667,ls),
(406,667,o),
(436,632,o),
(436,553,cs),
(436,415,o),
(366,361,o),
(286,361,cs)
);
}
);
width = 540;
}
);
script = latin;
subCategory = Uppercase;
unicode = 82;
}
{
category = Letter;
glyphname = S;
kernLeft = S;
kernRight = S;
layers = (
{
anchors = (
{
name = bottom;
pos = (215,0);
},
{
name = center;
pos = (280,357);
},
{
name = top;
pos = (367,714);
},
{
name = topright;
pos = (619,714);
}
);
layerId = UUID0;
shapes = (
{
closed = 1;
nodes = (
(392,-10,o),
(491,66,o),
(491,200,cs),
(491,280,o),
(443,337,o),
(343,395,cs),
(260,443,o),
(219,475,o),
(219,548,cs),
(219,634,o),
(285,674,o),
(355,674,cs),
(444,674,o),
(465,602,o),
(465,547,c),
(526,547,o),
(553,575,o),
(553,616,cs),
(553,680,o),
(479,724,o),
(363,724,cs),
(211,724,o),
(120,644,o),
(120,531,cs),
(120,430,o),
(178,373,o),
(262,325,cs),
(370,264,o),
(388,228,o),
(388,168,cs),
(388,89,o),
(330,39,o),
(236,39,cs),
(132,39,o),
(84,117,o),
(84,209,c),
(45,209,o),
(7,184,o),
(7,133,cs),
(7,56,o),
(83,-10,o),
(229,-10,cs)
);
}
);
width = 544;
},
{
anchors = (
{
name = bottom;
pos = (236,0);
},
{
name = center;
pos = (304,357);
},
{
name = top;
pos = (388,714);
},
{
name = topright;
pos = (661,714);
}
);
layerId = "0748FCBA-26BB-4096-A322-99C7EC440251";
shapes = (
{
closed = 1;
nodes = (
(429,-10,o),
(536,71,o),
(536,213,cs),
(536,298,o),
(489,363,o),
(388,417,cs),
(299,466,o),
(255,490,o),
(255,560,cs),
(255,630,o),
(312,663,o),
(365,663,cs),
(443,663,o),
(464,585,o),
(464,525,c),
(557,525,o),
(595,558,o),
(595,612,cs),
(595,675,o),
(522,724,o),
(374,724,cs),
(216,724,o),
(115,640,o),
(115,520,cs),
(115,415,o),
(169,355,o),
(273,298,cs),
(373,243,o),
(396,210,o),
(396,154,cs),
(396,96,o),
(352,51,o),
(277,51,cs),
(198,51,o),
(144,108,o),
(144,230,c),
(68,230,o),
(14,199,o),
(14,136,cs),
(14,53,o),
(96,-10,o),
(261,-10,cs)
);
}
);
width = 586;
},
{
anchors = (
{
name = bottom;
pos = (252,0);
},
{
name = center;
pos = (322,357);
},
{
name = top;
pos = (404,714);
},
{
name = topright;
pos = (692,714);
}
);
layerId = "EFE4222C-09E4-4728-8E05-7459D7542305";
shapes = (
{
closed = 1;
nodes = (
(456,-10,o),
(569,75,o),
(569,223,cs),
(569,311,o),
(523,382,o),
(421,433,cs),
(328,483,o),
(281,501,o),
(281,569,cs),
(281,627,o),
(322,655,o),
(372,655,cs),
(450,655,o),
(473,572,o),
(473,509,c),
(583,509,o),
(626,545,o),
(626,609,cs),
(626,671,o),
(554,724,o),
(388,724,cs),
(220,724,o),
(111,636,o),
(111,505,cs),
(111,403,o),
(162,342,o),
(281,278,cs),
(375,228,o),
(402,197,o),
(402,144,cs),
(402,101,o),
(368,60,o),
(307,60,cs),
(241,60,o),
(178,101,o),
(178,245,c),
(81,245,o),
(19,210,o),
(19,138,cs),
(19,51,o),
(105,-10,o),
(284,-10,cs)
);
}
);
width = 617;
},
{
anchors = (
{
name = bottom;
pos = (198,0);
},
{
name = center;
pos = (281,357);
},
{
name = top;
pos = (350,714);
},
{
name = topright;
pos = (584,714);
}
);
layerId = "081AFB27-5722-432A-9779-C9794386CEF1";
shapes = (
{
closed = 1;
nodes = (
(381,-10,o),
(479,77,o),
(479,228,cs),
(479,309,o),
(444,374,o),
(366,425,cs),
(294,472,o),
(256,494,o),
(256,559,cs),
(256,626,o),
(289,659,o),
(330,659,cs),
(393,659,o),
(409,579,o),
(407,517,c),
(502,517,o),
(541,552,o),
(541,614,cs),
(541,674,o),
(484,724,o),
(347,724,cs),
(205,724,o),
(109,634,o),
(109,499,cs),
(109,405,o),
(150,347,o),
(242,287,cs),
(314,240,o),
(335,206,o),
(335,155,cs),
(335,105,o),
(305,57,o),
(254,57,cs),
(190,57,o),
(157,103,o),
(162,237,c),
(76,237,o),
(22,203,o),
(22,132,cs),
(22,50,o),
(91,-10,o),
(236,-10,cs)
);
}
);
width = 509;
},
{
anchors = (
{
name = bottom;
pos = (139,0);
},
{
name = center;
pos = (197,357);
},
{
name = top;
pos = (291,714);
},
{
name = topright;
pos = (465,714);
}
);
layerId = "9563C917-11DF-412F-BB09-FC0C1CFFA48C";
shapes = (
{
closed = 1;
nodes = (
(264,-10,o),
(338,65,o),
(338,190,cs),
(338,259,o),
(300,311,o),
(228,370,cs),
(157,425,o),
(131,458,o),
(131,527,cs),
(131,631,o),
(193,699,o),
(271,699,cs),
(360,699,o),
(380,626,o),
(378,578,c),
(393,578,o),
(405,589,o),
(405,608,cs),
(405,669,o),
(356,724,o),
(273,724,cs),
(170,724,o),
(103,638,o),
(103,527,cs),
(103,451,o),
(135,408,o),
(196,360,cs),
(285,291,o),
(310,243,o),
(310,190,cs),
(310,84,o),
(248,15,o),
(145,15,cs),
(41,15,o),
(11,87,o),
(11,180,c),
(-1,177,o),
(-11,164,o),
(-11,138,cs),
(-11,67,o),
(23,-10,o),
(143,-10,cs)
);
}
);
width = 390;
},
{
anchors = (
{
name = bottom;
pos = (189,0);
},
{
name = center;
pos = (240,357);
},
{
name = top;
pos = (341,714);
},
{
name = topright;
pos = (564,714);
}
);
layerId = "A783126C-D342-49FA-8B69-0453AD03268C";
shapes = (
{
closed = 1;
nodes = (
(339,-10,o),
(428,58,o),
(428,174,cs),
(428,257,o),
(392,302,o),
(266,377,cs),
(191,422,o),
(150,461,o),
(150,531,cs),
(150,645,o),
(236,699,o),
(326,699,cs),
(441,699,o),
(463,641,o),
(461,575,c),
(477,575,o),
(488,585,o),
(488,605,cs),
(488,660,o),
(452,724,o),
(328,724,cs),
(199,724,o),
(122,640,o),
(122,531,cs),
(122,443,o),
(171,401,o),
(252,354,cs),
(373,283,o),
(400,242,o),
(400,174,cs),
(400,70,o),
(320,15,o),
(195,15,cs),
(71,15,o),
(20,73,o),
(20,188,c),
(4,187,o),
(-7,177,o),
(-7,158,cs),
(-7,64,o),
(56,-10,o),
(195,-10,cs)
);
}
);
width = 489;
},
{
anchors = (
{
name = bottom;
pos = (166,0);
},
{
name = center;
pos = (245,357);
},
{
name = top;
pos = (318,714);
},
{
name = topright;
pos = (520,714);
}
);
layerId = "44BFC83C-08F8-422F-A73E-536514612562";
shapes = (
{
closed = 1;
nodes = (
(326,-10,o),
(411,70,o),
(411,208,cs),
(411,282,o),
(375,337,o),
(301,393,cs),
(237,438,o),
(204,471,o),
(204,537,cs),
(204,633,o),
(256,676,o),
(315,676,cs),
(386,676,o),
(400,605,o),
(398,550,c),
(454,550,o),
(478,578,o),
(478,621,cs),
(478,682,o),
(421,724,o),
(325,724,cs),
(197,724,o),
(117,636,o),
(117,514,cs),
(117,424,o),
(160,373,o),
(226,328,cs),
(305,269,o),
(323,231,o),
(323,178,cs),
(323,92,o),
(277,39,o),
(201,39,cs),
(118,39,o),
(85,118,o),
(87,206,c),
(50,206,o),
(13,182,o),
(13,128,cs),
(13,54,o),
(72,-10,o),
(191,-10,cs)
);
}
);
width = 445;
},
{
anchors = (
{
name = bottom;
pos = (184,0);
},
{
name = center;
pos = (266,357);
},
{
name = top;
pos = (336,714);
},
{
name = topright;
pos = (556,714);
}
);
layerId = "50C02CB6-129D-4BF7-ADB7-784B68302109";
shapes = (
{
closed = 1;
nodes = (
(357,-10,o),
(449,74,o),
(449,219,cs),
(449,297,o),
(414,358,o),
(338,411,cs),
(269,457,o),
(233,484,o),
(233,549,cs),
(233,629,o),
(275,666,o),
(323,666,cs),
(390,666,o),
(405,590,o),
(403,531,c),
(481,531,o),
(514,563,o),
(514,617,cs),
(514,677,o),
(457,724,o),
(337,724,cs),
(202,724,o),
(112,635,o),
(112,506,cs),
(112,413,o),
(154,358,o),
(235,305,cs),
(310,253,o),
(330,217,o),
(330,165,cs),
(330,99,o),
(293,49,o),
(231,49,cs),
(159,49,o),
(126,110,o),
(130,224,c),
(65,224,o),
(18,194,o),
(18,130,cs),
(18,52,o),
(83,-10,o),
(217,-10,cs)
);
}
);
width = 481;
}
);
script = latin;
subCategory = Uppercase;
unicode = 83;
}
{
category = Letter;
glyphname = T;
kernLeft = T;
kernRight = T;
layers = (
{
anchors = (
{
name = bottom;
pos = (250,0);
},
{
name = center;
pos = (345,357);
},
{
name = top;
pos = (402,714);
},
{
name = topright;
pos = (688,714);
}
);
layerId = UUID0;
shapes = (
{
closed = 1;
nodes = (
(403,0,l),
(412,42,l),
(389,42,ls),
(347,42,o),
(317,48,o),
(317,82,cs),
(317,88,o),
(319,102,o),
(321,110,cs),
(439,664,l),
(536,664,ls),
(587,664,o),
(602,635,o),
(602,600,cs),
(602,594,o),
(598,550,o),
(597,539,c),
(649,539,l),
(681,714,l),
(118,714,l),
(76,539,l),
(128,539,l),
(142,582,ls),
(157,626,o),
(183,664,o),
(242,664,cs),
(338,664,l),
(220,109,ls),
(207,49,o),
(168,42,o),
(124,42,cs),
(101,42,l),
(92,0,l)
);
}
);
width = 613;
},
{
anchors = (
{
name = bottom;
pos = (284,0);
},
{
name = center;
pos = (379,357);
},
{
name = top;
pos = (436,714);
},
{
name = topright;
pos = (757,714);
}
);
layerId = "EFE4222C-09E4-4728-8E05-7459D7542305";
shapes = (
{
closed = 1;
nodes = (
(481,0,l),
(494,61,l),
(488,61,ls),
(446,61,o),
(414,65,o),
(414,91,cs),
(414,97,o),
(416,106,o),
(421,128,cs),
(531,645,l),
(598,645,ls),
(649,645,o),
(671,635,o),
(671,600,cs),
(671,594,o),
(662,514,o),
(661,506,c),
(739,506,l),
(776,714,l),
(111,714,l),
(62,506,l),
(140,506,l),
(154,549,ls),
(176,617,o),
(197,645,o),
(261,645,cs),
(329,645,l),
(220,116,ls),
(210,70,o),
(171,61,o),
(131,61,cs),
(125,61,l),
(113,0,l)
);
}
);
width = 682;
},
{
anchors = (
{
name = bottom;
pos = (224,0);
},
{
name = center;
pos = (319,357);
},
{
name = top;
pos = (376,714);
},
{
name = topright;
pos = (637,714);
}
);
layerId = "081AFB27-5722-432A-9779-C9794386CEF1";
shapes = (
{
closed = 1;
nodes = (
(399,0,l),
(412,57,l),
(409,57,ls),
(375,57,o),
(349,61,o),
(349,87,cs),
(349,94,o),
(352,103,o),
(356,124,cs),
(467,649,l),
(519,649,ls),
(558,649,o),
(577,636,o),
(577,602,cs),
(577,593,o),
(567,526,o),
(565,513,c),
(630,513,l),
(669,714,l),
(118,714,l),
(70,513,l),
(135,513,l),
(149,556,ls),
(169,619,o),
(188,649,o),
(240,649,cs),
(293,649,l),
(184,114,ls),
(174,65,o),
(142,57,o),
(110,57,cs),
(106,57,l),
(94,0,l)
);
}
);
width = 562;
},
{
anchors = (
{
name = bottom;
pos = (165.991,0);
},
{
name = center;
pos = (260.991,357);
},
{
name = top;
pos = (317.991,714);
},
{
name = topright;
pos = (521,714);
}
);
layerId = "9563C917-11DF-412F-BB09-FC0C1CFFA48C";
shapes = (
{
closed = 1;
nodes = (
(252,0,l),
(256,20,l),
(233,20,ls),
(200,20,o),
(187,25,o),
(187,51,cs),
(187,64,o),
(191,82,o),
(196,108,cs),
(319,689,l),
(430,689,ls),
(457,689,o),
(468,687,o),
(468,657,cs),
(468,640,o),
(465,615,o),
(459,576,c),
(481,576,l),
(508,714,l),
(119,714,l),
(85,576,l),
(107,576,l),
(119,619,ls),
(137,683,o),
(140,689,o),
(197,689,cs),
(291,689,l),
(168,108,ls),
(152,31,o),
(143,20,o),
(93,20,cs),
(70,20,l),
(66,0,l)
);
}
);
width = 446;
},
{
anchors = (
{
name = bottom;
pos = (224,0);
},
{
name = center;
pos = (319,357);
},
{
name = top;
pos = (376,714);
},
{
name = topright;
pos = (637,714);
}
);
layerId = "A783126C-D342-49FA-8B69-0453AD03268C";
shapes = (
{
closed = 1;
nodes = (
(346,0,l),
(351,20,l),
(314,20,ls),
(248,20,o),
(241,25,o),
(241,55,cs),
(241,61,o),
(243,78,o),
(248,102,cs),
(373,689,l),
(510,689,ls),
(562,689,o),
(566,682,o),
(566,651,cs),
(566,627,o),
(563,600,o),
(557,563,c),
(582,563,l),
(610,714,l),
(122,714,l),
(86,563,l),
(111,563,l),
(123,611,ls),
(142,687,o),
(146,689,o),
(230,689,cs),
(345,689,l),
(220,102,ls),
(204,25,o),
(196,20,o),
(116,20,cs),
(80,20,l),
(75,0,l)
);
}
);
width = 562;
},
{
anchors = (
{
name = bottom;
pos = (193,0);
},
{
name = center;
pos = (288,357);
},
{
name = top;
pos = (345,714);
},
{
name = topright;
pos = (574,714);
}
);
layerId = "44BFC83C-08F8-422F-A73E-536514612562";
shapes = (
{
closed = 1;
nodes = (
(333,0,l),
(342,41,l),
(326,41,ls),
(292,41,o),
(269,47,o),
(269,79,cs),
(269,87,o),
(270,95,o),
(274,114,cs),
(390,665,l),
(465,665,ls),
(502,665,o),
(516,639,o),
(516,605,cs),
(516,596,o),
(511,555,o),
(509,542,c),
(553,542,l),
(587,714,l),
(124,714,l),
(82,542,l),
(127,542,l),
(140,585,ls),
(154,626,o),
(177,665,o),
(224,665,cs),
(297,665,l),
(181,108,ls),
(168,47,o),
(137,41,o),
(102,41,cs),
(86,41,l),
(76,0,l)
);
}
);
width = 499;
}
);
script = latin;
subCategory = Uppercase;
unicode = 84;
}
{
category = Letter;
glyphname = U;
kernLeft = U;
kernRight = U;
layers = (
{
anchors = (
{
name = bottom;
pos = (308,0);
},
{
name = center;
pos = (446,352);
},
{
name = top;
pos = (460,714);
},
{
name = topright;
pos = (805,714);
}
);
layerId = UUID0;
shapes = (
{
closed = 1;
nodes = (
(482,-10,o),
(565,71,o),
(593,204,cs),
(677,600,ls),
(691,663,o),
(731,672,o),
(775,672,cs),
(788,672,l),
(796,714,l),
(545,714,l),
(536,672,l),
(549,672,ls),
(591,672,o),
(621,666,o),
(621,632,cs),
(621,626,o),
(619,612,o),
(617,604,c),
(532,206,ls),
(513,118,o),
(468,50,o),
(338,50,cs),
(247,50,o),
(194,86,o),
(194,154,cs),
(194,182,o),
(199,213,o),
(206,247,cs),
(281,600,ls),
(295,663,o),
(335,672,o),
(379,672,cs),
(392,672,l),
(400,714,l),
(109,714,l),
(100,672,l),
(113,672,ls),
(155,672,o),
(185,666,o),
(185,632,cs),
(185,626,o),
(183,612,o),
(181,604,c),
(107,252,ls),
(102,229,o),
(96,184,o),
(96,163,cs),
(96,53,o),
(177,-10,o),
(323,-10,cs)
);
}
);
width = 730;
},
{
anchors = (
{
name = bottom;
pos = (317,0);
},
{
name = center;
pos = (464,352);
},
{
name = top;
pos = (469,714);
},
{
name = topright;
pos = (822,714);
}
);
layerId = "0748FCBA-26BB-4096-A322-99C7EC440251";
shapes = (
{
closed = 1;
nodes = (
(510,-10,o),
(600,71,o),
(632,220,cs),
(712,600,l),
(723,653,o),
(763,661,o),
(806,661,cs),
(819,661,l),
(830,714,l),
(567,714,l),
(556,661,l),
(569,661,ls),
(611,661,o),
(641,656,o),
(641,627,cs),
(641,622,o),
(639,608,o),
(637,597,c),
(560,236,ls),
(539,135,o),
(498,61,o),
(377,61,cs),
(297,61,o),
(254,96,o),
(254,163,cs),
(254,191,o),
(261,227,o),
(266,250,cs),
(342,602,ls),
(353,653,o),
(393,661,o),
(437,661,cs),
(450,661,l),
(461,714,l),
(115,714,l),
(104,661,l),
(117,661,ls),
(159,661,o),
(189,656,o),
(189,627,cs),
(189,622,o),
(187,611,o),
(183,593,cs),
(110,252,l),
(105,229,o),
(99,184,o),
(99,163,cs),
(99,53,o),
(185,-10,o),
(341,-10,cs)
);
}
);
width = 747;
},
{
anchors = (
{
name = bottom;
pos = (323,0);
},
{
name = center;
pos = (478,352);
},
{
name = top;
pos = (475,714);
},
{
name = topright;
pos = (835,714);
}
);
layerId = "EFE4222C-09E4-4728-8E05-7459D7542305";
shapes = (
{
closed = 1;
nodes = (
(530,-10,o),
(626,71,o),
(661,232,cs),
(738,600,ls),
(746,646,o),
(786,653,o),
(829,653,cs),
(842,653,l),
(855,714,l),
(583,714,l),
(571,653,l),
(584,653,ls),
(626,653,o),
(656,649,o),
(656,623,cs),
(656,619,o),
(654,605,o),
(652,592,cs),
(580,258,ls),
(558,148,o),
(520,69,o),
(406,69,cs),
(334,69,o),
(298,103,o),
(298,170,cs),
(298,198,o),
(306,237,o),
(310,252,cs),
(387,603,ls),
(396,646,o),
(436,653,o),
(480,653,cs),
(493,653,l),
(506,714,l),
(119,714,l),
(107,653,l),
(120,653,ls),
(162,653,o),
(192,649,o),
(192,623,cs),
(192,619,o),
(190,610,o),
(184,585,cs),
(112,252,ls),
(107,229,o),
(101,184,o),
(101,163,cs),
(101,53,o),
(191,-10,o),
(354,-10,cs)
);
}
);
width = 760;
},
{
anchors = (
{
name = bottom;
pos = (255,0);
},
{
name = center;
pos = (409,352);
},
{
name = top;
pos = (407,714);
},
{
name = topright;
pos = (698,714);
}
);
layerId = "081AFB27-5722-432A-9779-C9794386CEF1";
shapes = (
{
closed = 1;
nodes = (
(435,-10,o),
(522,72,o),
(553,226,cs),
(629,600,ls),
(639,650,o),
(672,657,o),
(706,657,cs),
(717,657,l),
(730,714,l),
(507,714,l),
(495,657,l),
(505,657,ls),
(539,657,o),
(563,653,o),
(563,627,cs),
(563,621,o),
(561,607,o),
(558,595,cs),
(487,259,ls),
(463,149,o),
(430,65,o),
(340,65,cs),
(285,65,o),
(258,96,o),
(258,158,cs),
(258,190,o),
(267,230,o),
(272,251,cs),
(348,602,ls),
(358,650,o),
(390,657,o),
(426,657,cs),
(437,657,l),
(450,714,l),
(126,714,l),
(114,657,l),
(124,657,ls),
(158,657,o),
(182,653,o),
(182,627,cs),
(182,621,o),
(179,612,o),
(174,589,cs),
(101,252,ls),
(96,228,o),
(89,180,o),
(89,155,cs),
(89,50,o),
(160,-10,o),
(291,-10,cs)
);
}
);
width = 623;
},
{
anchors = (
{
name = bottom;
pos = (223,0);
},
{
name = center;
pos = (364,352);
},
{
name = top;
pos = (375,714);
},
{
name = topright;
pos = (635,714);
}
);
layerId = "9563C917-11DF-412F-BB09-FC0C1CFFA48C";
shapes = (
{
closed = 1;
nodes = (
(368,-10,o),
(422,66,o),
(447,183,cs),
(538,606,ls),
(554,683,o),
(563,694,o),
(613,694,cs),
(636,694,l),
(640,714,l),
(452,714,l),
(448,694,l),
(473,694,ls),
(506,694,o),
(519,689,o),
(519,663,cs),
(519,650,o),
(516,632,o),
(510,606,cs),
(419,183,ls),
(399,91,o),
(351,15,o),
(239,15,cs),
(156,15,o),
(116,60,o),
(116,143,cs),
(116,174,o),
(121,213,o),
(129,252,cs),
(204,606,ls),
(221,683,o),
(229,694,o),
(279,694,cs),
(304,694,l),
(308,714,l),
(120,714,l),
(116,694,l),
(139,694,ls),
(172,694,o),
(185,689,o),
(185,663,cs),
(185,650,o),
(182,632,o),
(176,606,cs),
(101,252,ls),
(94,217,o),
(88,179,o),
(88,143,cs),
(88,50,o),
(134,-10,o),
(237,-10,cs)
);
}
);
width = 574;
},
{
anchors = (
{
name = bottom;
pos = (298,0);
},
{
name = center;
pos = (443,352);
},
{
name = top;
pos = (450,714);
},
{
name = topright;
pos = (783,714);
}
);
layerId = "A783126C-D342-49FA-8B69-0453AD03268C";
shapes = (
{
closed = 1;
nodes = (
(472,-10,o),
(534,71,o),
(558,184,cs),
(647,606,ls),
(663,683,o),
(672,694,o),
(722,694,cs),
(765,694,l),
(769,714,l),
(541,714,l),
(537,694,l),
(582,694,ls),
(615,694,o),
(628,689,o),
(628,663,cs),
(628,650,o),
(624,632,o),
(619,606,cs),
(529,185,ls),
(510,96,o),
(456,15,o),
(313,15,cs),
(208,15,o),
(146,74,o),
(146,159,cs),
(146,177,o),
(149,218,o),
(160,268,cs),
(233,606,ls),
(249,683,o),
(258,694,o),
(308,694,cs),
(353,694,l),
(357,714,l),
(129,714,l),
(125,694,l),
(168,694,ls),
(201,694,o),
(214,689,o),
(214,663,cs),
(214,650,o),
(211,632,o),
(205,606,cs),
(132,267,ls),
(122,221,o),
(118,182,o),
(118,161,cs),
(118,51,o),
(193,-10,o),
(313,-10,cs)
);
}
);
width = 718;
},
{
anchors = (
{
name = bottom;
pos = (237,0);
},
{
name = center;
pos = (379,352);
},
{
name = top;
pos = (389,714);
},
{
name = topright;
pos = (664,714);
}
);
layerId = "44BFC83C-08F8-422F-A73E-536514612562";
shapes = (
{
closed = 1;
nodes = (
(391,-10,o),
(464,71,o),
(491,202,cs),
(575,600,ls),
(588,664,o),
(621,673,o),
(656,673,cs),
(666,673,l),
(674,714,l),
(471,714,l),
(462,673,l),
(472,673,ls),
(505,673,o),
(529,667,o),
(529,635,cs),
(529,628,o),
(527,616,o),
(524,605,cs),
(442,218,ls),
(421,118,o),
(383,49,o),
(281,49,cs),
(213,49,o),
(175,83,o),
(175,150,cs),
(175,175,o),
(179,206,o),
(188,247,cs),
(263,600,ls),
(276,664,o),
(309,673,o),
(344,673,cs),
(355,673,l),
(363,714,l),
(119,714,l),
(110,673,l),
(120,673,ls),
(152,673,o),
(176,667,o),
(176,635,cs),
(176,628,o),
(175,619,o),
(171,601,cs),
(97,252,ls),
(92,227,o),
(84,179,o),
(84,154,cs),
(84,50,o),
(147,-10,o),
(263,-10,cs)
);
}
);
width = 589;
},
{
anchors = (
{
name = bottom;
pos = (247,0);
},
{
name = center;
pos = (396,352);
},
{
name = top;
pos = (399,714);
},
{
name = topright;
pos = (683,714);
}
);
layerId = "50C02CB6-129D-4BF7-ADB7-784B68302109";
shapes = (
{
closed = 1;
nodes = (
(416,-10,o),
(497,72,o),
(526,216,cs),
(606,600,ls),
(617,656,o),
(650,664,o),
(684,664,cs),
(695,664,l),
(706,714,l),
(491,714,l),
(481,664,l),
(491,664,ls),
(524,664,o),
(548,659,o),
(548,630,cs),
(548,624,o),
(546,611,o),
(543,599,cs),
(467,241,ls),
(445,135,o),
(409,58,o),
(314,58,cs),
(254,58,o),
(222,90,o),
(222,155,cs),
(222,184,o),
(229,220,o),
(236,249,cs),
(311,601,ls),
(322,656,o),
(355,664,o),
(390,664,cs),
(401,664,l),
(412,714,l),
(123,714,l),
(112,664,l),
(122,664,ls),
(155,664,o),
(179,659,o),
(179,630,cs),
(179,624,o),
(177,615,o),
(173,594,cs),
(99,252,ls),
(94,228,o),
(87,180,o),
(87,154,cs),
(87,50,o),
(154,-10,o),
(279,-10,cs)
);
}
);
width = 608;
}
);
script = latin;
subCategory = Uppercase;
unicode = 85;
}
